<svg width="64" height="50" viewBox="0 0 64 50" fill="none" xmlns="http://www.w3.org/2000/svg">
<path d="M5.54323 1.37954L27.4515 26.2469C28.6993 27.6552 30.4998 28.4752 32.3715 28.4752C34.2432 28.4752 36.0437 27.673 37.2915 26.2469L58.8432 1.80737C59.0215 1.61128 59.2354 1.45084 59.4493 1.32606C58.5402 0.933888 57.5241 0.702148 56.4724 0.702148H8.30628C7.29019 0.702148 6.32758 0.898235 5.4541 1.27258C5.48975 1.30824 5.52541 1.34389 5.56106 1.37954H5.54323Z" fill="#FFDE5D"/>
<path d="M62.7828 4.19629C62.6937 4.44585 62.5511 4.69542 62.355 4.90933L40.8211 29.3489C38.6819 31.7732 35.6158 33.1637 32.3893 33.1637C29.1628 33.1637 26.0967 31.7732 23.9576 29.3489L2.04932 4.46368C2.04932 4.46368 1.97802 4.35672 1.94237 4.30325C1.26498 5.42629 0.872803 6.72759 0.872803 8.13585V41.7915C0.872803 45.9093 4.20628 49.2428 8.32411 49.2428H56.508C60.6258 49.2428 63.9593 45.9093 63.9593 41.7915V8.15368C63.9593 6.69194 63.5315 5.35498 62.8185 4.19629H62.7828Z" fill="#FFDE5D"/>
</svg>
