<svg width="23" height="26" viewBox="0 0 23 26" fill="none" xmlns="http://www.w3.org/2000/svg">
<path d="M22.2466 10.5181C22.0377 10.5398 21.8216 10.547 21.6054 10.5542C19.2641 10.5542 17.0812 9.37268 15.7988 7.41313V18.097C15.7988 22.4627 12.2616 25.9928 7.90302 25.9928C3.54447 25.9928 0 22.4627 0 18.097C0 13.7312 3.53727 10.2012 7.89582 10.2012C8.06151 10.2012 8.22001 10.2156 8.3857 10.2228V14.1131C8.22721 14.0914 8.06151 14.0626 7.89582 14.0626C5.66971 14.0626 3.86146 15.8709 3.86146 18.097C3.86146 20.3231 5.66971 22.1313 7.89582 22.1313C10.1219 22.1313 12.0887 20.3735 12.0887 18.1474L12.1247 0H15.8493C16.2023 3.34275 18.8894 5.95068 22.2394 6.19562V10.5181" fill="white"/>
</svg>
