<svg width="81" height="63" viewBox="0 0 81 63" fill="none" xmlns="http://www.w3.org/2000/svg">
<path d="M6.02121 0.869983L34.1583 32.8075C35.7609 34.6162 38.0732 35.6693 40.4771 35.6693C42.881 35.6693 45.1933 34.6391 46.7959 32.8075L74.4751 1.41945C74.7041 1.16761 74.9788 0.96156 75.2535 0.8013C74.0859 0.297626 72.781 0 71.4302 0H9.56982C8.26485 0 7.02856 0.251837 5.90674 0.732617C5.95253 0.778406 5.99832 0.824194 6.0441 0.869983H6.02121Z" fill="#FFDE5D"/>
<path d="M79.5348 4.4873C79.4203 4.80782 79.2372 5.12834 78.9854 5.40308L51.3291 36.7911C48.5817 39.9048 44.6439 41.6905 40.5001 41.6905C36.3562 41.6905 32.4184 39.9048 29.6711 36.7911L1.53397 4.83072C1.53397 4.83072 1.4424 4.69335 1.39661 4.62467C0.526624 6.06701 0.0229492 7.73829 0.0229492 9.54694V52.7714C0.0229492 58.0599 4.30418 62.3412 9.59276 62.3412H71.476C76.7646 62.3412 81.0458 58.0599 81.0458 52.7714V9.56984C81.0458 7.6925 80.4964 5.97543 79.5806 4.4873H79.5348Z" fill="#FFDE5D"/>
</svg>
