<svg width="49" height="45" viewBox="0 0 49 45" fill="none" xmlns="http://www.w3.org/2000/svg">
<path fill-rule="evenodd" clip-rule="evenodd" d="M42.6445 29.7382C40.5834 28.5113 37.9335 27.1373 35.4798 28.1188C33.615 28.8548 32.4373 31.7992 31.2595 33.2714C30.6216 34.0566 29.8855 34.1547 28.9531 33.7622C21.9847 30.965 16.6358 26.3521 12.8081 19.9236C12.1701 18.9421 12.2683 18.1569 13.0534 17.2245C14.2312 15.8505 15.6543 14.3292 15.9978 12.4644C16.2923 10.5997 15.458 8.48953 14.6728 6.82104C13.6914 4.7109 12.6118 1.71744 10.5016 0.539691C8.58779 -0.539916 6.03599 0.0489606 4.31843 1.47208C1.37405 3.87666 0 7.70436 0 11.4339C0 12.5135 0.147219 13.5441 0.392584 14.5746C0.981461 17.0282 2.15921 19.3837 3.43511 21.543C4.41658 23.2114 5.44711 24.8309 6.57579 26.3521C10.3053 31.4066 14.9182 35.8232 20.3162 39.1111C23.0153 40.7305 25.8615 42.2027 28.855 43.1842C32.1919 44.3129 35.1854 45.4415 38.8168 44.7545C42.5954 44.0184 46.325 41.712 47.8462 38.0315C48.2879 36.9519 48.5333 35.7251 48.2879 34.5964C47.7481 32.2409 44.5583 30.8178 42.6445 29.6891V29.7382Z" fill="#55504D"/>
</svg>
