<svg width="16" height="20" viewBox="0 0 16 20" fill="none" xmlns="http://www.w3.org/2000/svg">
<g clip-path="url(#clip0_542_580)">
<path d="M7.72134 5.04883C6.45471 5.04883 5.41943 6.07833 5.41943 7.35074C5.41943 8.62315 6.44893 9.65265 7.72134 9.65265C8.99375 9.65265 10.0233 8.62315 10.0233 7.35074C10.0233 6.07833 8.99375 5.04883 7.72134 5.04883Z" fill="white"/>
<path d="M7.72123 0C3.45865 0 0 3.45865 0 7.72123C0 11.3592 5.61596 17.9352 7.2701 19.7976C7.51301 20.0694 7.93522 20.0694 8.17814 19.7976C9.83227 17.9352 15.4482 11.3592 15.4482 7.72123C15.4425 3.45865 11.9838 0 7.72123 0ZM7.72123 11.1683C5.61596 11.1683 3.90399 9.45633 3.90399 7.35107C3.90399 5.24581 5.61596 3.53383 7.72123 3.53383C9.82649 3.53383 11.5385 5.24581 11.5385 7.35107C11.5385 9.45633 9.82649 11.1683 7.72123 11.1683Z" fill="white"/>
</g>
<defs>
<clipPath id="clip0_542_580">
<rect width="15.4425" height="20" fill="white"/>
</clipPath>
</defs>
</svg>
