<svg width="26" height="26" viewBox="0 0 26 26" fill="none" xmlns="http://www.w3.org/2000/svg">
<g clip-path="url(#clip0_2101_91)">
<path d="M19.8857 4.64453C19.0406 4.64453 18.3645 5.32797 18.3645 6.16573C18.3645 7.00349 19.0479 7.68693 19.8857 7.68693C20.7235 7.68693 21.4069 7.00349 21.4069 6.16573C21.4069 5.32797 20.7235 4.64453 19.8857 4.64453Z" fill="white"/>
<path d="M13.1103 6.59961C9.58285 6.59961 6.70947 9.47298 6.70947 13.0004C6.70947 16.5278 9.58285 19.4012 13.1103 19.4012C16.6377 19.4012 19.5111 16.5278 19.5111 13.0004C19.5111 9.47298 16.6377 6.59961 13.1103 6.59961ZM13.1103 17.101C10.8468 17.101 9.00964 15.2638 9.00964 13.0004C9.00964 10.737 10.8468 8.89978 13.1103 8.89978C15.3737 8.89978 17.2109 10.737 17.2109 13.0004C17.2109 15.2638 15.3737 17.101 13.1103 17.101Z" fill="white"/>
<path d="M18.1883 26H7.80443C3.49805 26 -0.00732422 22.4946 -0.00732422 18.1882V7.80441C2.45655e-05 3.50537 3.50539 0 7.81178 0H18.1956C22.502 0 26.0074 3.50537 26.0074 7.81176V18.1956C26.0074 22.502 22.502 26.0073 18.1956 26.0073L18.1883 26ZM7.81178 2.44714C4.85757 2.44714 2.44717 4.8502 2.44717 7.81176V18.1956C2.44717 21.1498 4.85022 23.5602 7.81178 23.5602H18.1956C21.1498 23.5602 23.5602 21.1572 23.5602 18.1956V7.81176C23.5602 4.85755 21.1572 2.44714 18.1956 2.44714H7.81178Z" fill="white"/>
</g>
<defs>
<clipPath id="clip0_2101_91">
<rect width="26" height="26" fill="white"/>
</clipPath>
</defs>
</svg>
