<svg width="35" height="40" viewBox="0 0 35 40" fill="none" xmlns="http://www.w3.org/2000/svg">
<path d="M17.293 0C10.6494 0 9.52197 3.16087 9.52197 3.16087C12.0642 3.16087 16.5001 10.3651 16.5001 10.3651H18.0876C18.0876 10.3651 22.5219 3.16087 25.0657 3.16087C25.0657 3.16087 23.9382 0 17.2946 0L17.293 0Z" fill="#BEA941"/>
<path d="M13.7787 10.3651C13.7787 10.3651 13.058 8.00822 7.92963 7.66905C7.92963 7.66905 7.80244 3.84554 11.9133 1.85449C11.9133 1.85449 16.8297 4.24124 16.8297 10.3651H13.7772H13.7787Z" fill="#FFDE5D"/>
<path d="M20.8088 10.3651C20.8088 10.3651 21.5295 8.00822 26.6579 7.66905C26.6579 7.66905 26.7851 3.84554 22.6742 1.85449C22.6742 1.85449 17.7578 4.24124 17.7578 10.3651H20.8088Z" fill="#FFDE5D"/>
<path d="M19.3656 10.6304C19.3656 10.6304 19.0076 6.74879 22.2077 2.72587C22.2077 2.72587 16.4324 -1.374 12.5979 2.97239C12.5979 2.97239 14.8622 6.51169 15.0192 10.9083L19.3672 10.6304H19.3656Z" fill="#FDE779"/>
<path d="M34.7743 33.2855C34.7743 42.8875 26.7488 39.3717 17.1469 39.3717C7.54495 39.3717 0 42.8875 0 33.2855C0 23.6836 9.47005 10.9082 17.3871 10.9082C25.3042 10.9082 34.7743 23.682 34.7743 33.284V33.2855Z" fill="#FFDE5D"/>
<g style="mix-blend-mode:multiply">
<path d="M31.3936 39.0707C23.8644 36.8598 16.0509 38.229 8.3301 38.3845C5.88368 38.4332 3.25198 38.3531 0.865234 37.6104C3.10595 41.6191 9.46852 39.3706 17.1454 39.3706C23.3588 39.3706 28.9127 40.8419 32.0578 39.2795C31.838 39.2073 31.6166 39.1366 31.3936 39.0707Z" fill="#FDE157"/>
</g>
<g style="mix-blend-mode:multiply" opacity="0.3">
<path d="M15.2093 12.9777C14.542 13.9544 13.8417 14.639 13.6454 14.5039C13.4491 14.3705 13.8323 13.4692 14.4996 12.4925C15.1669 11.5158 15.8673 10.8312 16.0635 10.9662C16.2598 11.0997 15.8767 12.001 15.2093 12.9792V12.9777Z" fill="#BEA941"/>
</g>
<g style="mix-blend-mode:multiply" opacity="0.3">
<path d="M19.565 12.9777C20.2324 13.9544 20.9327 14.639 21.129 14.5039C21.3253 14.3705 20.9421 13.4692 20.2748 12.4925C19.6074 11.5158 18.9071 10.8312 18.7108 10.9662C18.5145 11.0997 18.8977 12.001 19.565 12.9792V12.9777Z" fill="#BEA941"/>
</g>
<g style="mix-blend-mode:multiply" opacity="0.3">
<path d="M16.9773 12.5588C16.9522 13.7427 17.1249 14.7053 17.362 14.71C17.5991 14.7147 17.8126 13.76 17.8378 12.576C17.8629 11.3921 17.6917 10.4295 17.4531 10.4248C17.216 10.4201 17.0024 11.3748 16.9773 12.5588Z" fill="#BEA941"/>
</g>
<path d="M21.3127 11.5666C21.3127 11.7519 21.1793 11.9356 21.0066 11.9356H13.7678C13.5935 11.9356 13.3062 11.7519 13.3062 11.5666V10.3937C13.3062 10.2084 13.5951 10.0498 13.7678 10.0498H21.0066C21.1808 10.0498 21.3127 10.2084 21.3127 10.3937V11.5666Z" fill="#A77A63"/>
<path d="M16.6617 33.7599V31.8568C15.5689 31.838 14.4383 31.4988 13.7788 31.0277L14.231 29.7653C14.9094 30.2175 15.8892 30.5755 16.9444 30.5755C18.2822 30.5755 19.1867 29.803 19.1867 28.7289C19.1867 27.6549 18.4518 27.0519 17.0574 26.4866C15.1355 25.7329 13.9484 24.8662 13.9484 23.2268C13.9484 21.5875 15.0601 20.4758 16.7936 20.1932V18.29H17.9619V20.1178C19.0925 20.1555 19.865 20.457 20.4115 20.7773L19.9404 22.0209C19.5447 21.7948 18.7721 21.3802 17.5662 21.3802C16.1153 21.3802 15.5689 22.247 15.5689 23.0007C15.5689 23.9805 16.2661 24.4705 17.9054 25.1488C19.8462 25.9402 20.826 26.92 20.826 28.597C20.826 30.0856 19.7896 31.48 17.8488 31.8003V33.7599H16.6617Z" fill="#A77A63"/>
</svg>
