<svg width="30" height="20" viewBox="0 0 30 20" fill="none" xmlns="http://www.w3.org/2000/svg">
<mask id="mask0_458_1264" style="mask-type:luminance" maskUnits="userSpaceOnUse" x="-4" y="-1" width="38" height="22">
<path d="M33.7079 -1H-4V21H33.7079V-1Z" fill="white"/>
</mask>
<g mask="url(#mask0_458_1264)">
<path d="M33.7079 -1H-4V21H33.7079V-1Z" fill="white"/>
<path d="M21.2472 6.95506L33.7079 -0.0224719V-1H32.8539L18.6404 6.95506H21.2472Z" fill="#BD0034"/>
<path d="M20.6631 13.4834L33.708 20.7868V19.3261L23.2698 13.4834H20.6631Z" fill="#BD0034"/>
<path d="M-4 0.674541L7.1573 6.95544H9.77528L-4 -0.786133V0.674541Z" fill="#BD0034"/>
<path d="M9.17978 13.4834L-4 20.8654V21.0003H-1.61798L11.7865 13.4834H9.17978Z" fill="#BD0034"/>
<path d="M31.1348 -1H17.9213V6.39326L31.1348 -1Z" fill="#1A237B"/>
<path d="M12.1011 -1H-1.05618L12.1011 6.39326V-1Z" fill="#1A237B"/>
<path d="M33.7079 6.9551V1.91016L24.7528 6.9551H33.7079Z" fill="#1A237B"/>
<path d="M33.708 18.4722V13.4834H24.7529L33.708 18.4722Z" fill="#1A237B"/>
<path d="M-0.303375 21H12.1011V14.0449L-0.303375 21Z" fill="#1A237B"/>
<path d="M17.9213 21H30.3708L17.9213 14.0449V21Z" fill="#1A237B"/>
<path d="M-4 13.4834V18.7081L5.26966 13.4834H-4Z" fill="#1A237B"/>
<path d="M-4 6.95519H5.26966L-4 1.73047V6.95519Z" fill="#1A237B"/>
<path d="M13.2584 -1V8.25843H-4V12.1798H13.2584V21H16.764V12.1798H33.7079V8.25843H16.764V-1H13.2584Z" fill="#BD0034"/>
</g>
</svg>
