<svg width="203" height="4" viewBox="0 0 203 4" fill="none" xmlns="http://www.w3.org/2000/svg">
<path d="M200.759 3.34473C201.587 3.34473 202.259 2.67315 202.259 1.84473C202.259 1.0163 201.587 0.344727 200.759 0.344727V3.34473ZM197.818 0.344727C196.989 0.344727 196.318 1.0163 196.318 1.84473C196.318 2.67315 196.989 3.34473 197.818 3.34473V0.344727ZM191.935 3.34473C192.764 3.34473 193.435 2.67315 193.435 1.84473C193.435 1.0163 192.764 0.344727 191.935 0.344727V3.34473ZM186.053 0.344727C185.224 0.344727 184.553 1.0163 184.553 1.84473C184.553 2.67315 185.224 3.34473 186.053 3.34473V0.344727ZM180.171 3.34473C180.999 3.34473 181.671 2.67315 181.671 1.84473C181.671 1.0163 180.999 0.344727 180.171 0.344727V3.34473ZM174.288 0.344727C173.46 0.344727 172.788 1.0163 172.788 1.84473C172.788 2.67315 173.46 3.34473 174.288 3.34473V0.344727ZM168.406 3.34473C169.234 3.34473 169.906 2.67315 169.906 1.84473C169.906 1.0163 169.234 0.344727 168.406 0.344727V3.34473ZM162.523 0.344727C161.695 0.344727 161.023 1.0163 161.023 1.84473C161.023 2.67315 161.695 3.34473 162.523 3.34473V0.344727ZM156.641 3.34473C157.47 3.34473 158.141 2.67315 158.141 1.84473C158.141 1.0163 157.47 0.344727 156.641 0.344727V3.34473ZM150.759 0.344727C149.93 0.344727 149.259 1.0163 149.259 1.84473C149.259 2.67315 149.93 3.34473 150.759 3.34473V0.344727ZM144.876 3.34473C145.705 3.34473 146.376 2.67315 146.376 1.84473C146.376 1.0163 145.705 0.344727 144.876 0.344727V3.34473ZM138.994 0.344727C138.166 0.344727 137.494 1.0163 137.494 1.84473C137.494 2.67315 138.166 3.34473 138.994 3.34473V0.344727ZM133.112 3.34473C133.94 3.34473 134.612 2.67315 134.612 1.84473C134.612 1.0163 133.94 0.344727 133.112 0.344727V3.34473ZM127.229 0.344727C126.401 0.344727 125.729 1.0163 125.729 1.84473C125.729 2.67315 126.401 3.34473 127.229 3.34473V0.344727ZM121.347 3.34473C122.175 3.34473 122.847 2.67315 122.847 1.84473C122.847 1.0163 122.175 0.344727 121.347 0.344727V3.34473ZM115.465 0.344727C114.636 0.344727 113.965 1.0163 113.965 1.84473C113.965 2.67315 114.636 3.34473 115.465 3.34473V0.344727ZM109.582 3.34473C110.411 3.34473 111.082 2.67315 111.082 1.84473C111.082 1.0163 110.411 0.344727 109.582 0.344727V3.34473ZM103.7 0.344727C102.872 0.344727 102.2 1.0163 102.2 1.84473C102.2 2.67315 102.872 3.34473 103.7 3.34473V0.344727ZM97.8176 3.34473C98.646 3.34473 99.3176 2.67315 99.3176 1.84473C99.3176 1.0163 98.646 0.344727 97.8176 0.344727V3.34473ZM91.9352 0.344727C91.1068 0.344727 90.4352 1.0163 90.4352 1.84473C90.4352 2.67315 91.1068 3.34473 91.9352 3.34473V0.344727ZM86.0529 3.34473C86.8813 3.34473 87.5529 2.67315 87.5529 1.84473C87.5529 1.0163 86.8813 0.344727 86.0529 0.344727V3.34473ZM80.1705 0.344727C79.3421 0.344727 78.6705 1.0163 78.6705 1.84473C78.6705 2.67315 79.3421 3.34473 80.1705 3.34473V0.344727ZM74.2882 3.34473C75.1166 3.34473 75.7882 2.67315 75.7882 1.84473C75.7882 1.0163 75.1166 0.344727 74.2882 0.344727V3.34473ZM68.4058 0.344727C67.5774 0.344727 66.9058 1.0163 66.9058 1.84473C66.9058 2.67315 67.5774 3.34473 68.4058 3.34473V0.344727ZM62.5235 3.34473C63.3519 3.34473 64.0235 2.67315 64.0235 1.84473C64.0235 1.0163 63.3519 0.344727 62.5235 0.344727V3.34473ZM56.6411 0.344727C55.8127 0.344727 55.1411 1.0163 55.1411 1.84473C55.1411 2.67315 55.8127 3.34473 56.6411 3.34473V0.344727ZM50.7588 3.34473C51.5872 3.34473 52.2588 2.67315 52.2588 1.84473C52.2588 1.0163 51.5872 0.344727 50.7588 0.344727V3.34473ZM44.8764 0.344727C44.048 0.344727 43.3764 1.0163 43.3764 1.84473C43.3764 2.67315 44.048 3.34473 44.8764 3.34473V0.344727ZM38.994 3.34473C39.8225 3.34473 40.494 2.67315 40.494 1.84473C40.494 1.0163 39.8225 0.344727 38.994 0.344727V3.34473ZM33.1117 0.344727C32.2833 0.344727 31.6117 1.0163 31.6117 1.84473C31.6117 2.67315 32.2833 3.34473 33.1117 3.34473V0.344727ZM27.2293 3.34473C28.0578 3.34473 28.7293 2.67315 28.7293 1.84473C28.7293 1.0163 28.0578 0.344727 27.2293 0.344727V3.34473ZM21.347 0.344727C20.5186 0.344727 19.847 1.0163 19.847 1.84473C19.847 2.67315 20.5186 3.34473 21.347 3.34473V0.344727ZM15.4646 3.34473C16.2931 3.34473 16.9646 2.67315 16.9646 1.84473C16.9646 1.0163 16.2931 0.344727 15.4646 0.344727V3.34473ZM9.58228 0.344727C8.75386 0.344727 8.08228 1.0163 8.08228 1.84473C8.08228 2.67315 8.75386 3.34473 9.58228 3.34473V0.344727ZM3.69992 3.34473C4.52835 3.34473 5.19992 2.67315 5.19992 1.84473C5.19992 1.0163 4.52835 0.344727 3.69992 0.344727V3.34473ZM200.759 0.344727L197.818 0.344727V3.34473H200.759V0.344727ZM191.935 0.344727L186.053 0.344727V3.34473L191.935 3.34473V0.344727ZM180.171 0.344727L174.288 0.344727V3.34473L180.171 3.34473V0.344727ZM168.406 0.344727L162.523 0.344727V3.34473L168.406 3.34473V0.344727ZM156.641 0.344727L150.759 0.344727V3.34473L156.641 3.34473V0.344727ZM144.876 0.344727L138.994 0.344727V3.34473L144.876 3.34473V0.344727ZM133.112 0.344727L127.229 0.344727V3.34473L133.112 3.34473V0.344727ZM121.347 0.344727L115.465 0.344727V3.34473L121.347 3.34473V0.344727ZM109.582 0.344727L103.7 0.344727V3.34473L109.582 3.34473V0.344727ZM97.8176 0.344727L91.9352 0.344727V3.34473H97.8176V0.344727ZM86.0529 0.344727L80.1705 0.344727V3.34473H86.0529V0.344727ZM74.2882 0.344727L68.4058 0.344727V3.34473L74.2882 3.34473V0.344727ZM62.5235 0.344727L56.6411 0.344727V3.34473L62.5235 3.34473V0.344727ZM50.7588 0.344727L44.8764 0.344727V3.34473L50.7588 3.34473V0.344727ZM38.994 0.344727L33.1117 0.344727V3.34473L38.994 3.34473V0.344727ZM27.2293 0.344727L21.347 0.344727V3.34473L27.2293 3.34473V0.344727ZM15.4646 0.344727L9.58228 0.344727V3.34473L15.4646 3.34473V0.344727ZM3.69992 0.344727L0.758789 0.344727V3.34473L3.69992 3.34473V0.344727Z" fill="#FFDE5D"/>
</svg>
