<svg width="634" height="430" viewBox="0 0 634 430" fill="none" xmlns="http://www.w3.org/2000/svg">
<g filter="url(#filter0_d_542_573)">
<path d="M631.79 202.592C631.638 201.572 630.597 201.334 629.664 201.182C628.97 201.073 628.514 200.629 628.525 199.956C628.558 198.015 627.863 196.312 626.931 194.674C626.811 194.479 626.768 194.197 626.79 193.969C626.996 192.44 626.161 191.247 625.412 190.086C624.393 188.514 623.167 187.115 620.976 187.429C620.705 186.843 620.336 186.29 619.989 185.748C619.534 185.054 619.046 184.403 618.449 183.904C618.471 183.481 618.46 183.047 618.449 182.613C618.417 180.629 619.827 179.327 620.651 177.754C620.889 177.299 621.41 177.19 621.876 177.028C623.427 176.485 625.022 176.626 626.594 176.724C627.245 176.767 627.863 176.746 628.319 176.344C629.566 175.249 630.553 174.034 630.575 172.19C630.618 169.783 628.796 169.577 627.408 170.477C626.258 171.225 625.315 171.128 624.273 170.52C624.642 169.989 624.924 169.403 625.054 168.72C625.109 168.449 625.141 168.167 625.152 167.874C625.195 165.466 623.373 165.26 621.985 166.16C620.813 166.919 619.859 166.811 618.796 166.16C618.59 166.041 618.373 165.943 618.156 165.867C619.555 165.195 620.954 164.533 622.538 164.338C624.024 164.154 625 163.34 625.184 161.778C625.271 161.041 625.412 160.292 625.868 159.728C627.191 158.123 628.069 156.236 629.338 154.598C630.597 152.982 630.423 151.03 630.369 149.229C630.304 146.995 629.208 145.086 627.495 143.546C626.822 142.95 626.269 142.19 625.792 141.42C624.794 139.804 624.859 139.598 626.193 138.329C626.714 137.83 627.169 137.223 627.744 136.8C628.276 136.41 628.276 135.932 628.362 135.379C628.633 133.796 627.484 132.993 626.519 132.288C625.738 131.713 624.035 131.778 622.592 132.18C622.842 131.843 622.863 131.464 622.939 131.03C623.21 129.446 622.061 128.644 621.096 127.939C619.848 127.028 616.28 127.722 615.119 128.861C614.338 129.631 613.568 130.401 612.777 131.16C611.909 131.974 611.041 132.169 610.206 131.561C609.946 131.366 609.686 131.225 609.414 131.106C609.013 129.826 608.059 128.904 606.887 128.644C606.095 128.47 605.293 128.297 604.479 128.188C604.306 127.874 604.165 127.548 604.111 127.256C603.829 125.715 602.777 124.598 601.464 124.305C599.599 123.893 597.647 123.459 595.673 123.969C595.477 124.023 595.271 124.045 595.065 124.067C594.49 123.351 593.72 122.798 593.069 122.147C592.451 121.529 591.703 121.561 591.117 122.147C591.03 122.234 590.944 122.31 590.857 122.386C590.662 122.093 590.488 121.789 590.445 121.475C590.184 119.707 588.742 118.904 587.646 117.809C587.028 117.19 586.28 117.223 585.694 117.809C584.837 118.644 583.753 119.305 583.33 120.531C583.059 121.312 582.462 121.637 581.692 121.778C580.466 121.995 579.404 121.735 578.579 120.78C577.668 119.739 576.649 119.121 575.195 118.893C573.742 118.666 572.191 118.199 571.215 116.887C570.445 115.846 569.382 115.585 568.178 115.585C566.345 115.585 564.512 115.553 562.679 115.585C561.757 115.607 561.02 115.347 560.391 114.674C559.772 114.013 559.122 113.373 558.46 112.744C557.137 111.464 554.968 111.182 553.384 112.104C552.787 112.451 552.495 113.058 552.158 113.655C551.659 114.533 552.115 115.292 552.332 116.095C552.636 117.234 552.223 118.308 551.345 118.785C550.846 119.056 550.087 119.121 549.349 119.023C548.699 118.514 547.972 118.145 547.158 117.928C546.529 117.375 545.889 116.811 545.391 116.16C544.317 114.772 543.026 113.85 541.399 113.514C540.683 112.505 540.141 111.377 539.36 110.412C539.035 110.01 538.97 109.425 538.937 108.85C538.764 106.16 537.809 105.01 535.239 104.262C534.74 104.121 534.371 103.861 534.1 103.416C533.785 102.895 533.525 102.364 533.341 101.767C532.733 99.7501 530.542 98.9367 528.72 99.1427C528.709 99.121 528.688 99.0993 528.677 99.0776C528.362 98.557 528.102 98.0256 527.918 97.4291C527.039 94.4898 522.766 94.0993 521.193 95.7262C519.404 97.5809 517.701 99.6525 514.935 100.195C514.783 100.227 514.675 100.444 514.534 100.564C513.883 101.16 513.286 101.073 512.581 100.564C511.41 99.7176 510.423 99.7392 509.273 100.553C508.666 100.976 508.069 101.366 507.321 101.475C506.768 101.551 506.377 101.898 505.965 102.31C504.946 103.329 503.948 104.446 502.538 104.956C500.998 105.509 499.816 106.431 499.035 107.885C498.655 108.59 498.08 108.568 497.505 108.167C497.148 107.917 496.974 107.538 496.811 107.125C495.814 104.631 493.84 103.839 491.432 104.956C491.15 105.086 490.857 105.162 490.564 105.249C489.49 104.002 488.069 103.199 486.388 102.885C485.065 99.9887 482.592 98.3835 479.338 98.3835C477.755 98.3835 476.161 98.3835 474.577 98.3835C474.035 98.3835 473.547 98.3943 473.037 98.774C471.573 99.8477 470.011 100.78 468.861 102.245C468.677 102.483 468.438 102.679 468.189 102.874C467.766 102.494 467.299 102.158 466.779 101.854C466.171 101.507 465.542 100.976 465.206 100.368C464.219 98.557 464.187 96.5505 464.349 94.5549C464.371 94.2512 464.751 93.9475 465 93.698C466.464 92.2664 466.258 90.4659 465.553 88.9583C464.631 87.0061 463.276 85.2382 461.996 83.4811C461.551 82.8629 461.193 82.2772 461.161 81.5288C461.106 80.2924 460.705 79.1536 460.065 78.1123C459.62 77.3857 459.686 76.8651 460.163 76.1384C461.291 74.4247 460.597 73.0473 458.623 72.8629C458.2 72.8195 457.766 72.8846 457.343 72.8304C456.161 72.6894 455.304 72.3857 454.707 71.8651C454.718 71.8434 454.729 71.8217 454.74 71.8C455.803 70.1948 455.239 68.8933 453.525 68.5787C453.254 66.6481 451.757 64.9019 449.859 64.4898C449.273 64.3596 448.688 64.3054 448.113 64.3054C447.863 62.3531 446.367 60.5744 444.436 60.1514C442.527 59.7392 440.683 59.967 439.035 61.0516C436.963 62.4074 434.696 61.8651 432.473 61.8651C432.148 61.8651 431.931 61.5939 431.746 61.3445C430.575 59.7609 428.742 59.6416 427.05 59.3271C426.421 59.2078 425.803 59.0451 425.184 58.8933C425.076 58.7848 424.957 58.6872 424.827 58.5787C424.371 58.1991 424.056 57.6568 423.558 57.2881C422.874 56.7783 422.603 56.0733 422.679 55.2056C422.733 54.544 422.766 53.8824 422.918 53.2208C423.362 51.3553 422.831 49.5766 421.952 48.0039C421.356 46.9301 420.792 45.7696 419.783 44.9128C419.132 44.3596 419.284 43.7197 420.022 43.2642C421.258 42.5158 422.451 41.7024 424.013 41.7132C424.729 41.7132 425.456 41.5071 426.171 41.3336C427.061 41.1167 427.636 40.531 427.82 39.6199C427.994 38.7848 428.124 37.9497 428.254 37.1037C428.395 36.2251 428.286 35.3032 427.701 34.6742C426.714 33.6221 425.846 32.4291 424.555 31.659C423.59 31.0841 422.69 30.4009 421.757 29.7609C420.965 28.8716 420.184 27.9497 419.132 27.3206C418.872 27.1687 418.623 26.9952 418.373 26.8325C417.571 25.5961 417.082 24.1427 416.508 22.7761C415.976 21.4963 415.944 20.1839 417.017 19.0234C417.505 18.492 417.581 17.6568 417.104 17.1687C416.063 16.1058 415.26 14.7501 413.655 14.3163C412.994 14.1427 412.44 13.8282 411.963 13.4269C411.92 13.1991 411.844 12.993 411.681 12.8304C411.399 12.5375 411.128 12.223 410.857 11.9193C410.781 11.7566 410.694 11.6048 410.64 11.4204C409.967 9.26202 408.547 7.63512 407.007 6.06246C406.605 5.66115 406.117 5.43339 405.542 5.44423C405.206 5.44423 404.87 5.45508 404.534 5.46593C403.774 4.06679 402.712 2.87374 401.584 1.72406C401.182 1.32276 400.694 1.09499 400.119 1.10584C399.273 1.12753 398.438 1.09499 397.581 1.32276C396.247 1.66983 395.25 2.58089 394.046 3.13404C392.473 3.84987 392.473 3.95833 391.334 2.73274C390.488 1.82167 389.545 1.38784 388.276 1.45291C386.573 1.53968 384.848 1.58306 383.145 1.45291C381.291 1.30107 379.772 1.68068 378.427 3.09065C376.833 4.78263 374.61 5.66115 372.777 7.06029C372.05 7.61343 371.302 7.81951 370.434 7.92797C367.267 8.30757 364.404 7.38567 361.768 5.79131C359.924 4.68502 357.928 4.70671 355.965 4.68502C353.991 4.66332 353.699 5.10801 353.558 7.11452C353.449 8.52449 353.308 9.91278 352.473 11.1167C352.256 11.4312 352.18 11.7783 352.18 12.1579C352.18 13.2642 351.605 14.262 351.638 15.39C351.659 15.9757 351.323 16.6698 350.694 16.8542C349.197 17.2881 348.265 18.5462 346.92 19.2512C345.434 20.0321 344.046 20.1189 342.538 19.8586C341.876 19.7501 341.291 19.4464 341.074 18.6655C340.846 17.852 340.25 17.2664 339.425 17.1254C337.69 16.8325 335.998 16.4312 334.187 16.5071C332.332 16.5831 330.391 16.8217 328.601 16.0299C326.041 14.9019 323.612 14.9345 321.302 16.6156C320.662 17.082 320.043 17.57 319.436 18.0798C319.002 18.4377 318.558 18.8282 317.972 18.6872C316.171 18.2425 314.187 18.5462 312.538 17.4182C311.779 16.8976 311.074 16.9844 310.369 17.5592C309.946 17.9063 309.501 18.2533 309.013 18.4811C307.755 19.0559 307.169 20.0863 307.169 21.3661C307.169 22.5484 306.616 23.2425 305.835 24.0017C304.935 24.8802 303.764 25.5744 303.265 26.8C302.863 27.7978 302.104 28.4594 301.432 29.2403C299.968 30.9106 298.276 32.4833 298.547 35.0429C298.59 35.4876 298.319 35.9757 298.178 36.4421C297.744 37.852 296.985 39.1102 296.095 40.249C294.631 42.1362 294.566 44.3922 294.707 46.4855C294.881 49.1644 295.456 51.8108 296.508 54.403C297.43 56.6807 297.072 57.9605 295.683 59.1753C295.607 59.0885 295.553 59.0126 295.466 58.9258C294.1 57.646 292.701 56.3661 291.475 54.9562C290.933 54.3271 290.358 54.0017 289.631 53.9583C289.545 53.9583 289.447 53.9583 289.36 53.9475C288.221 52.8737 287.082 51.8 286.052 50.6178C285.51 49.9887 284.935 49.6633 284.208 49.6199C281.356 49.4681 278.503 49.2946 275.64 49.7393C274.642 49.9019 274.046 50.5852 273.243 50.9757C271.779 51.7024 271.388 51.7241 270.401 50.531C269.848 49.8586 269.176 49.3488 268.558 48.774C267.679 47.9497 266.443 48.0039 265.477 48.839C264.241 49.9236 262.918 50.8889 261.584 51.8542C261.095 52.2121 260.553 52.4833 260.011 52.7653C259.881 51.3553 259.523 50.0104 258.536 48.7306C257.994 48.0256 257.646 47.0928 256.941 46.4204C256.02 45.5527 254.859 45.1839 253.72 45.3358C253.547 45.0212 253.362 44.7067 253.124 44.3922C252.581 43.6872 252.234 42.7544 251.529 42.082C250.043 40.6828 247.939 40.5852 246.269 41.8434C244.816 42.9497 243.286 43.9258 241.497 44.403C239.599 44.9019 238.33 46.0408 237.809 47.9714C237.777 48.0907 237.722 48.1883 237.668 48.3076C236.573 47.7002 235.445 47.3314 234.241 47.3531C234.241 47.2447 234.241 47.1471 234.219 47.0386C234.143 46.2143 234.241 45.2707 233.438 44.7067C231.67 43.4594 229.816 42.7002 227.744 43.134C227.614 43.0039 227.484 42.8846 227.354 42.7544C226.866 42.3097 226.443 42.1687 225.922 42.6026C225.521 42.9388 225.054 43.21 224.599 43.492C223.948 43.1666 223.492 42.5158 223.558 41.6698C223.666 40.1514 222.907 39.3054 221.941 38.416C221.453 37.9714 221.03 37.8304 220.51 38.2642C219.284 39.2837 217.516 39.7284 217.039 41.5614C216.985 41.7674 216.746 41.941 216.562 42.0928C214.978 43.3184 212.896 43.1774 211.508 41.7458C209.902 40.108 208.959 39.9453 206.963 40.9865C206.746 41.095 206.497 41.1818 206.334 41.3445C205.748 41.9193 205.217 41.8759 204.566 41.4204C204.067 41.0733 203.46 40.8564 203.102 40.3466C202.679 39.7392 202.082 39.5332 201.399 39.4573C200.618 39.3705 199.827 39.262 199.046 39.1427C197.787 38.9475 196.649 39.1102 195.586 39.9019C194.989 40.3358 194.317 40.5635 193.623 40.6612C193.438 40.3683 193.319 40.0321 193.21 39.6525C193.08 39.1753 193.08 38.6872 193.015 38.21C192.853 36.9301 192.43 36.518 191.117 36.4638C190.163 36.4312 189.208 36.4312 188.254 36.4312C188.037 36.1058 187.896 35.7371 187.787 35.3032C187.657 34.826 187.657 34.3379 187.592 33.8607C187.43 32.5809 187.007 32.1687 185.694 32.1145C184.165 32.0603 182.646 32.0711 181.117 32.1145C180.184 32.1362 179.263 32.0278 178.438 31.6481C176.02 30.5418 173.579 29.4464 171.258 28.1557C170.412 27.6894 169.642 27.4399 168.709 27.4941C168.221 27.5267 167.733 27.4724 167.245 27.4941C165.954 27.57 164.837 27.2338 163.981 26.2251C163.341 25.4659 162.473 25.2165 161.54 25.1622C160.814 25.1189 160.087 25.2056 159.349 25.249C157.473 25.3792 155.64 25.108 154.382 23.5353C153.265 22.1471 151.898 21.6698 150.195 21.8325C149.534 21.8976 148.85 21.8434 148.178 21.8325C147.495 21.8325 146.811 21.6807 146.269 21.2794C144.816 20.2056 143.167 19.9995 141.432 19.9995C138.503 19.9995 135.575 19.9995 132.636 19.9995C130.532 19.9995 128.677 19.2186 127.137 17.928C126.345 17.2664 125.629 17.0277 124.686 17.0603C123.894 17.082 123.102 17.0928 122.299 17.0603C121.367 17.0277 120.542 17.1579 119.74 17.7544C118.742 18.492 117.516 18.698 116.258 18.6872C113.937 18.6763 111.616 18.6872 109.295 18.6872C107.95 18.6872 106.584 18.8065 105.282 18.5787C102.961 18.1774 100.651 18.3076 98.3406 18.3727C97.2343 18.4052 95.922 18.4052 95.0977 19.3596C94.23 20.3683 93.2321 21.4312 92.8417 22.646C92.2126 24.6091 91.0304 26.0408 89.6204 27.3965C89.0564 27.9388 88.6443 28.7089 87.8742 28.9475C86.3883 29.4139 85.2387 30.4334 83.948 31.2143C82.7658 31.9301 82.8851 31.8759 81.6269 31.1492C80.2929 30.3792 79.1432 29.1427 77.4295 29.1536C75.846 29.1536 74.2517 29.1753 72.6682 29.1536C71.4317 29.1427 70.6508 29.7176 70.0326 30.7696C69.4469 31.7783 69.0998 32.8846 68.6985 33.9366C68.3189 34.9345 68.2321 36.1818 68.9371 37.2664C70.4881 39.6742 70.7701 42.082 68.9154 44.5223C68.2105 45.4551 68.3406 46.8217 69.1866 47.6568C69.8374 48.3076 70.2278 48.98 70.1193 49.9128C69.8374 52.1904 71.1606 53.6004 72.8959 54.6091C74.2734 55.4117 74.7723 56.4746 74.9133 57.993C75.1085 60.1406 75.0543 62.3857 76.5185 64.2295C76.7354 64.5006 76.9089 64.8911 76.9198 65.2382C76.9523 66.3878 77.4621 67.3314 78.0911 68.2534C78.5358 68.9041 78.8829 69.6091 79.3059 70.2816C79.5771 70.7154 79.5445 71.0625 79.1866 71.4204C78.7961 71.8 78.4491 72.2338 77.8851 72.3748C77.5163 72.4616 77.2126 72.6677 77.0825 73.0473C76.7029 74.2403 76.4209 75.6829 77.2452 76.5505C78.8395 78.1991 78.7744 80.4334 79.7506 82.2772C80.4013 83.5028 80.0651 85.0104 80.5857 86.3228C80.846 86.9735 80.3471 87.4941 79.794 87.8195C78.2972 88.6872 77.0825 89.7609 76.6703 91.5397C76.6053 91.8325 76.4209 92.0928 76.269 92.364C75.9328 92.9822 75.2387 93.1883 74.7289 93.6221C74.2517 94.0343 73.8504 93.4052 73.4057 93.3293C72.0933 93.1124 70.7701 92.852 69.6204 93.915C69.2842 94.2295 68.7636 94.4247 68.2972 94.4898C67.3753 94.6199 66.7571 95.108 66.2039 95.8022C64.7072 97.6785 63.0044 99.2403 60.846 100.455C59.0673 101.464 57.2235 102.613 55.922 104.349C55.6508 104.707 55.282 105.119 54.7614 105.195C53.9046 105.325 53.4165 105.943 52.8525 106.507C45.8243 113.546 38.7853 120.564 31.7679 127.603C30.5098 128.861 28.8504 129.826 28.4599 131.789C28.4274 131.941 28.2213 132.06 28.0803 132.169C26.9849 133.015 26.4426 134.251 25.705 135.357C25.1953 136.117 25.1302 136.789 25.6942 137.516C26.1063 138.047 26.5293 138.633 26.4859 139.327C26.3775 141.052 26.8439 142.711 26.8872 144.414C26.9089 145.108 26.9523 145.748 27.4729 146.269C28.1237 146.919 27.8092 147.538 27.4838 148.253C26.692 149.978 26.4642 151.93 25.3254 153.514C25.2387 153.633 25.282 153.872 25.3037 154.056C25.5532 155.856 26.3232 157.331 27.9935 158.199C29.1107 158.785 29.577 159.522 29.4035 160.488C29.3059 160.997 29.0998 161.193 28.525 161.041C26.8547 160.585 25.0651 160.401 23.9805 158.774C23.8504 158.59 23.6009 158.47 23.3948 158.351C21.8113 157.451 20.8569 157.613 19.4903 158.872C18.2864 159.978 17.679 161.54 16.3775 162.592C15.4013 163.384 14.6747 164.436 14.4144 165.77C14.2734 166.475 13.7636 167.039 13.2647 167.592C12.9176 167.971 12.5597 168.351 12.2452 168.741C12.1584 168.85 12.0825 168.958 12.0065 169.067C11.9957 169.089 11.974 169.11 11.9632 169.132C11.8547 169.284 11.7571 169.446 11.6703 169.609C11.6269 169.696 11.5836 169.783 11.5402 169.869C11.5076 169.934 11.4859 170 11.4642 170.065C11.41 170.216 11.3558 170.368 11.3232 170.531C11.3232 170.564 11.3232 170.596 11.3124 170.629C11.2907 170.78 11.2799 170.932 11.269 171.084C11.269 171.138 11.269 171.193 11.269 171.247C11.269 171.442 11.3016 171.637 11.3449 171.854C11.3992 172.115 11.1822 172.429 11.0955 172.722C10.9979 173.047 10.8894 173.362 10.7809 173.676C9.93496 175.987 8.56837 177.961 6.62693 179.566C5.93279 180.141 5.5098 181.052 4.5662 181.312C2.99353 181.767 2.35362 182.906 2.22346 184.414C2.18008 184.978 2.115 185.585 1.73539 185.954C1.07379 186.605 1.11717 187.364 1.11717 188.167C1.11717 189.208 1.1714 190.249 1.10633 191.279C1.04125 192.299 1.36663 192.906 2.44038 193.058C3.27552 193.167 4.1432 193.546 4.24082 194.381C4.43605 196.008 5.61826 196.898 6.51848 198.004C7.03908 198.644 7.41869 199.262 7.48377 200.108C7.68984 202.841 7.71153 202.82 10.3471 203.698C11.1172 203.958 11.9849 204.013 12.4187 204.978C13.1237 206.572 14.0673 208.08 14.7506 209.685C15.6183 211.735 16.3992 212.266 18.5901 212.147C18.807 212.136 19.0239 212.125 19.2517 212.115C19.577 212.744 19.9024 213.373 20.1736 214.023C20.9111 215.748 21.5836 216.399 23.0911 216.485C23.0695 217.266 23.0478 218.058 23.0261 218.839C22.9827 220.238 23.6985 220.867 25.0543 220.629C25.5315 220.542 25.9545 220.412 26.3124 220C27.0065 219.186 27.7441 218.459 28.6009 217.982C28.6009 218.08 28.6226 218.156 28.6226 218.253C28.5141 219.891 28.5033 221.54 28.4491 223.188C28.4057 224.587 29.1215 225.216 30.4773 224.978C30.9545 224.891 31.3775 224.761 31.7354 224.349C33.1237 222.744 34.6638 221.442 37.0282 221.789C37.9393 221.919 38.6443 221.388 39.2191 220.683C39.6855 220.119 40.1736 219.577 40.6942 219.067C40.8894 218.872 41.0846 218.731 41.2907 218.666C41.974 219.24 42.6898 219.707 43.4924 220.01C44.295 220.748 45.1085 221.485 45.8894 222.256C47.4512 223.796 49.1541 224.88 51.4859 224.761C53.0044 224.685 54.6855 224.295 56.0196 224.924C57.9285 225.813 60.0109 226.312 61.8222 227.331C63.7094 228.384 65.5966 228.861 67.7007 228.6C68.3406 228.525 69.0022 228.666 69.4577 228.98C70.7267 229.837 72.2885 230.086 73.4708 231.052C74.1541 231.605 74.859 231.735 75.6725 231.713C76.7679 231.681 77.8742 231.692 78.9697 231.713C79.5879 231.713 80.2603 231.735 80.7484 231.41C82.3862 230.314 84.2083 230.444 86.0304 230.39C86.1389 230.39 86.2365 230.39 86.3341 230.39C86.4968 230.77 86.6595 231.138 86.8439 231.507C87.2235 232.299 87.7658 233.047 88.6118 233.275C90.8677 233.904 91.9523 235.629 92.6573 237.581C93.1562 238.991 94.1107 239.696 95.4013 239.924C95.9979 240.032 96.5944 240.054 97.1909 240.043C97.5489 240.618 97.8417 241.258 98.0803 241.93C98.5792 243.34 99.5337 244.045 100.824 244.273C102.787 244.62 104.783 244.23 106.562 243.514C108.883 242.592 110.716 240.9 112.05 238.687C113.417 236.42 115.315 235.065 118.167 235.13C122.679 235.238 127.202 235.151 131.725 235.162C132.657 235.162 133.503 235.141 134.252 234.425C134.794 233.915 135.586 233.882 136.334 233.893C137.614 233.915 138.894 233.872 140.184 233.904C142.137 233.958 144.078 233.828 146.009 233.525C146.735 233.405 147.31 233.123 147.928 232.657C149.36 231.594 150.033 230 150.987 228.622C151.822 227.407 152.896 226.301 152.907 224.598C152.907 223.872 153.644 223.123 154.523 223.102C155.434 223.091 156.171 222.83 156.866 222.266C157.245 221.963 157.744 221.778 158.243 221.822C159.859 221.974 161.367 221.442 162.928 221.236C163.894 221.117 164.545 220.661 164.87 219.815C165.282 218.752 166.041 218.351 167.115 218.275C168.568 218.167 169.577 217.462 170.195 216.095C170.629 215.119 171.226 214.902 172.072 215.455C173.666 216.485 175.174 216.366 176.638 215.303C178.102 214.229 179.458 214.37 180.792 215.488C181.171 215.802 181.551 216.062 182.082 216.084C183.785 216.138 185.499 216.344 186.692 214.685C186.898 214.403 187.245 214.208 187.538 213.991C188.449 213.275 189.566 213.058 190.39 213.741C192.625 215.585 194.827 214.815 197.039 213.85C197.766 213.535 198.514 213.308 199.295 213.156C199.957 213.036 200.586 212.982 201.182 213.036C201.28 213.188 201.388 213.329 201.486 213.492C202.137 214.555 202.961 215.173 204.187 215.412C204.588 215.488 204.935 215.553 205.25 215.618C205.857 216.312 206.432 217.039 206.909 217.83C207.343 218.546 207.863 219.034 208.525 219.37C208.85 220.423 208.981 220.498 209.968 219.826C212.918 220.39 212.961 220.542 213.926 223.687C214.263 224.772 214.382 224.848 215.38 224.175C215.542 224.067 215.694 223.98 215.857 223.904C215.586 224.295 215.499 224.728 215.716 225.195C215.976 225.759 216.508 225.672 216.996 225.672C217.722 225.672 218.503 225.564 218.894 226.41C219.371 227.462 220.325 228.058 221.041 228.872C221.02 229.089 221.041 229.305 221.139 229.533C221.399 230.097 221.931 230.01 222.419 230.01C223.145 230.01 223.926 229.902 224.317 230.748C224.816 231.833 225.835 232.44 226.562 233.297C227.354 233.015 227.712 232.31 228.297 231.876C228.655 231.605 228.872 231.258 229.013 230.835C229.208 230.238 229.664 230.086 230.26 229.967C231.323 229.761 232.354 229.772 233.362 229.913C233.406 230.021 233.449 230.119 233.503 230.227C234.957 233.156 237.636 234.945 239.783 237.234C240.152 237.624 240.618 237.7 241.074 237.559C242.386 238.958 243.894 240.173 245.206 241.572C245.575 241.963 246.03 242.039 246.486 241.898C246.388 242.852 246.518 243.774 246.681 244.718C246.833 245.574 246.855 246.431 246.128 247.104C244.946 248.21 244.859 249.501 245.499 250.911C245.64 251.214 245.683 251.529 245.499 251.778C244.837 252.635 244.837 253.861 243.937 254.598C243.677 254.815 243.417 255.206 243.406 255.52C243.33 258.036 242.874 260.618 244.707 262.83C245.152 263.362 245.542 263.633 246.215 263.611C246.876 263.59 247.614 263.514 248.145 263.991C248.406 264.219 248.677 264.446 248.937 264.685C249.132 265.553 249.479 266.388 250.141 267.18C250.51 267.624 250.846 267.874 251.334 267.939C251.377 268.091 251.421 268.253 251.453 268.416C251.67 269.75 252.299 270.748 253.362 271.583C254.263 272.299 254.675 272.407 255.716 271.757C255.944 271.616 256.182 271.475 256.41 271.344C256.638 271.767 256.8 272.234 256.887 272.754C257.072 273.893 257.581 274.783 258.384 275.542C258.384 275.618 258.384 275.683 258.384 275.759C258.417 276.594 258.145 277.277 257.646 277.95C256.237 279.826 256.659 281.594 258.764 282.722C260 283.394 260.412 284.457 259.881 285.759C259.751 286.095 259.545 286.41 259.317 286.692C258.666 287.494 258.688 288.21 259.458 288.937C260.466 289.88 261.269 291.041 262.679 291.496C263.059 291.616 263.406 291.963 263.655 292.288C264.056 292.83 264.577 293.21 265.141 293.525C266.03 294.414 266.811 295.423 268.102 295.835C268.482 295.954 268.829 296.301 269.078 296.626C269.577 297.288 270.228 297.722 270.933 298.069C271.247 298.221 271.551 298.373 271.855 298.525C271.876 298.59 271.898 298.644 271.909 298.709C272.701 301.572 272.223 304.522 272.223 307.44C272.223 308.004 271.887 308.59 271.497 309.089C270.217 310.77 270.26 311.919 271.714 313.405C272.939 314.652 274.122 315.987 275.944 316.42C276.052 316.442 276.15 316.485 276.247 316.529C276.334 316.702 276.443 316.887 276.573 317.071C276.573 317.104 276.573 317.125 276.573 317.158C276.508 317.494 276.182 317.624 275.889 317.689C275.532 317.765 275.163 317.776 274.805 317.83C273.579 318.047 272.364 317.505 271.182 317.668C269.892 317.841 269.208 317.256 268.709 316.279C267.896 314.696 266.54 314.24 264.913 314.381C264.002 314.457 263.135 314.761 262.505 315.52C261.703 316.475 260.814 316.475 259.751 315.9C258.764 315.358 257.907 314.696 257.267 313.785C256.074 312.071 254.881 312.136 253.427 313.308C252.668 313.915 252.017 313.958 251.334 313.275C250.77 312.711 250.174 312.82 249.49 313.08C248.21 313.557 248.08 313.503 247.831 312.136C247.603 310.889 246.703 310.119 245.944 309.316C245.206 308.535 243.731 308.698 242.56 309.587C241.529 310.368 240.499 311.03 239.154 311.084C238.677 311.106 238.243 311.334 237.885 311.724C237.158 312.538 236.421 313.373 235.564 314.045C234.805 314.631 234.61 315.412 234.414 316.225C234.122 317.472 234.479 318.644 234.924 319.783C235.054 320.108 235.423 320.423 235.184 320.78C234.349 322.017 234.794 323.394 234.686 324.707C234.653 325.13 234.653 325.585 235.022 325.889C235.759 326.507 236.215 327.397 237.169 327.83C238.015 328.21 238.08 328.698 237.495 329.392C236.952 330.032 236.345 330.639 235.705 331.193C234.317 332.386 234.414 333.872 234.989 335.325C235.271 336.03 235.174 336.388 234.783 336.941C234.165 337.809 233.406 338.308 232.354 338.34C231.312 338.373 230.315 338.611 229.295 338.839C228.547 339.013 227.983 339.501 227.831 340.065C227.56 341.095 227.191 342.147 227.462 343.286C227.874 345.054 227.592 345.629 226.052 346.594C225.488 346.952 224.686 347.18 224.458 347.765C223.84 349.327 222.31 349.848 221.15 350.672C220.282 351.279 219.382 351.822 218.612 352.592C217.115 354.099 216.855 355.629 217.961 357.44C218.796 358.796 218.612 360.108 218.069 361.464C217.95 361.767 217.668 362.039 217.364 361.843C215.673 360.77 213.796 361.334 212.007 361.236C210.423 361.149 209.046 361.778 207.798 362.722C206.529 363.676 206.204 366.366 207.332 367.44C208.178 368.243 208.785 369.045 208.688 370.271C208.666 370.477 208.829 370.737 208.97 370.911C210.098 372.277 210.651 374.219 212.733 374.653C213.037 374.718 213.341 375.076 213.536 375.368C213.905 375.911 214.404 376.03 215 376.084C215.792 377.299 216.475 378.633 218.156 378.98C218.46 379.045 218.764 379.403 218.959 379.696C219.349 380.271 219.892 380.368 220.532 380.433C221.616 380.542 222.787 380.542 223.655 381.301C224.545 382.071 225.564 382.581 226.584 383.123C228.492 384.154 230.521 384.566 232.69 384.24C233.774 384.078 234.252 383.481 234.458 382.462C235.076 379.468 235.13 379.11 237.82 381.258C239.349 382.472 240.336 382.266 241.041 380.379C241.345 379.566 241.833 379.002 242.625 378.763C243.167 378.59 243.601 378.297 244.067 378.015C245 377.451 245.933 376.833 247.115 376.908C247.495 376.93 247.766 376.757 248.059 376.485C249.913 374.772 252.061 373.839 254.642 373.98C255.803 374.045 256.963 374.013 258.124 373.98C258.644 373.969 259.122 374.078 259.577 374.24C260.239 375.759 261.02 377.288 260.217 379.045C260.119 379.262 260.098 379.522 260.065 379.761C259.935 381.041 260.683 381.735 261.92 381.453C263.395 381.117 264.349 380.108 264.957 378.807C264.978 378.752 265 378.698 265.022 378.633C265.673 380.13 266.432 381.637 265.64 383.384C265.542 383.6 265.521 383.861 265.488 384.099C265.358 385.379 266.106 386.073 267.343 385.791C268.818 385.455 269.772 384.446 270.38 383.145C270.835 382.158 271.041 381.063 271.475 380.065C272.722 377.18 272.614 374.446 270.824 371.811C270.423 371.214 269.978 370.922 269.197 370.878C267.202 370.77 267.072 370.596 266.855 368.644C266.811 368.286 266.79 367.895 266.876 367.548C267.082 366.724 266.974 366.008 266.399 365.347C265.824 364.674 265.879 363.882 266.139 363.102C266.269 362.722 266.605 362.397 266.963 362.657C267.961 363.351 269.165 363.275 270.239 363.741C272.755 364.837 275.434 363.177 275.586 360.488C275.629 359.631 275.835 358.915 276.518 358.416C277.245 357.874 277.581 357.169 277.777 356.279C277.983 355.347 278.503 354.609 279.631 354.566C280.119 354.544 280.618 354.436 280.987 354.078C281.768 353.318 282.408 353.514 283.2 354.164C284.284 355.043 285.206 354.88 286.215 353.882C288.97 351.149 291.681 348.351 294.523 345.715C296.377 343.991 297.072 341.974 296.866 339.533C296.844 339.295 296.833 339.045 296.8 338.807C296.692 337.971 296.963 337.505 297.907 337.646C299.295 337.852 300.391 337.245 301.323 336.29C302.299 335.303 303.33 334.381 303.644 332.906C303.774 332.277 304.122 331.648 304.653 331.193C305.184 330.726 305.434 330.097 305.618 329.457C306.269 327.19 307.516 325.325 309.328 323.828C309.469 323.709 309.577 323.557 309.718 323.449C310.087 323.167 310.271 322.787 310.271 322.342C310.293 320.9 310.629 319.49 310.434 318.004C310.011 314.837 310.239 314.653 313.406 314.642C314.371 314.642 315.271 314.685 316.106 313.904C316.855 313.21 317.907 312.895 319.002 313.015C319.761 313.102 320.391 312.863 321.009 312.364C322.386 311.258 323.829 311.095 325.293 312.31C326.605 313.394 328.21 312.895 329.696 313.026C330.651 313.112 331.085 312.386 331.649 311.865C332.148 311.399 332.625 311.193 333.21 311.811C333.829 312.462 334.696 312.364 335.466 312.256C336.844 312.071 338.232 311.898 339.555 311.496C339.729 311.442 339.892 311.431 340.054 311.399C339.913 311.93 339.816 312.483 339.805 313.047C339.729 315.162 339.946 315.401 342.093 315.661C342.516 315.715 342.972 315.694 343.351 315.846C343.991 316.095 344.686 316.203 345.325 316.485C345.282 316.789 345.239 317.093 345.228 317.397C345.174 318.872 345.282 319.436 346.074 319.728C345.879 319.794 345.673 319.826 345.456 319.815C344.143 319.728 342.95 320.021 341.79 320.607C341.247 320.878 340.629 321.008 340.011 320.976C339.154 320.932 338.46 321.128 338.145 322.071C337.82 323.036 338.254 323.666 338.85 324.338C339.881 325.499 341.041 326.182 342.668 325.943C343.059 325.889 343.449 325.867 343.85 325.867C343.742 326.008 343.644 326.193 343.568 326.41C343.243 327.375 343.677 328.004 344.273 328.676C345.304 329.837 346.464 330.52 348.091 330.282C348.926 330.162 349.805 330.195 350.651 330.282C352.43 330.455 354.197 330.867 355.488 332.125C356.616 333.243 357.798 333.926 359.382 334.143C359.577 334.175 359.772 334.208 359.968 334.251C360.391 334.436 360.846 334.587 361.312 334.696C361.855 334.967 362.321 335.368 362.614 335.954C363.644 338.036 365.456 338.839 367.527 339.197C370.184 339.652 372.885 339.522 375.553 339.316C377.213 339.186 378.97 339.175 380.401 338.015C380.846 337.657 381.453 337.754 381.996 337.754C383.894 337.754 385.781 337.754 387.679 337.754C389.035 337.754 390.477 337.668 391.54 336.876C392.625 336.073 393.709 335.889 394.946 335.921C395.618 335.932 396.28 335.965 396.931 335.726C397.516 335.509 398.059 335.509 398.558 335.705C398.753 335.867 398.97 335.997 399.197 336.106C399.273 336.171 399.349 336.214 399.425 336.29C399.837 336.724 400.304 337.18 400.965 337.19C401.876 337.212 402.289 337.679 402.733 338.459C403.286 339.436 404.089 340.509 405.271 340.618C405.9 340.683 406.573 340.78 407.213 340.759C407.299 341.757 407.625 342.581 408.85 342.961C408.601 343.351 408.46 343.438 408.254 343.427C405.814 343.34 403.438 343.492 401.367 345.043C400.944 345.358 400.39 345.531 399.87 345.672C399.436 345.791 399.122 345.997 398.796 346.301C396.855 348.123 394.447 348.958 391.876 349.11C389.631 349.24 387.983 350.292 386.453 351.713C384.718 353.329 383.135 355.097 381.009 356.269C379.425 357.147 378.004 358.308 376.725 359.609C376.258 360.086 375.879 360.791 375.315 361.008C373.135 361.865 371.302 363.264 369.436 364.62C367.614 365.943 366.128 367.386 365.672 369.891C365.087 373.058 368.08 376.182 371.226 376.377C371.963 378.861 374.61 380.867 377.223 380.715C378.026 380.672 378.948 380.618 379.631 379.978C380.727 378.948 382.039 378.633 383.503 378.741C384.295 378.796 385.087 378.785 385.879 378.741C387.495 378.666 388.818 379.327 390.043 380.141C390.152 380.314 390.228 380.52 390.325 380.705C391.247 382.342 392.646 383.21 394.1 383.492C394.414 383.752 394.751 383.991 395.141 384.175C395.488 384.338 395.564 384.728 395.748 385.054C397.646 388.427 401.605 388.579 403.861 386.854C404.523 386.344 405.152 386.301 405.759 386.453C406.735 388.015 407.343 389.718 407.516 391.605C407.592 392.451 407.484 393.297 408.254 393.937C408.655 394.273 408.72 394.804 408.547 395.292C408.124 396.485 407.712 397.733 406.866 398.655C406.085 399.522 405.651 400.444 405.51 401.551C405.25 403.492 405.174 405.423 405.542 407.364C405.781 408.644 405.39 409.316 404.132 409.642C403.84 409.718 403.525 409.696 403.232 409.793C400.738 410.585 399.707 412.071 400.38 414.175C400.683 415.141 401.085 415.922 401.768 416.67C402.614 417.592 403.72 418.102 404.718 418.785C405.184 419.099 405.64 419.295 406.096 419.305C406.367 419.924 406.703 420.488 407.191 421.019C408.037 421.941 409.143 422.451 410.141 423.134C410.933 423.676 411.725 423.861 412.516 423.362C412.668 423.264 412.798 423.21 412.928 423.177C413.46 423.557 414.002 423.872 414.588 424.132C415.369 424.924 416.128 425.726 416.974 426.442C418.753 427.928 420.564 429.251 423.156 428.991C424.772 428.839 426.432 428.817 428.08 428.861C428.937 428.893 429.816 428.676 430.705 428.329C432.191 427.744 433.547 426.984 434.881 426.149C436.616 425.065 438.113 423.796 438.948 421.898C439.1 421.551 439.414 421.344 439.61 421.052C440.499 419.761 441.909 419.316 443.243 418.763C444.414 418.264 445.087 417.494 445.076 416.138C445.054 414.468 445.824 413.102 446.974 411.941C447.918 410.987 448.981 410.151 449.827 409.132C450.889 407.841 452.213 407.082 453.807 406.767C454.686 406.594 455.325 406.225 455.944 405.542C457.343 404.013 458.991 402.971 461.237 403.297C462.408 403.47 463.633 403.286 464.631 402.765C465.499 402.31 466.03 402.462 466.746 402.885C467.234 403.177 467.614 403.546 468.026 403.915C469.122 404.902 470.282 404.891 471.377 403.948C472.408 403.069 472.994 402.082 472.983 400.661C472.972 398.644 474.284 397.223 475.944 396.648C477.56 396.084 478.894 395.195 480.152 394.219C481.735 393.004 482.983 391.431 483.189 389.284C483.276 388.329 483.709 387.483 484.393 386.887C486.063 385.433 489.132 385.368 491.063 386.594C491.096 386.616 491.128 386.637 491.15 386.659C491.367 386.876 491.594 387.082 491.811 387.31C492.332 387.852 492.853 388.156 493.384 388.232C494.751 389.273 496.03 390.401 497.234 391.648C498.362 392.82 499.436 392.895 500.781 392.017C501.356 391.637 501.931 391.366 502.646 391.377C503.265 391.388 503.905 391.171 504.36 390.813C505.944 389.544 507.462 389.555 509.23 390.531C511.171 391.605 513.362 390.856 514.501 388.958C514.881 388.318 515.423 388.047 516.128 387.95C517.213 387.798 518.297 387.657 519.371 387.44C520.629 387.19 521.735 385.921 521.594 384.718C521.497 383.828 521.432 382.885 520.911 382.093C519.035 379.284 519.913 376.03 523.178 374.305C525.011 373.34 525.607 371.518 526.627 369.978C526.768 369.761 526.779 369.36 526.703 369.099C526.171 367.364 525.26 365.954 523.395 365.39C522.874 365.227 522.289 365.065 521.909 364.718C521.649 364.468 521.378 364.305 521.085 364.197C520.532 362.722 519.631 361.551 517.972 361.052C517.451 360.889 516.866 360.726 516.486 360.379C515.738 359.674 514.881 359.631 513.948 359.642C510.781 359.663 507.625 359.696 504.458 359.631C503.124 359.598 501.985 359.88 500.835 360.574C499.805 361.203 499.024 361.908 498.449 362.993C497.386 365 495.922 365.282 494.111 363.948C493.872 363.774 493.699 363.492 493.46 363.308C492.82 362.82 492.408 362.125 491.855 361.572C490.965 360.694 489.306 360.737 489.056 361.746C488.612 363.557 487.18 364.707 486.464 366.312C485.965 367.407 485.174 368.21 483.861 368.318C483.514 368.351 483.189 368.568 482.853 368.698C481.714 369.121 480.607 369.685 479.436 369.945C478.742 370.097 478.091 370.065 477.495 369.902C476.616 369.002 475.738 368.112 474.848 367.223C473.514 365.9 472.907 364.013 471.367 362.852C471.28 362.787 471.226 362.646 471.193 362.538C470.857 361.008 469.328 360.184 468.894 358.709C466.041 356.041 464.436 352.57 462.755 349.164C461.128 345.856 460.228 342.266 459.002 338.807C458.926 338.579 458.937 338.275 458.785 338.134C457.495 336.941 457.646 335.39 457.657 333.872C457.668 330.856 459.056 329.208 462.082 328.6C462.56 328.503 462.994 328.362 463.427 328.091C464.197 327.613 465.011 327.125 465.879 326.898C466.725 326.659 467.256 326.193 467.603 325.466C468.145 324.36 469.1 323.568 469.783 322.548C470.347 321.702 470.9 321.713 471.8 322.321C472.104 322.527 472.386 322.765 472.668 322.993C473.145 323.384 473.85 323.557 474.187 323.188C475.271 321.984 476.887 321.626 478.015 320.477C479.631 318.839 481.074 316.995 483.026 315.726C484.577 314.728 485.9 313.514 487.093 312.136C487.527 311.637 488.167 311.344 488.362 310.618C489.165 307.657 491.54 306.334 494.067 305.162C495.727 304.392 497.527 304.078 499.241 303.514C501.334 302.841 503.536 302.885 505.618 304.034C507.397 305.021 508.384 304.783 509.783 303.362C510.889 302.234 512.007 301.128 513.124 300.021C513.384 299.772 513.655 299.479 513.97 299.338C515.607 298.622 517.007 297.494 518.753 296.908C520.716 296.247 522.549 295.976 524.393 296.952C525.423 297.505 526.15 297.364 526.985 296.572C529.501 294.186 531.605 291.344 534.783 289.642C535.868 289.056 537.05 288.47 537.874 287.451C538.004 287.288 538.308 287.19 538.525 287.18C540.011 287.158 541.508 286.67 542.907 287.776C543.731 288.438 544.902 288.253 545.391 287.592C546.009 286.767 546.594 285.911 547.104 285.01C548.265 282.982 549.306 280.856 551.117 279.305C552.104 278.459 552.939 277.201 554.414 277.212C556.562 277.234 558.655 276.822 560.781 276.626C561.8 276.529 562.809 276.692 563.644 275.824C564.013 275.444 564.664 275.498 565.228 275.498C566.139 275.509 567.072 275.574 567.972 275.488C569.957 275.292 571.985 275.737 573.937 275.054C575.868 274.381 577.028 272.407 576.551 270.477C576.453 270.076 576.161 269.728 575.987 269.338C575.51 268.275 575.293 267.288 576.367 266.366C576.898 265.9 577.278 265.249 577.798 264.728C578.764 263.763 578.666 262.548 577.614 261.605C577.05 261.106 576.703 260.466 576.269 259.88C575.987 259.512 575.846 259.11 576.161 258.709C576.735 257.961 576.627 257.093 576.627 256.247C576.627 254.11 576.627 251.974 576.627 249.837C576.627 248.253 577.256 246.865 578.547 246.084C580.228 245.065 581.898 243.893 584.111 244.175C585.466 244.349 586.649 243.817 587.712 242.787C588.558 241.952 589.154 240.759 590.401 240.39C592.093 239.902 592.614 238.6 592.722 237.071C592.809 235.921 592.668 234.75 592.755 233.59C592.95 231.062 593.319 230.488 595.868 230.531C601.67 230.639 607.43 229.924 613.221 229.924C616.584 229.924 619.935 229.924 623.297 229.924C625.25 229.924 626.996 228.318 627.169 226.388C627.419 223.644 627.256 220.9 627.289 218.156C627.31 216.822 627.115 215.455 628.211 214.37C628.352 214.229 628.373 213.915 628.384 213.687C628.503 210.921 629.523 208.47 631.28 206.377C632.256 205.216 632.007 203.937 631.833 202.733L631.79 202.592Z" stroke="#A77A63" stroke-width="4" stroke-miterlimit="10" shape-rendering="crispEdges"/>
</g>
<defs>
<filter id="filter0_d_542_573" x="-10.9016" y="-6.89453" width="654.899" height="451.918" filterUnits="userSpaceOnUse" color-interpolation-filters="sRGB">
<feFlood flood-opacity="0" result="BackgroundImageFix"/>
<feColorMatrix in="SourceAlpha" type="matrix" values="0 0 0 0 0 0 0 0 0 0 0 0 0 0 0 0 0 0 127 0" result="hardAlpha"/>
<feOffset dy="4"/>
<feGaussianBlur stdDeviation="5"/>
<feComposite in2="hardAlpha" operator="out"/>
<feColorMatrix type="matrix" values="0 0 0 0 1 0 0 0 0 1 0 0 0 0 1 0 0 0 1 0"/>
<feBlend mode="normal" in2="BackgroundImageFix" result="effect1_dropShadow_542_573"/>
<feBlend mode="normal" in="SourceGraphic" in2="effect1_dropShadow_542_573" result="shape"/>
</filter>
</defs>
</svg>
