<svg width="226" height="301" viewBox="0 0 226 301" fill="none" xmlns="http://www.w3.org/2000/svg">
<g clip-path="url(#clip0_525_2344)">
<path fill-rule="evenodd" clip-rule="evenodd" d="M142.269 272.816C142.269 268.3 144.251 264.637 146.697 264.637C149.143 264.637 151.125 268.3 151.125 272.816C151.125 277.332 149.143 280.995 146.697 280.995C144.251 280.995 142.269 277.337 142.269 272.816Z" fill="#360B1E"/>
<path d="M147.285 278.167C145.457 278.167 144.023 275.734 144.023 272.632C144.023 269.53 145.457 267.098 147.285 267.098C149.114 267.098 150.554 269.53 150.554 272.632C150.554 275.734 149.12 278.167 147.285 278.167ZM147.285 267.905C145.948 267.905 144.823 270.074 144.823 272.638C144.823 275.202 145.948 277.366 147.285 277.366C148.623 277.366 149.754 275.202 149.754 272.638C149.754 270.074 148.623 267.905 147.285 267.905Z" fill="#BFAF91"/>
<path fill-rule="evenodd" clip-rule="evenodd" d="M51.6035 218.035C51.6035 218.035 55.1634 227.731 53.2834 230.913C51.4035 234.09 48.4608 234.902 45.958 236.969C43.4496 239.04 33.8671 252.016 33.8671 252.016L30.9358 249.263C30.9358 249.263 35.5299 243.762 36.8898 242.154C38.2555 240.546 39.9811 236.093 39.9811 236.093C39.9811 236.093 28.8444 240.345 27.0445 242.973C25.2446 245.594 19.0963 248.599 17.5706 247.471C16.0392 246.338 0.565591 236.94 0.0798961 235.618C-0.405798 234.307 1.47412 225.687 3.83403 225.018C6.19393 224.342 16.7935 228.784 20.1991 228.32C23.5989 227.857 51.6035 218.029 51.6035 218.029V218.035Z" fill="#360B1E"/>
<path fill-rule="evenodd" clip-rule="evenodd" d="M43.2898 208.02C43.2898 208.02 36.2729 216.141 32.5302 218.957C28.7875 221.779 13.8281 228.521 13.8281 228.521C13.8281 228.521 16.4737 234.176 20.6164 235.229C24.7534 236.282 33.1473 234.737 37.2272 231.526C41.307 228.31 51.398 222.62 51.398 222.62C51.398 222.62 51.0037 218.522 52.0037 217.143C53.0037 215.763 55.6721 213.165 55.6721 213.165L43.3012 208.025L43.2898 208.02Z" fill="#FFBBB3"/>
<path fill-rule="evenodd" clip-rule="evenodd" d="M41.9411 209.369L40.2954 211.344C40.2954 211.344 48.5979 213.21 49.655 215.133C50.7121 217.062 51.2607 221.881 51.2607 221.881C51.2607 221.881 51.4664 217.628 52.2092 217.044C52.9463 216.455 55.2834 213.479 55.2834 213.479L41.9411 209.375V209.369Z" fill="#C34C51"/>
<path fill-rule="evenodd" clip-rule="evenodd" d="M147.977 185.822C150.097 185.822 151.817 187.545 151.817 189.668V264.927C151.817 267.051 150.097 268.774 147.977 268.774C145.857 268.774 144.137 267.057 144.137 264.927V189.668C144.137 187.545 145.857 185.822 147.977 185.822Z" fill="#FFF0D3"/>
<path d="M147.977 269.175C145.634 269.175 143.731 267.269 143.731 264.928V189.669C143.731 187.328 145.634 185.422 147.977 185.422C150.32 185.422 152.217 187.328 152.217 189.669V264.928C152.217 267.269 150.314 269.175 147.977 269.175ZM147.977 186.223C146.08 186.223 144.537 187.769 144.537 189.663V264.922C144.537 266.822 146.08 268.368 147.977 268.368C149.874 268.368 151.417 266.822 151.417 264.922V189.663C151.417 187.763 149.874 186.223 147.977 186.223Z" fill="#360B1E"/>
<path fill-rule="evenodd" clip-rule="evenodd" d="M114.281 174.111H177.673C179.838 174.111 181.598 175.868 181.598 178.038V186.148C181.598 188.311 179.844 190.074 177.673 190.074H114.281C112.116 190.074 110.361 188.317 110.361 186.148V178.038C110.361 175.868 112.116 174.111 114.281 174.111Z" fill="#FFF0D3"/>
<path d="M177.673 190.469H114.281C111.898 190.469 109.956 188.529 109.956 186.142V178.032C109.956 175.645 111.893 173.705 114.281 173.705H177.673C180.056 173.705 181.998 175.645 181.998 178.032V186.142C181.998 188.529 180.061 190.469 177.673 190.469ZM114.281 174.512C112.338 174.512 110.761 176.092 110.761 178.038V186.148C110.761 188.088 112.338 189.674 114.281 189.674H177.673C179.616 189.674 181.193 188.094 181.193 186.148V178.038C181.193 176.098 179.616 174.512 177.673 174.512H114.281Z" fill="#360B1E"/>
<path fill-rule="evenodd" clip-rule="evenodd" d="M87.3794 252.783C87.3794 252.783 92.7849 255.96 95.0533 257.259C97.3275 258.558 100.122 261.941 99.2189 265.1C98.3218 268.26 95.459 274.922 95.7619 276.668C96.0647 278.413 97.7847 291.932 97.7847 291.932L94.1448 291.909L91.6363 277.034C91.6363 277.034 88.1279 283.954 88.3565 287.359C88.5793 290.765 90.0707 296.03 88.9336 297.164C87.7965 298.291 66.4031 301.416 64.866 300.781C63.3346 300.14 61.9633 297.862 62.9461 296.111C63.9289 294.353 73.8542 288.275 73.2428 286.163C72.6257 284.051 84.928 250.465 87.3679 252.789L87.3794 252.783Z" fill="#360B1E"/>
<path fill-rule="evenodd" clip-rule="evenodd" d="M78.471 246.326C78.471 246.326 78.2138 248.22 77.4996 250.109C75.9853 254.127 73.3512 260.24 73.4197 262.924C73.5226 266.868 73.9226 283.369 73.9226 285.801C73.9226 288.234 72.2026 289.338 72.2026 289.338C72.2026 289.338 82.1051 291.467 84.2307 287.822C86.3506 284.176 86.1506 277.8 87.9677 274.457C89.7848 271.115 90.5962 267.778 91.099 263.628C91.6018 259.479 88.5734 254.213 89.5848 250.166C90.5962 246.114 78.4652 246.32 78.4652 246.32L78.471 246.326Z" fill="#FFBBB3"/>
<path fill-rule="evenodd" clip-rule="evenodd" d="M78.0312 247.197L77.3855 250.54C77.3855 250.54 84.6023 251.295 86.9165 254.1C89.2307 256.904 90.8421 259.686 90.8421 259.686C90.8421 259.686 89.3279 254.151 89.545 252.646C89.7621 251.135 89.8193 247.953 89.8193 247.953L78.0255 247.197H78.0312Z" fill="#C34C51"/>
<path d="M183.021 63.9564C183.021 63.9564 181.381 57.7349 180.661 55.0047C180.278 53.551 180.095 47.8045 179.901 41.7261C179.724 36.1857 179.541 30.4564 179.204 28.1498C178.21 21.356 175.101 8.63824 169.77 4.07657C164.085 -0.794172 158.125 3.19514 158.062 3.23521C157.879 3.36113 157.628 3.31534 157.502 3.13219C157.376 2.94903 157.422 2.6972 157.605 2.57128C157.668 2.52549 164.13 -1.80152 170.284 3.46415C177.073 9.27356 179.713 26.1294 179.993 28.0296C180.341 30.382 180.524 36.1342 180.701 41.6975C180.884 47.4668 181.073 53.4308 181.433 54.793C182.152 57.5231 183.792 63.7446 183.792 63.7446L183.015 63.9507L183.021 63.9564Z" fill="#360B1E"/>
<path fill-rule="evenodd" clip-rule="evenodd" d="M85.2366 164.845L77.6255 249.01L90.145 251.706C90.145 251.706 95.2819 235.239 98.6932 229.481C102.104 223.723 107.07 205.723 107.647 199.541C108.23 193.36 106.356 178.387 106.356 178.387C106.356 178.387 152.245 186.223 159.754 180.213C167.268 174.198 116.978 137.922 109.138 139.387C101.299 140.852 85.2366 164.845 85.2366 164.845Z" fill="#FFDE5D"/>
<path fill-rule="evenodd" clip-rule="evenodd" d="M175.964 37.411L178.45 33.4674L181.501 32.4658L182.404 48.9439L175.964 37.411Z" fill="#D9CBB2"/>
<path fill-rule="evenodd" clip-rule="evenodd" d="M157.588 3.31608C157.588 3.31608 148.914 1.21554 146.52 4.48941C145.691 5.6284 138.537 10.8769 137.783 17.3731C135.966 33.0614 132.383 43.6213 132.383 43.6213L124.989 60.1109L132.892 60.0994L132.132 65.9031L141.263 71.4264L181.49 69.7207L177.884 49.7112L182.387 49.1961C182.387 49.1961 175.473 15.015 174.873 12.199C174.273 9.38305 165.325 -2.1957 157.588 3.31036V3.31608Z" fill="#360B1E"/>
<path fill-rule="evenodd" clip-rule="evenodd" d="M173.37 58.5884L181.364 55.8926L184.415 66.733L175.89 69.2456L173.37 58.5884Z" fill="#FFF0D3"/>
<path fill-rule="evenodd" clip-rule="evenodd" d="M107.59 120.906L124.378 72.4446L147.794 64.4946L164.616 62.8691L194.066 77.7962L225.271 177.689L208.654 183.333L198.483 181.908L199.632 185.147L173.273 186.675L108.173 146.702L107.596 120.906H107.59Z" fill="#003049"/>
<path fill-rule="evenodd" clip-rule="evenodd" d="M147.651 47.1412C147.651 47.1412 149.891 55.5434 150.074 58.7543C150.262 61.9709 150.308 63.3045 150.308 63.3045C150.308 63.3045 164.679 59.0004 164.788 57.8671C164.89 56.7339 164.902 39.0195 159.833 34.309C154.765 29.5985 147.651 47.1469 147.651 47.1469V47.1412Z" fill="#FFBBB3"/>
<path fill-rule="evenodd" clip-rule="evenodd" d="M180.124 128.152C180.124 128.152 194.883 139.559 196.255 143.572C197.62 147.578 208.597 183.179 208.597 183.179L198.489 182.257C198.489 182.257 187.398 144.31 186.027 141.248C184.655 138.186 180.124 128.152 180.124 128.152Z" fill="#000507"/>
<path fill-rule="evenodd" clip-rule="evenodd" d="M147.262 49.3963C147.262 49.3963 148.834 52.7961 149.171 53.689C149.502 54.5819 149.639 56.1215 149.639 56.1215C149.639 56.1215 155.754 51.8574 157.062 47.1069C158.371 42.3563 158.211 38.4014 158.211 38.4014L147.262 49.3906V49.3963Z" fill="#C34C51"/>
<path fill-rule="evenodd" clip-rule="evenodd" d="M172.467 14.1904C171.884 13.555 171.153 33.8965 171.153 33.8965L168.359 27.2916L168.027 39.4713L179.89 40.2039L176.324 21.4307L175.753 33.7821C175.753 33.7821 173.056 14.8257 172.473 14.1904H172.467Z" fill="black"/>
<path fill-rule="evenodd" clip-rule="evenodd" d="M146.428 7.14453C146.428 7.14453 140.617 13.1256 138.846 16.8803C136.823 21.1615 136.886 25.8605 136.377 28.4361C135.869 31.006 135.075 39.3853 137.006 44.4277C138.937 49.4702 141.457 51.525 144.971 52.0458C148.485 52.5666 155.594 47.5127 157.611 43.8554C159.622 40.2038 161.799 33.5644 161.799 33.5644C161.799 33.5644 162.433 35.5849 165.199 35.0984C167.965 34.6119 170.902 31.0575 171.079 27.5547C171.256 24.0519 168.365 19.9481 166.525 21.3905C164.69 22.8385 162.245 25.1966 162.245 25.1966C162.245 25.1966 158.285 26.0494 156.428 23.697C154.565 21.3447 155.422 16.5941 156.159 13.7266C156.897 10.8534 152.68 6.4806 151.228 7.31624C149.771 8.14615 148.274 7.42499 146.434 7.14453H146.428Z" fill="#FFBBB3"/>
<path fill-rule="evenodd" clip-rule="evenodd" d="M162.816 29.1002C162.816 29.1002 166.622 24.2409 167.913 25.5917C169.204 26.9482 167.165 32.2539 165.216 32.1623C163.262 32.0707 162.816 29.0945 162.816 29.0945V29.1002Z" fill="#F59494"/>
<path fill-rule="evenodd" clip-rule="evenodd" d="M167.005 39.5633C166.645 39.6491 166.45 50.2205 166.782 50.2949C167.119 50.3636 168.187 47.6335 168.187 47.1184C168.187 46.6032 167.365 39.4774 166.999 39.5633H167.005Z" fill="#BFAF91"/>
<path fill-rule="evenodd" clip-rule="evenodd" d="M162.902 28.5113C162.902 28.5113 164.159 26.84 165.685 25.6609C167.21 24.4819 168.622 25.2374 168.622 25.2374C168.622 25.2374 167.107 25.3633 165.547 26.8915C163.988 28.4197 162.73 30.3485 162.73 30.3485L162.902 28.5113Z" fill="#360B1E"/>
<path fill-rule="evenodd" clip-rule="evenodd" d="M166.765 36.3917L183.701 34.875L183.57 49.8936L166.73 50.2485L167.416 47.1406L166.765 36.3917Z" fill="#FFF0D3"/>
<path d="M176.833 39.2481C176.656 39.2481 176.49 39.1279 176.444 38.9448C176.387 38.7273 176.519 38.5098 176.736 38.4583L178.57 37.9889L168.536 38.3724C168.29 38.3839 168.13 38.2064 168.119 37.9889C168.108 37.7657 168.285 37.5826 168.502 37.5711L182.313 37.0445C182.547 37.0331 182.695 37.1876 182.724 37.388C182.753 37.594 182.627 37.7829 182.427 37.8344L176.93 39.2367C176.896 39.2481 176.861 39.2481 176.833 39.2481Z" fill="#360B1E"/>
<path fill-rule="evenodd" clip-rule="evenodd" d="M164.69 52.6239C164.69 52.6239 163.993 56.1782 160.679 57.6778C158.045 58.8683 151.697 59.0629 151.697 59.0629L155.645 61.5011L164.827 59.2289C164.827 59.2289 164.896 54.7931 164.69 52.6182V52.6239Z" fill="#C34C51"/>
<path fill-rule="evenodd" clip-rule="evenodd" d="M107.499 79.3477C107.499 79.3477 113.047 77.4189 117.075 80.5954C121.104 83.7777 136.726 97.4856 136.726 97.4856L134.475 105.499L107.984 87.6011L107.504 79.3477H107.499Z" fill="#EDE9EB"/>
<path d="M159.222 26.0669C157.233 26.0669 155.176 25.1969 154.062 23.8175C152.205 21.5281 152.856 15.4268 153.702 12.1186C154.525 8.90768 150.285 7.15055 150.245 7.13338C150.039 7.04753 149.942 6.81858 150.022 6.61254C150.108 6.40649 150.342 6.30919 150.542 6.38932C150.594 6.40649 155.479 8.4269 154.479 12.3189C153.474 16.2453 153.268 21.5625 154.685 23.3139C155.811 24.7047 158.068 25.5003 160.056 25.2026C161.599 24.9737 162.748 24.1037 163.285 22.7644C163.365 22.5584 163.599 22.4611 163.805 22.5412C164.01 22.6213 164.107 22.856 164.027 23.062C163.376 24.6761 162.01 25.7178 160.17 25.9925C159.856 26.0383 159.542 26.0612 159.222 26.0612V26.0669Z" fill="#360B1E"/>
<path fill-rule="evenodd" clip-rule="evenodd" d="M135.286 97.3769C135.286 97.3769 168.073 82.4499 169.199 86.548C170.325 90.646 166.799 139.313 164.942 141.815C163.079 144.316 132.595 141.231 132.595 141.231L104.024 131.312L101.23 79.4336C101.23 79.4336 130.492 89.3754 135.286 97.3769Z" fill="#A77A63"/>
<path d="M166.73 59.5727C166.639 59.5727 166.548 59.5441 166.468 59.4754C166.33 59.361 163.119 56.5507 162.628 51.285C162.256 47.3243 163.353 44.2164 164.005 42.3563C164.21 41.7668 164.376 41.2974 164.428 40.9998C164.61 39.8551 163.93 36.9762 161.291 33.7309C158.599 30.4284 159.394 15.3011 159.428 14.66C159.439 14.4368 159.639 14.2594 159.851 14.2823C160.074 14.2937 160.239 14.4826 160.228 14.7058C160.216 14.8603 159.411 30.1594 161.913 33.2215C164.542 36.4496 165.473 39.5804 165.222 41.1257C165.159 41.492 164.988 41.99 164.765 42.6196C164.136 44.4168 163.079 47.4159 163.433 51.2049C163.896 56.1501 166.965 58.8344 166.999 58.8573C167.165 59.0004 167.188 59.2579 167.045 59.4239C166.965 59.5155 166.85 59.567 166.742 59.567L166.73 59.5727Z" fill="#360B1E"/>
<path fill-rule="evenodd" clip-rule="evenodd" d="M148.782 58.1984L147.771 64.4714C147.771 64.4714 153.445 66.24 156.416 66.6636C159.382 67.0928 165.387 65.7936 165.387 65.7936L165.593 57.7978C165.593 57.7978 160.033 57.7062 160.182 59.366C159.159 59.5721 158.211 59.532 157.485 59.532C154.948 59.5377 148.782 58.187 148.782 58.187V58.1984Z" fill="black"/>
<path fill-rule="evenodd" clip-rule="evenodd" d="M131.555 43.6328L137.109 47.7938L135.469 59.6988L124.315 60.9294L131.555 43.6385V43.6328Z" fill="#BFAF91"/>
<path fill-rule="evenodd" clip-rule="evenodd" d="M184.17 131.603C184.17 131.603 177.639 129.834 175.576 129.817C173.507 129.806 168.068 128.976 168.068 128.976C168.068 128.976 163.999 123.166 162.016 122.788C160.034 122.411 155.805 123.166 154.377 123.04C152.948 122.914 150.063 122.869 150.863 123.796C151.657 124.723 154.657 125.576 155.845 125.73C157.034 125.885 160.451 126.497 160.451 126.497C160.451 126.497 156.365 128.083 154.794 128.26C153.217 128.426 148.76 127.808 147.331 127.831C145.903 127.854 141.617 127.917 142.743 128.787C143.869 129.657 144.577 130.464 146.331 130.687C148.085 130.904 152.811 131.883 152.811 131.883L146.777 132.026C146.777 132.026 141.366 131.225 140.886 132.169C140.406 133.119 141.234 133.841 143.017 134.447C144.8 135.054 148.365 135.518 149.525 135.735C150.685 135.953 153.068 135.815 153.068 135.815L145.154 135.981C145.154 135.981 140.966 134.831 141.137 135.958C141.309 137.092 145 137.321 146.691 137.956C148.383 138.591 152.811 139.123 153.822 138.889C154.84 138.654 147.217 139.421 148.731 140.262C150.245 141.104 153.485 141.779 155.599 141.579C157.714 141.384 163.439 138.311 165.256 137.967C167.068 137.618 176.427 142.357 180.924 144.223C185.427 146.089 198.661 150.33 198.661 150.33C198.661 150.33 197.226 143.811 195.535 141.722C193.849 139.633 185.604 132.822 184.181 131.608L184.17 131.603Z" fill="#FFBBB3"/>
<path d="M208.283 182.84C208.106 182.84 207.94 182.72 207.894 182.537C207.809 182.199 199.14 148.625 195.478 142.827C191.821 137.034 178.673 127.31 178.541 127.213C178.364 127.081 178.324 126.829 178.456 126.652C178.587 126.474 178.838 126.434 179.016 126.566C179.558 126.967 192.421 136.479 196.158 142.397C199.889 148.304 208.317 180.951 208.671 182.336C208.729 182.554 208.597 182.771 208.386 182.823C208.351 182.834 208.317 182.834 208.289 182.834L208.283 182.84Z" fill="#360B1E"/>
<path fill-rule="evenodd" clip-rule="evenodd" d="M148.737 28.3846C148.737 28.3846 150.954 30.7828 152.674 30.9659C154.388 31.1491 158.091 28.5105 158.656 27.9267C159.216 27.3429 157.096 27.8409 154.777 28.8082C152.451 29.7869 148.743 28.3846 148.743 28.3846H148.737Z" fill="#EDE9EB"/>
<path fill-rule="evenodd" clip-rule="evenodd" d="M148.594 28.2765C148.594 28.2765 151.257 29.324 153.337 28.929C155.411 28.5398 158.931 27.1318 158.931 27.1318C158.931 27.1318 154.851 29.1236 153.388 29.5415C151.925 29.9593 150.097 28.8947 148.6 28.2708L148.594 28.2765Z" fill="#360B1E"/>
<path fill-rule="evenodd" clip-rule="evenodd" d="M150.097 35.6823C149.234 34.9039 157.091 27.4003 159.548 29.7584C162.005 32.1222 153.434 38.6929 150.097 35.6823Z" fill="#F59494"/>
<path fill-rule="evenodd" clip-rule="evenodd" d="M151.468 29.2496C151.468 29.2496 151.605 30.7262 152.068 30.9266C152.531 31.1212 154.714 30.7778 155.531 30.1711C156.348 29.5644 155.976 28.4082 155.976 28.4082C155.976 28.4082 152.497 29.6216 151.462 29.2496H151.468Z" fill="#360B1E"/>
<path fill-rule="evenodd" clip-rule="evenodd" d="M140.303 42.3962C140.303 42.3962 142.44 39.7061 144.148 40.1926C145.857 40.6849 147.925 42.7625 147.925 42.7625C147.925 42.7625 145.445 45.1664 143.223 44.8802C141 44.594 140.297 42.3962 140.297 42.3962H140.303Z" fill="#F59494"/>
<path fill-rule="evenodd" clip-rule="evenodd" d="M140.417 42.4707C140.417 42.4707 142.508 42.0185 143.571 41.9784C144.634 41.9441 147.988 42.6424 147.988 42.6424C147.988 42.6424 144.897 40.0153 143.903 40.1068C142.903 40.1984 141.748 40.622 140.417 42.4707Z" fill="#C34C51"/>
<path fill-rule="evenodd" clip-rule="evenodd" d="M147.788 26.4335C148.023 27.0173 148.828 27.0459 149.605 26.6453C150.377 26.2446 151.217 25.4433 152.234 25.1972C153.251 24.9568 157.514 25.2315 157.959 25.4204C158.411 25.6093 156.165 23.8407 154.897 23.7491C153.628 23.6633 152.337 23.3084 150.948 23.9952C149.554 24.6764 147.525 25.7924 147.794 26.4335H147.788Z" fill="#360B1E"/>
<path fill-rule="evenodd" clip-rule="evenodd" d="M170.204 153.645C170.204 153.645 96.5217 121.948 90.3334 128.186C84.1508 134.431 64.3973 171.216 57.9004 181.77C51.4035 192.325 40.9583 210.274 40.9583 210.274L54.7177 214.944C54.7177 214.944 81.1966 190.55 84.0765 185.977C86.9564 181.404 102.647 150.835 102.647 150.835C102.647 150.835 128.572 176.356 139.766 181.696C150.959 187.042 171.799 181.078 176.17 176.997C180.541 172.922 176.918 155.854 170.199 153.639L170.204 153.645Z" fill="#FFDE5D"/>
<path d="M153.771 128.599C151.874 128.599 150.125 128.411 149.143 128.193C146.674 127.655 140.891 128.09 140.834 128.096C140.611 128.107 140.423 127.947 140.406 127.724C140.389 127.501 140.554 127.312 140.777 127.294C141.017 127.277 146.731 126.848 149.314 127.409C151.965 127.981 158.102 128.142 160.382 126.402C159.696 126.173 157.479 126.161 156.234 126.161C155.342 126.161 154.565 126.161 154.097 126.11C150.72 125.778 149.788 123.832 149.748 123.752C149.657 123.551 149.748 123.311 149.943 123.219C150.143 123.128 150.382 123.219 150.474 123.414C150.502 123.477 151.28 125.028 154.171 125.314C154.599 125.354 155.394 125.36 156.228 125.36C159.805 125.371 161.033 125.492 161.262 126.167C161.331 126.373 161.319 126.694 160.862 127.048C159.302 128.239 156.388 128.605 153.765 128.605L153.771 128.599Z" fill="#360B1E"/>
<path d="M185.232 132.474C185.17 132.474 185.101 132.457 185.038 132.422C182.164 130.843 176.804 130.362 172.89 130.013C170.627 129.812 168.999 129.664 168.353 129.36C167.285 128.857 165.868 127.042 164.622 125.445C163.85 124.455 163.119 123.517 162.702 123.202C162.148 122.778 160.451 123.019 158.948 123.23C157.788 123.391 156.588 123.562 155.571 123.522C153.177 123.431 150.24 123.837 150.211 123.843C150 123.877 149.788 123.723 149.76 123.499C149.731 123.282 149.88 123.076 150.102 123.047C150.222 123.03 153.125 122.624 155.605 122.721C156.554 122.761 157.714 122.595 158.839 122.441C160.731 122.177 162.365 121.948 163.182 122.566C163.685 122.944 164.41 123.877 165.25 124.953C166.382 126.407 167.793 128.216 168.69 128.633C169.205 128.874 170.942 129.028 172.959 129.212C176.947 129.566 182.404 130.053 185.421 131.718C185.615 131.827 185.684 132.068 185.581 132.262C185.507 132.394 185.37 132.468 185.227 132.468L185.232 132.474Z" fill="#360B1E"/>
<path fill-rule="evenodd" clip-rule="evenodd" d="M142.863 24.0002C141.926 23.279 140.406 20.6004 139.12 20.3658C137.834 20.1311 137.526 19.988 137.526 19.988L137.789 18.9063C137.789 18.9063 139.137 18.7059 140.926 19.8964C143.309 21.4819 144.394 23.8629 144.394 23.8629C144.394 23.8629 143.8 24.7157 142.863 23.9945V24.0002Z" fill="#360B1E"/>
<path fill-rule="evenodd" clip-rule="evenodd" d="M136.84 24.6416L136.606 26.3644C136.606 26.3644 139.76 29.043 140.903 29.0945C142.04 29.1403 143.331 28.1158 143.331 28.1158C143.331 28.1158 140.874 27.9269 139.64 27.2401C138.406 26.5475 136.846 24.6473 136.846 24.6473L136.84 24.6416Z" fill="#F2EFF0"/>
<path fill-rule="evenodd" clip-rule="evenodd" d="M144.48 27.9502C144.48 27.9502 141.834 28.0532 140.154 27.1661C138.469 26.2846 136.811 24.2871 136.811 24.2871L136.789 24.6649C136.789 24.6649 138.52 26.7196 140.011 27.4637C141.497 28.2077 144.474 27.9502 144.474 27.9502H144.48Z" fill="#360B1E"/>
<path fill-rule="evenodd" clip-rule="evenodd" d="M138.223 26.1357C138.223 26.1357 137.663 27.2976 138.097 27.704C138.526 28.1161 140.383 29.0719 140.829 29.0834C141.274 29.1005 142.017 27.9787 142.017 27.9787C142.017 27.9787 140.554 27.6067 140.177 27.4064C139.794 27.2003 138.229 26.1357 138.229 26.1357H138.223Z" fill="#360B1E"/>
<path d="M142.28 33.0729C140.183 33.0729 134.486 30.3084 133.783 29.7418C132.48 28.7001 133.675 24.0182 133.932 23.0796C133.966 22.9422 134.103 22.6446 134.623 22.6331C136.28 22.5931 144.554 26.4221 144.903 27.6699C145.257 28.9462 143.646 32.18 142.937 32.8897C142.811 33.0214 142.583 33.0786 142.28 33.0786V33.0729ZM134.663 23.4287C134.023 25.8326 133.703 28.6486 134.28 29.1179C135.463 30.068 141.617 32.5749 142.417 32.2888C142.966 31.7278 144.366 28.7459 144.126 27.8873C143.634 26.943 136.017 23.3371 134.663 23.4287Z" fill="#360B1E"/>
<path d="M157.502 36.9648C154.839 36.9648 146.874 35.0188 146.24 33.9943C145.623 32.9984 146.828 29.4841 147.217 28.431C147.28 28.265 147.423 28.1505 147.617 28.1677C147.977 28.1849 148.411 28.2078 148.908 28.2307C157.628 28.6428 160.274 29.1236 160.228 30.2797C160.182 31.516 159.622 35.2306 158.919 36.484C158.742 36.7988 158.342 36.9419 157.622 36.9591C157.588 36.9591 157.548 36.9591 157.514 36.9591L157.502 36.9648ZM147.868 28.9862C147.188 30.9207 146.663 33.1472 146.92 33.5708C147.588 34.3091 157.262 36.7988 158.239 36.0605C158.788 35.076 159.359 31.6705 159.416 30.3026C158.731 29.507 151.314 29.1579 148.863 29.0434C148.497 29.0263 148.16 29.0091 147.868 28.9976V28.9862Z" fill="#360B1E"/>
<path d="M160.056 30.4056C159.999 30.4056 159.936 30.3942 159.885 30.3655C159.685 30.2682 159.599 30.0279 159.696 29.8275L162.919 23.1138C163.016 22.9135 163.256 22.8276 163.456 22.9249C163.656 23.0222 163.742 23.2626 163.645 23.4629L160.422 30.1767C160.353 30.3198 160.211 30.4056 160.062 30.4056H160.056Z" fill="#360B1E"/>
<path fill-rule="evenodd" clip-rule="evenodd" d="M141.154 36.9074L144.4 37.3882C144.4 37.3882 143.6 35.2762 141.154 36.9074Z" fill="#F59494"/>
<path fill-rule="evenodd" clip-rule="evenodd" d="M153.559 146.748C153.559 146.748 164.29 158.636 162.805 167.095C161.313 175.549 157.708 183.493 157.708 183.493C157.708 183.493 174.284 180.775 177.084 176.493C181.507 169.745 174.958 155.505 172.536 154.2C170.107 152.895 153.559 146.754 153.559 146.754V146.748Z" fill="#FFDE5D"/>
<path d="M215.603 160.588C215.425 160.588 215.265 160.473 215.214 160.296L192.712 80.9845L167.81 65.5367C167.622 65.4222 167.565 65.1703 167.679 64.9815C167.793 64.7926 168.045 64.7354 168.227 64.8498L193.261 80.3835C193.346 80.4351 193.409 80.5209 193.432 80.6125L215.974 160.078C216.037 160.29 215.911 160.513 215.7 160.576C215.665 160.588 215.625 160.593 215.591 160.593L215.603 160.588Z" fill="#FFF0D3"/>
<path d="M160.742 67.242C160.559 67.242 160.411 67.2248 160.302 67.1905C158.971 66.7612 159.679 60.0246 159.822 59.4293C159.874 59.2118 160.091 59.0802 160.308 59.1374C160.525 59.1889 160.656 59.4064 160.599 59.6239C160.268 60.9689 160.142 65.7882 160.594 66.4407C161.125 66.538 163.411 66.0343 165.308 65.4906C165.519 65.4276 165.742 65.5535 165.805 65.7653C165.868 65.9771 165.742 66.2003 165.53 66.2632C164.651 66.5151 161.976 67.2477 160.742 67.2477V67.242Z" fill="#FFF0D3"/>
<path fill-rule="evenodd" clip-rule="evenodd" d="M143.834 190.213L144.217 194.025L152.011 202.032L151.857 190.213H143.834Z" fill="#360B1E"/>
<path d="M140.103 109.236C139.708 109.236 139.314 109.11 138.96 108.869C138.434 108.509 137.749 107.719 137.491 106.036C137.114 103.649 138.08 99.9978 139.097 98.7901C139.514 98.2979 140.143 98.109 140.863 98.2636C141.897 98.4811 143.017 99.3854 143.257 100.204C143.64 101.486 142.023 102.465 141.954 102.505C141.766 102.619 141.52 102.556 141.406 102.367C141.291 102.178 141.354 101.932 141.543 101.818C141.554 101.812 142.685 101.108 142.485 100.433C142.343 99.952 141.486 99.2194 140.691 99.0534C140.257 98.9618 139.926 99.0534 139.703 99.3167C138.794 100.393 137.943 103.787 138.274 105.922C138.446 107.015 138.846 107.828 139.406 108.217C139.697 108.417 140.006 108.486 140.314 108.423C141.503 108.165 142.194 107.65 142.497 106.803C142.651 106.362 142.697 105.813 142.697 105.315C142.611 105.366 142.508 105.384 142.405 105.361C142.394 105.361 141.377 105.132 140.851 105.103C140.451 105.08 140.406 104.754 140.4 104.72C140.36 104.371 140.348 104.245 142.874 103.518C142.983 103.489 143.103 103.501 143.2 103.564C143.297 103.627 143.36 103.724 143.383 103.838C143.394 103.918 143.708 105.784 143.251 107.072C142.851 108.194 141.948 108.892 140.486 109.207C140.36 109.236 140.228 109.247 140.097 109.247L140.103 109.236ZM142.331 104.514C142.474 104.542 142.571 104.565 142.583 104.565C142.611 104.571 142.64 104.582 142.668 104.594C142.668 104.531 142.657 104.468 142.651 104.411C142.543 104.445 142.434 104.474 142.331 104.508V104.514Z" fill="#360B1E"/>
<path d="M147.177 107.209C147 107.209 146.811 107.192 146.606 107.163C146.417 107.134 146.16 107.02 145.983 106.659C145.777 106.236 145.737 105.486 145.806 104.559C145.743 104.542 145.686 104.513 145.64 104.467C145.474 104.318 145.463 104.061 145.617 103.901C145.617 103.901 145.737 103.769 145.914 103.551C146.32 100.489 147.514 96.4085 147.891 95.7045C148.165 95.2008 148.491 95.2638 148.623 95.3153C149.514 95.6644 148.874 99.5221 148.674 100.283C148.308 101.697 147.285 103.128 146.68 103.889C146.508 105.188 146.485 106.179 146.754 106.373C148.011 106.574 148.525 105.852 148.543 105.818C148.668 105.635 148.914 105.589 149.097 105.709C149.28 105.829 149.331 106.076 149.211 106.259C149.183 106.304 148.577 107.209 147.183 107.209H147.177ZM148.268 96.8893C147.863 98.0798 147.337 100.163 146.971 102.081C147.354 101.468 147.714 100.764 147.891 100.083C148.16 99.0528 148.274 97.7592 148.274 96.8893H148.268Z" fill="#360B1E"/>
<path d="M150.291 106.85C149.971 106.85 149.245 106.712 149.131 105.47C148.982 103.816 150.12 100.222 151.297 100.016C151.588 99.9644 151.868 100.039 152.097 100.233C152.434 100.514 152.634 101.04 152.748 101.556C152.931 100.949 153.102 100.319 153.239 99.7011C153.285 99.4894 153.502 99.3577 153.708 99.3978C153.919 99.4436 154.062 99.6496 154.022 99.8614C153.514 102.695 153.405 105.436 153.794 105.728C154.017 105.739 154.171 105.923 154.165 106.14C154.154 106.363 153.954 106.518 153.731 106.518C153.571 106.512 153.348 106.449 153.154 106.209C152.834 105.808 152.748 104.921 152.765 103.919C152.125 105.459 151.285 106.833 150.297 106.838H150.285L150.291 106.85ZM151.474 100.806C151.474 100.806 151.451 100.806 151.434 100.806C150.948 100.949 149.702 103.919 149.942 105.528C150.022 106.049 150.2 106.043 150.291 106.043C150.851 106.043 151.554 104.835 152.182 103.215C152.137 103.152 152.108 103.072 152.108 102.986C152.097 102.271 151.931 101.138 151.588 100.852C151.548 100.817 151.52 100.806 151.48 100.806H151.474Z" fill="#360B1E"/>
<path d="M157.274 106.803C157.274 106.803 157.234 106.803 157.217 106.803C157.011 106.774 156.862 106.597 156.874 106.391C156.874 106.362 156.919 105.257 156.988 103.689C156.245 104.708 155.519 104.834 155.405 104.851C155.188 104.874 154.982 104.719 154.959 104.502C154.931 104.284 155.085 104.084 155.302 104.055C155.342 104.05 156.331 103.826 157.079 101.777C157.194 99.219 157.337 96.197 157.457 94.3483C157.525 93.3123 157.588 93.0948 157.851 92.9861C157.994 92.9289 158.171 92.9575 158.285 93.0605C158.794 93.5127 158.656 99.1732 158.085 101.251C158.016 101.497 157.948 101.726 157.874 101.938C157.862 102.172 157.851 102.407 157.845 102.63C158.868 98.8699 160.279 94.4227 161.285 94.085C161.491 94.0163 161.708 94.0564 161.879 94.1938C163.142 95.2183 162.548 102.905 162.336 105.234C162.313 105.458 162.113 105.612 161.902 105.601C161.679 105.578 161.519 105.383 161.536 105.166C161.936 100.804 162.005 95.8192 161.456 94.9206C160.674 95.7162 158.919 101.417 157.674 106.511C157.628 106.694 157.468 106.82 157.285 106.82L157.274 106.803Z" fill="#360B1E"/>
<path d="M164.639 104.869C164.639 104.869 164.61 104.869 164.599 104.869C164.376 104.846 164.216 104.652 164.239 104.429C164.245 104.337 165.13 95.4942 164.913 93.3936C164.399 93.9431 163.371 95.7918 162.599 97.4459C162.508 97.6462 162.268 97.7321 162.068 97.6405C161.868 97.5489 161.782 97.3085 161.873 97.1082C164.113 92.289 164.879 92.4149 165.136 92.455C165.353 92.4893 165.628 92.6438 165.702 93.2105C165.965 95.2423 165.079 104.137 165.039 104.514C165.016 104.721 164.845 104.875 164.639 104.875V104.869Z" fill="#360B1E"/>
<path d="M151.537 114.474C151.382 114.474 151.239 114.388 151.171 114.24C151.079 114.039 151.171 113.799 151.365 113.707C151.594 113.604 156.965 111.137 159.668 111.75C162.262 112.334 165.302 113.393 165.336 113.398C165.547 113.473 165.656 113.702 165.582 113.908C165.507 114.119 165.279 114.228 165.073 114.154C165.045 114.142 162.039 113.101 159.491 112.528C157.051 111.979 151.754 114.411 151.702 114.434C151.651 114.457 151.588 114.469 151.537 114.469V114.474Z" fill="#360B1E"/>
<path fill-rule="evenodd" clip-rule="evenodd" d="M156.308 112.304C156.308 112.304 155.948 114.479 157.708 115.114C159.468 115.755 162.313 115.36 162.313 115.36L163.079 113.214C163.079 113.214 159.119 111.268 156.308 112.304Z" fill="#360B1E"/>
<path d="M135.966 97.4799C135.863 97.4799 135.76 97.4399 135.686 97.3655C135.555 97.2338 122.327 84.1841 118.355 81.4139C114.498 78.7181 106.921 79.8857 106.841 79.8972C106.619 79.9315 106.419 79.7827 106.384 79.5652C106.35 79.3477 106.499 79.1417 106.716 79.1073C107.041 79.0558 114.687 77.8711 118.812 80.7557C122.835 83.566 135.703 96.2551 136.246 96.7931C136.406 96.9477 136.406 97.2052 136.246 97.3598C136.166 97.4399 136.063 97.4799 135.96 97.4799H135.966Z" fill="#360B1E"/>
<path d="M136.269 97.7315C136.2 97.7315 136.131 97.7143 136.069 97.68C135.903 97.5827 119.321 88.0816 115.138 85.5117C111.018 82.9819 100.819 80.8413 100.716 80.8241C100.499 80.7783 100.362 80.5666 100.407 80.3491C100.453 80.1316 100.664 79.9942 100.881 80.0343C101.304 80.1201 111.321 82.2264 115.561 84.8249C119.492 87.2402 134.429 95.8084 136.28 96.873C137.68 96.1575 146.297 91.779 151.274 89.8215C156.702 87.6924 167.267 86.3817 167.713 86.3245C167.93 86.3016 168.13 86.4561 168.159 86.6736C168.187 86.8911 168.027 87.0971 167.81 87.12C167.702 87.1315 156.902 88.4765 151.565 90.5656C146.2 92.6719 136.549 97.6285 136.451 97.68C136.394 97.7086 136.331 97.7258 136.269 97.7258V97.7315Z" fill="#360B1E"/>
<path fill-rule="evenodd" clip-rule="evenodd" d="M156.868 274.742C156.868 269.477 159.176 265.207 162.028 265.207C164.879 265.207 167.187 269.477 167.187 274.742C167.187 280.008 164.879 284.278 162.028 284.278C159.176 284.278 156.868 280.008 156.868 274.742Z" fill="#360B1E"/>
<path fill-rule="evenodd" clip-rule="evenodd" d="M125.726 277.525C125.726 272.648 127.863 268.699 130.503 268.699C133.143 268.699 135.286 272.648 135.286 277.525C135.286 282.401 133.143 286.345 130.503 286.345C127.863 286.345 125.726 282.396 125.726 277.525Z" fill="#360B1E"/>
<path d="M162.713 280.914C160.616 280.914 158.971 278.109 158.971 274.532C158.971 270.955 160.616 268.15 162.713 268.15C164.81 268.15 166.45 270.955 166.45 274.532C166.45 278.109 164.81 280.914 162.713 280.914ZM162.713 268.952C161.119 268.952 159.771 271.504 159.771 274.532C159.771 277.56 161.119 280.107 162.713 280.107C164.308 280.107 165.65 277.554 165.65 274.532C165.65 271.51 164.308 268.952 162.713 268.952Z" fill="#BFAF91"/>
<path d="M131.138 283.267C129.178 283.267 127.646 280.657 127.646 277.326C127.646 273.995 129.178 271.385 131.138 271.385C133.097 271.385 134.629 273.995 134.629 277.326C134.629 280.657 133.092 283.267 131.138 283.267ZM131.138 272.192C129.68 272.192 128.446 274.544 128.446 277.326C128.446 280.107 129.68 282.46 131.138 282.46C132.595 282.46 133.829 280.107 133.829 277.326C133.829 274.544 132.595 272.192 131.138 272.192Z" fill="#BFAF91"/>
<path d="M128.537 56.5105C128.492 56.5105 128.44 56.5047 128.395 56.4818C128.189 56.4017 128.086 56.1728 128.16 55.961L130.743 49.1557C130.8 49.0069 130.937 48.9096 131.092 48.8981L134.697 48.6749L131.4 47.078C131.2 46.9807 131.114 46.7403 131.212 46.54C131.309 46.3397 131.549 46.2596 131.749 46.3511L136.423 48.6119C136.589 48.6921 136.674 48.8695 136.64 49.0527C136.606 49.2301 136.451 49.3675 136.269 49.3789L131.389 49.6823L128.897 56.2472C128.835 56.4074 128.686 56.5047 128.52 56.5047L128.537 56.5105Z" fill="#360B1E"/>
<path fill-rule="evenodd" clip-rule="evenodd" d="M106.338 155.655C106.338 155.655 98.3616 145.312 93.9389 149.112C87.9735 154.241 84.0708 182.698 83.7279 188.576C83.3851 194.449 106.338 155.655 106.338 155.655Z" fill="#FFDE5D"/>
<path d="M52.2037 218.373C52.1008 218.373 51.998 218.333 51.9237 218.258C51.7637 218.104 51.7637 217.846 51.9237 217.692C51.9351 217.68 52.9465 216.65 57.4321 212.008C58.7063 210.686 61.0376 208.374 63.7404 205.689C70.8772 198.609 80.6597 188.914 83.1053 185.491C83.7453 184.598 84.4595 180.231 85.288 175.183C86.6308 166.981 88.3108 156.776 91.0192 151.699C92.2992 149.307 93.9506 147.933 95.9276 147.613C99.5046 147.029 102.807 150.108 102.944 150.24C103.253 150.543 133.383 179.968 141.291 182C149.211 184.043 162.822 182.687 166.61 181.233C166.822 181.153 167.05 181.256 167.13 181.462C167.21 181.668 167.108 181.902 166.902 181.983C163.033 183.471 149.16 184.861 141.097 182.778C132.983 180.689 103.642 152.037 102.396 150.818C102.367 150.795 99.2418 147.887 96.059 148.402C94.3391 148.683 92.882 149.919 91.7278 152.077C89.0822 157.039 87.3451 167.599 86.0823 175.315C85.0766 181.445 84.4709 184.965 83.7567 185.96C81.2711 189.44 71.4658 199.165 64.3061 206.262C61.6033 208.94 59.272 211.253 58.0092 212.563C53.5179 217.217 52.5065 218.247 52.4951 218.258C52.4151 218.339 52.3123 218.379 52.2094 218.379L52.2037 218.373Z" fill="#360B1E"/>
<path d="M78.991 233.831C78.991 233.831 78.9625 233.831 78.951 233.831C78.7282 233.808 78.5682 233.613 78.591 233.39L83.5566 184.528C83.5794 184.305 83.7794 184.139 83.9965 184.167C84.2194 184.19 84.3794 184.385 84.3565 184.608L79.391 233.47C79.3682 233.676 79.1967 233.831 78.991 233.831Z" fill="#360B1E"/>
<path d="M157.348 67.4026C153.582 67.4026 148.108 65.2391 147.325 64.9185C147.12 64.8327 147.023 64.6037 147.103 64.3977C147.188 64.1916 147.423 64.0943 147.623 64.1745C150.291 65.2562 157.645 67.7002 159.651 66.0346C159.822 65.8915 160.074 65.9144 160.216 66.0861C160.359 66.2578 160.331 66.5097 160.165 66.6528C159.519 67.1908 158.514 67.3968 157.348 67.3968V67.4026Z" fill="#FFF0D3"/>
</g>
<defs>
<clipPath id="clip0_525_2344">
<rect width="225.271" height="300" fill="white" transform="translate(0 0.860352)"/>
</clipPath>
</defs>
</svg>
