<svg width="97" height="300" viewBox="0 0 97 300" fill="none" xmlns="http://www.w3.org/2000/svg">
<g clip-path="url(#clip0_525_2426)">
<path fill-rule="evenodd" clip-rule="evenodd" d="M39.4636 38.6114C39.2289 40.7879 28.868 60.8763 23.699 65.771C18.5301 70.6657 6.5858 78.9674 3.69064 82.8382C0.795472 86.7135 0.270752 90.7266 0.270752 90.7266L4.63421 92.6459C4.63421 92.6459 6.99085 86.5023 11.7778 82.2826C16.5647 78.0629 27.4411 70.5417 33.526 63.8563C39.6109 57.1709 39.6984 36.435 39.459 38.6114H39.4636Z" fill="#4B0C10"/>
<path fill-rule="evenodd" clip-rule="evenodd" d="M59.4491 3.34248C59.4491 3.34248 55.0304 0.881359 49.7141 6.97907C45.185 12.1768 36.2095 45.9025 31.8737 55.4807C27.5332 65.0588 6.38794 95.8642 6.38794 95.8642C6.38794 95.8642 73.4692 110.374 83.959 103.119C94.4488 95.8642 96.5845 69.5081 96.0506 55.7332C95.5166 41.9583 78.5231 -14.1333 59.4491 3.34248Z" fill="#4B0C10"/>
<path fill-rule="evenodd" clip-rule="evenodd" d="M35.137 61.06C35.137 61.06 32.1544 60.3162 31.5514 61.1932C30.9485 62.0702 34.2579 64.816 35.137 61.06Z" fill="#E5DFD2"/>
<path fill-rule="evenodd" clip-rule="evenodd" d="M44.2182 260.986C44.2182 260.986 41.5992 268.236 41.277 272.497C40.9548 276.758 41.7051 284.798 42.6533 287.149C43.5969 289.504 42.8236 293.366 43.7948 293.541C44.766 293.715 49.8567 293.632 49.8567 293.632C49.8567 293.632 53.364 284.082 54.4779 281.598C55.5918 279.114 55.5227 269.32 52.6045 264.356C49.6818 259.392 44.2182 260.986 44.2182 260.986Z" fill="#360B1E"/>
<path fill-rule="evenodd" clip-rule="evenodd" d="M42.9295 104.648C42.9295 104.648 31.7631 101.305 30.3408 97.7605C28.9185 94.2158 30.976 63.5849 35.0909 59.7922C38.0321 57.0877 85.8782 53.1986 88.5202 57.8821C91.2911 62.7905 91.2497 104.744 89.3211 106.567C87.3926 108.39 42.9295 104.643 42.9295 104.643V104.648Z" fill="#FFBBB4"/>
<path fill-rule="evenodd" clip-rule="evenodd" d="M57.0464 267.651C57.0464 267.651 49.2907 291.67 49.3966 293.934C49.5024 296.197 51.1042 299.678 51.1042 299.678C51.1042 299.678 57.0695 300.555 60.5492 299.398C64.0289 298.24 65.1198 296.684 65.0139 295.054C64.9126 293.424 65.4327 281.44 65.2486 279.869C65.0645 278.299 66.3809 274.639 65.3361 270.585C64.2959 266.526 57.0418 267.651 57.0418 267.651H57.0464Z" fill="#360B1E"/>
<path fill-rule="evenodd" clip-rule="evenodd" d="M58.7493 247.105C58.7493 247.105 59.3937 262.226 58.2016 264.37C57.0094 266.514 54.6804 278.37 54.6804 278.37C54.6804 278.37 63.2462 280.684 64.3325 278.558C65.4234 276.432 66.1506 264.568 66.0401 260.642C65.9297 256.72 58.7493 247.105 58.7493 247.105Z" fill="#F59494"/>
<path fill-rule="evenodd" clip-rule="evenodd" d="M58.3396 261.991L57.5894 266.941C57.5894 266.941 65.7225 266.867 65.9941 265.66C66.261 264.452 66.0953 261.266 66.0953 261.266L58.3396 261.996V261.991Z" fill="#C34C51"/>
<path fill-rule="evenodd" clip-rule="evenodd" d="M42.1516 250.322C42.1516 250.322 42.9755 269.332 45.774 271.113C48.5679 272.895 52.7657 269.827 53.5159 267.747C54.2616 265.672 50.8831 248.949 50.8831 248.949L42.1516 250.322Z" fill="#F59494"/>
<path fill-rule="evenodd" clip-rule="evenodd" d="M41.7651 252.518L42.7778 257.242C42.7778 257.242 51.2699 259.41 52.1905 256.352C53.1157 253.298 41.7651 252.518 41.7651 252.518Z" fill="#C34C51"/>
<path fill-rule="evenodd" clip-rule="evenodd" d="M41.8986 109.401L42.276 115.108L32.2649 131.124L28.4768 132.625C28.4768 132.625 30.0187 168.358 31.2477 173.248C32.4766 178.133 37.6548 191.605 37.6548 191.605C37.6548 191.605 36.6836 215.84 36.923 219.633C37.1623 223.421 38.1151 225.79 38.1151 225.79C38.1151 225.79 41.6316 222.81 42.6304 221.736C43.6338 220.666 40.863 227.269 39.7307 228.196C38.603 229.119 38.8055 230.974 39.1507 232.338C39.5005 233.701 40.0206 253.179 40.0206 253.179L52.9775 256.513L56.2179 250.332L57.2904 264.493C57.2904 264.493 68.5534 262.629 70.9055 262.574C73.2575 262.519 73.4554 258.657 73.4554 258.657C73.4554 258.657 68.3003 254.157 69.207 251.292C70.1138 248.431 74.8178 234.799 75.4254 232.554C76.0376 230.308 74.9559 229.973 76.9581 223.127C78.965 216.285 89.0727 164.873 90.4029 162.177C91.7331 159.482 88.4329 134.439 87.2776 131.753C86.1177 129.067 81.6484 115.939 81.6484 115.939L81.7819 108.377L41.9032 109.41L41.8986 109.401Z" fill="#FFDE5D"/>
<path fill-rule="evenodd" clip-rule="evenodd" d="M32.5409 130.646L28.2695 132.428C28.2695 132.428 32.5455 132.915 33.4753 132.625C34.4005 132.336 46.2849 124.76 46.2849 124.76L31.8183 132.033L32.5409 130.642V130.646Z" fill="#BA613C"/>
<path d="M31.8782 132.456C31.8229 132.456 31.7631 132.442 31.7079 132.405C31.556 132.313 31.5099 132.111 31.602 131.96L42.147 114.975V107.808C42.147 107.629 42.2897 107.486 42.4692 107.486C42.6487 107.486 42.7914 107.629 42.7914 107.808V115.067C42.7914 115.127 42.773 115.187 42.7408 115.237L32.1451 132.3C32.0853 132.396 31.9794 132.451 31.8689 132.451L31.8782 132.456Z" fill="#4B0C10"/>
<path fill-rule="evenodd" clip-rule="evenodd" d="M38.8008 210.887C38.8008 210.887 38.6627 225.35 38.253 227.215C37.8388 229.079 37.5166 230.915 38.2576 233.409C39.0033 235.897 40.8444 248.221 40.8444 248.221L40.8997 252.951C40.8997 252.951 47.4955 254.567 46.5381 253.304C45.5807 252.042 44.3011 246.807 43.086 244.36C41.8662 241.917 41.1068 232.555 41.5671 230.195C42.0227 227.83 48.8257 217.485 47.4356 218.674C46.0456 219.863 40.9503 224.574 40.7432 222.894C40.5314 221.213 38.8008 210.887 38.8008 210.887Z" fill="#FFDE5D"/>
<path d="M38.8976 193.341C38.7871 193.341 38.6766 193.286 38.6168 193.18C36.8631 190.186 31.3444 175.052 30.8289 172.21C30.3318 169.478 28.2053 134.008 28.1178 132.501C28.1132 132.405 28.15 132.313 28.2191 132.249C28.2881 132.185 28.3848 132.153 28.4768 132.162C28.5045 132.162 31.3076 132.492 32.8771 132.299C34.014 132.162 42.161 127.024 47.3575 123.603C47.5048 123.506 47.7073 123.548 47.804 123.695C47.9007 123.842 47.8592 124.044 47.712 124.14C46.3771 125.017 34.6078 132.736 32.9554 132.938C31.6482 133.098 29.6229 132.924 28.7852 132.841C29.02 136.767 30.9992 169.547 31.4641 172.091C31.9566 174.781 37.4845 189.966 39.1737 192.854C39.2658 193.01 39.2106 193.203 39.0587 193.295C39.008 193.322 38.9528 193.341 38.8976 193.341Z" fill="#4B0C10"/>
<path d="M51.0765 256.585C48.4668 256.585 40.8031 253.624 39.8595 253.256C39.7214 253.201 39.6386 253.068 39.657 252.921C39.657 252.88 40.0666 248.94 39.8227 246.837C39.5741 244.693 38.6904 229.908 38.6536 229.279C38.649 229.196 38.6766 229.118 38.7272 229.054C40.5407 226.896 44.8489 221.698 46.3909 219.572C45.6268 220.114 44.4991 220.991 43.5279 221.744C41.1023 223.631 39.4637 224.88 38.8239 225.077C38.6996 225.114 38.5661 225.091 38.4603 225.013C37.1761 224.067 37.1347 198.055 37.1531 190.103C37.1531 189.924 37.3004 189.781 37.4753 189.781C37.6548 189.781 37.7975 189.928 37.7975 190.103C37.7698 202.468 38.0184 222.29 38.8009 224.384C39.5557 224.003 41.5211 222.478 43.1275 221.229C46.7775 218.392 47.0997 218.227 47.4311 218.484C47.4864 218.525 47.6567 218.686 47.5232 218.993C47.0307 220.132 40.4118 228.048 39.3072 229.366C39.3946 230.854 40.2323 244.739 40.4625 246.759C40.6834 248.646 40.4072 251.828 40.3244 252.737C44.1677 254.225 50.3953 256.333 51.4356 255.896C52.6645 255.382 55.3618 251.842 56.2961 250.52C56.3974 250.373 56.5999 250.341 56.7472 250.442C56.8945 250.543 56.9267 250.745 56.8254 250.891C56.6828 251.094 53.3365 255.795 51.6841 256.489C51.5368 256.548 51.3297 256.581 51.0719 256.581L51.0765 256.585Z" fill="#4B0C10"/>
<path d="M63.748 116.344C62.0725 116.344 60.4385 116.298 58.9472 116.178C50.989 115.554 42.6165 114.718 42.529 114.709C42.3495 114.691 42.2206 114.535 42.2391 114.355C42.2575 114.176 42.414 114.048 42.5935 114.066C42.6763 114.075 51.0442 114.911 58.9979 115.536C66.9239 116.155 78.9418 114.805 79.0615 114.792C79.241 114.773 79.3975 114.897 79.4205 115.076C79.4389 115.255 79.3146 115.412 79.1351 115.435C79.0385 115.444 71.0296 116.348 63.748 116.348V116.344Z" fill="#4B0C10"/>
<path d="M68.9906 193.01C67.7294 193.01 66.8641 192.84 66.8411 192.831C66.6662 192.794 66.5557 192.624 66.5925 192.45C66.6293 192.275 66.8043 192.165 66.9746 192.202C67.039 192.216 73.1929 193.433 76.5852 189.066C76.6957 188.924 76.8982 188.901 77.0363 189.011C77.179 189.121 77.202 189.323 77.0961 189.461C74.7625 192.464 71.2414 193.01 68.9906 193.01Z" fill="#4B0C10"/>
<path fill-rule="evenodd" clip-rule="evenodd" d="M33.7378 62.198C33.7378 62.198 48.1722 68.0569 54.745 67.5151C61.3224 66.9779 84.8703 60.3154 84.8703 60.3154C84.8703 60.3154 96.5431 71.8634 88.2304 75.1097C84.3594 76.6204 82.8175 78.9162 79.8533 78.8703C69.8882 78.7142 57.3548 73.1445 55.1592 73.0481C49.1158 72.7818 34.2257 63.975 33.7378 62.2026V62.198Z" fill="#C34C51"/>
<path d="M60.6228 264.272C60.5307 264.272 60.4433 264.272 60.365 264.263C60.1855 264.254 60.052 264.102 60.0612 263.923C60.0704 263.744 60.2315 263.611 60.4018 263.62C62.869 263.767 71.1908 261.673 72.4152 259.772C73.101 258.707 72.3875 257.715 71.1586 256.191C70.5004 255.373 69.8192 254.524 69.4233 253.564C68.3693 251.011 74.2839 238.123 75.048 236.483C75.2965 235.239 81.1789 205.435 83.4849 188.037C84.5942 179.666 86.288 171.268 87.6458 164.518C89.22 156.699 90.4674 150.523 90.1544 147.897C89.5698 142.951 81.5011 115.397 81.4183 115.121C81.3676 114.952 81.4643 114.773 81.6392 114.722C81.8141 114.672 81.989 114.773 82.0396 114.942C82.371 116.077 90.205 142.828 90.7988 147.823C91.121 150.555 89.8644 156.772 88.281 164.647C86.9232 171.388 85.234 179.777 84.1293 188.124C81.7819 205.825 75.7384 236.341 75.6786 236.649C75.674 236.676 75.6647 236.699 75.6555 236.722C73.8144 240.676 69.2208 251.37 70.0263 253.326C70.3853 254.198 71.0389 255.011 71.6695 255.796C72.7834 257.183 73.9387 258.62 72.9629 260.13C71.559 262.316 63.3338 264.277 60.6274 264.277L60.6228 264.272Z" fill="#4B0C10"/>
<path fill-rule="evenodd" clip-rule="evenodd" d="M42.4416 83.1596C42.4416 83.1596 38.8376 82.9025 37.9262 83.5086C37.0103 84.1147 33.3787 86.4978 33.3787 86.4978C33.3787 86.4978 34.5432 89.0324 35.4821 89.1747C36.4211 89.3171 38.1288 89.4869 38.1288 89.4869C38.1288 89.4869 35.9148 90.791 35.2612 91.5073C34.6076 92.2236 36.3935 92.5128 36.3935 92.5128L34.0553 95.3229C34.0553 95.3229 41.9951 93.6148 42.8466 93.7618C43.6981 93.9087 42.4416 83.1642 42.4416 83.1642V83.1596Z" fill="#F59494"/>
<path fill-rule="evenodd" clip-rule="evenodd" d="M31.5514 61.1425C31.5514 61.1425 33.0335 61.8725 35.3119 62.8689C40.4901 65.1372 49.7601 68.783 54.9383 68.3468C68.0931 67.2402 88.3178 58.1487 89.5375 59.2553C90.7527 60.3619 92.3268 73.292 92.3268 73.292L80.4286 77.1581C80.4286 77.1581 79.3331 86.571 79.9959 94.4687C80.6541 102.27 83.0706 108.556 82.3664 108.808C80.9533 109.323 42.5982 114.075 41.5855 110.608C40.5729 107.142 42.5567 81.5248 42.5567 81.5248L28.1177 73.9715C28.1177 73.9715 25.2272 67.6351 31.556 61.1425H31.5514Z" fill="white"/>
<path fill-rule="evenodd" clip-rule="evenodd" d="M56.5125 37.9133C56.5125 37.9133 57.7967 50.4163 56.4435 53.4698C55.0948 56.5232 51.0352 58.3002 51.0352 58.3002L72.2541 57.4461C72.2541 57.4461 69.3221 52.3494 69.6949 46.8027C69.8606 44.3783 71.0435 32.2334 71.0435 32.2334L56.5171 37.9179L56.5125 37.9133Z" fill="#FFBBB4"/>
<path fill-rule="evenodd" clip-rule="evenodd" d="M56.5952 40.8745L57.0831 50.4986C57.0831 50.4986 63.1818 51.1689 67.0528 46.0033C71.2413 40.4107 70.6936 34.8135 70.6936 34.8135L56.5952 40.8745Z" fill="#C34C51"/>
<path fill-rule="evenodd" clip-rule="evenodd" d="M48.9363 26.1954C48.9363 26.1954 49.2631 39.3688 52.7152 43.6942C56.1673 48.0195 61.5848 47.8312 64.0565 45.9487C66.5328 44.0615 70.795 37.4587 71.4302 35.4843C72.0654 33.5099 72.6223 29.4463 72.6223 29.4463C72.6223 29.4463 73.5797 33.4685 75.5497 31.2921C77.5197 29.1111 78.9512 23.5827 77.0962 23.1557C75.2459 22.7287 72.0838 25.6582 72.0838 25.6582C72.0838 25.6582 68.1714 22.9858 66.9424 20.7313C65.7135 18.4722 61.0923 14.6152 61.0923 14.6152C61.0923 14.6152 54.3906 25.6306 48.9363 26.2V26.1954Z" fill="#FFBBB4"/>
<path fill-rule="evenodd" clip-rule="evenodd" d="M73.0917 27.1778L72.8247 29.0328C72.8247 29.0328 77.3447 27.7058 77.0271 26.4707C76.7141 25.2355 75.7751 24.3907 73.0871 27.1778H73.0917Z" fill="#F59494"/>
<path fill-rule="evenodd" clip-rule="evenodd" d="M73.0088 27.7611L73.133 26.6958C73.133 26.6958 74.4817 25.2494 75.8533 24.9005C77.2295 24.5469 77.0178 26.5902 77.0178 26.5902C77.0178 26.5902 76.8245 25.075 75.6231 25.4974C74.4264 25.9198 73.0042 27.7657 73.0042 27.7657L73.0088 27.7611Z" fill="#C34C51"/>
<path fill-rule="evenodd" clip-rule="evenodd" d="M71.605 105.741C71.605 105.741 73.0365 111.403 73.5336 110.516C74.0307 109.63 73.7959 105.966 74.8868 106.696C75.9776 107.426 76.8384 109.952 77.3401 111.063C77.7681 112.009 78.6841 111.637 78.6841 111.637C78.6841 111.637 79.2963 112.918 79.4666 112.436C79.6369 111.954 80.0327 107.913 79.6323 107.334C79.2318 106.751 72.4519 102.32 71.6096 105.741H71.605Z" fill="#C34C51"/>
<path fill-rule="evenodd" clip-rule="evenodd" d="M64.8067 34.153C63.9368 33.0005 64.9079 30.8011 66.9746 29.2445C69.0413 27.688 71.4255 27.3574 72.3001 28.5099C73.1746 29.6624 72.2034 31.8618 70.1367 33.4183C68.0655 34.9749 65.6812 35.3055 64.8067 34.153Z" fill="#F59494"/>
<path fill-rule="evenodd" clip-rule="evenodd" d="M50.2663 28.3029C49.8152 28.3029 49.4148 28.3901 49.0696 28.5325C49.1478 29.7263 49.2859 31.2967 49.4976 32.9818C49.8475 33.2986 50.2387 33.6017 50.6898 33.8634C52.8393 35.1261 55.1959 35.1123 55.9462 33.8358C56.4893 32.9129 56.0474 31.5859 54.952 30.4426C54.7356 30.2176 57.1291 30.0248 57.7321 28.9641C58.3028 27.9631 57.0877 26.0897 56.7977 25.9198C56.2407 25.5938 54.5561 23.5965 53.1339 24.2944C52.5033 24.6066 53.6724 25.479 53.1937 26.356C52.6598 27.3295 50.5103 28.2983 50.2663 28.2983V28.3029Z" fill="#F59494"/>
<path fill-rule="evenodd" clip-rule="evenodd" d="M83.5353 97.3572C83.5353 97.3572 59.0807 96.944 55.9876 97.3388C52.8991 97.7291 45.4011 98.6199 45.4011 98.6199C45.4011 98.6199 59.8585 107.289 64.3739 107.583C68.8892 107.877 88.8976 109.741 89.2566 106.311C89.611 102.881 83.5353 97.3572 83.5353 97.3572Z" fill="#FFBBB4"/>
<path fill-rule="evenodd" clip-rule="evenodd" d="M30.2027 95.8457C30.2027 95.8457 60.7009 89.5643 64.7421 89.6057C68.788 89.647 74.7578 91.6535 76.2722 93.6326C77.7865 95.6116 78.5874 100.042 78.5874 100.042C78.5874 100.042 67.8951 101.057 58.9978 102.674C45.8338 105.066 32.6054 108.312 31.3028 107.802C29.121 106.953 30.2027 95.8503 30.2027 95.8503V95.8457Z" fill="#FFBBB4"/>
<path fill-rule="evenodd" clip-rule="evenodd" d="M52.1535 91.6404C51.7162 91.3328 42.9249 83.9035 42.3864 83.8759C41.8432 83.8484 39.0079 83.8759 38.1103 84.1055C37.2082 84.3351 33.8574 86.135 34.0139 86.8835C34.1703 87.6273 36.283 87.8844 37.0517 87.9901C37.825 88.0911 39.9377 87.2692 39.9377 87.2692L41.7926 87.9395C41.7926 87.9395 39.1644 89.0461 38.3957 89.5834C37.6225 90.1252 35.0449 90.791 35.3763 91.2777C35.7123 91.7644 36.9504 91.8195 38.0321 91.8424C39.1138 91.87 40.9963 91.2501 40.9963 91.2501C40.9963 91.2501 36.4856 94.4872 36.8722 94.7444C37.2588 95.0015 46.0686 94.6663 46.0686 94.6663C46.0686 94.6663 52.5908 91.9435 52.1535 91.6312V91.6404Z" fill="#FFBBB4"/>
<path d="M47.4358 91.1675C47.3759 91.1675 47.3161 91.1491 47.2608 91.1169C47.0997 91.0113 43.307 88.5364 42.6396 88.0773C42.5246 87.9992 41.9354 87.8569 39.1599 89.4318L39.1185 89.4548C38.336 89.8956 35.5881 90.9976 35.4685 91.0435C35.3028 91.1078 35.114 91.0297 35.0496 90.8644C34.9852 90.6991 35.0634 90.5108 35.2291 90.4466C35.2567 90.4374 38.0552 89.317 38.7963 88.8992L38.8377 88.8762C41.1805 87.5492 42.4233 87.1543 43.0033 87.5538C43.6615 88.0084 47.5692 90.5568 47.6107 90.5843C47.7579 90.6807 47.7994 90.8828 47.7027 91.0297C47.6429 91.1261 47.537 91.1766 47.4311 91.1766L47.4358 91.1675Z" fill="#C34C51"/>
<path d="M51.5091 91.1401C51.44 91.1401 51.3756 91.1172 51.3158 91.0758C50.5471 90.4973 48.8487 89.1565 47.2101 87.8617C45.2032 86.273 42.9248 84.473 42.6395 84.3123C42.2068 84.0644 38.6673 83.9817 38.2116 84.3123C37.6823 84.7348 34.0737 86.8469 33.9218 86.9342C33.7699 87.026 33.5673 86.9709 33.4799 86.8194C33.3878 86.6678 33.4431 86.4704 33.595 86.3786C34.6306 85.7725 37.4015 84.1333 37.8065 83.8072C38.4693 83.2746 42.3771 83.4215 42.9617 83.7521C43.2655 83.9266 44.9225 85.2307 47.6105 87.3566C49.2491 88.6514 50.9383 89.9876 51.7024 90.5616C51.8451 90.6672 51.8727 90.8692 51.7668 91.0115C51.7024 91.0942 51.6057 91.1401 51.5091 91.1401Z" fill="#C34C51"/>
<path d="M78.0719 97.1592C77.9062 97.1592 77.7681 97.0352 77.7497 96.8699C77.7497 96.8607 77.5518 95.4832 75.011 92.8017C72.5025 90.1523 59.8632 90.1799 55.6838 91.0202C51.8451 91.7915 41.5348 92.4987 41.4336 92.5033C41.2679 92.517 41.1022 92.3793 41.0884 92.2048C41.0745 92.0257 41.2126 91.8742 41.3875 91.8604C41.4888 91.8512 51.7577 91.1533 55.555 90.3865C59.3385 89.6289 72.6452 89.3672 75.4759 92.3563C78.21 95.2353 78.3849 96.7414 78.3895 96.801C78.4079 96.9801 78.2744 97.1362 78.0995 97.1546C78.0903 97.1546 78.0765 97.1546 78.0673 97.1546L78.0719 97.1592Z" fill="#C34C51"/>
<path d="M33.2268 108.22C32.7205 108.22 32.3569 108.17 32.1681 108.064C32.0163 107.977 31.961 107.779 32.0485 107.623C32.1359 107.467 32.3338 107.417 32.4903 107.504C33.839 108.284 52.1121 104.239 56.3329 102.233C60.1164 100.428 68.9814 96.7962 69.0734 96.7594C69.2391 96.6905 69.4278 96.7686 69.4969 96.9339C69.5659 97.0992 69.4831 97.2875 69.322 97.3563C69.2345 97.3931 60.3833 101.02 56.6136 102.816C53.3779 104.354 37.7099 108.225 33.2268 108.225V108.22Z" fill="#C34C51"/>
<path d="M71.6373 25.9753C71.2046 25.9753 70.6016 25.8605 69.8928 25.4243C68.6684 24.6666 64.5397 21.1724 63.8953 18.5965C63.32 16.3007 61.35 14.2298 61.327 14.2069C61.2027 14.0783 61.2073 13.8763 61.3362 13.7523C61.4651 13.6283 61.6676 13.6329 61.7919 13.7615C61.8793 13.8487 63.8999 15.9792 64.5167 18.4404C65.0737 20.6673 68.8203 24.0054 70.2288 24.8779C71.3427 25.5666 72.0653 25.2773 72.0929 25.2636C72.2586 25.1947 72.4474 25.2681 72.5164 25.4289C72.59 25.5896 72.5164 25.7778 72.3553 25.8513C72.3323 25.8605 72.0699 25.9753 71.6326 25.9753H71.6373Z" fill="#4B0C10"/>
<path fill-rule="evenodd" clip-rule="evenodd" d="M66.3532 27.2101C66.3532 27.2101 63.2417 28.6518 63.3659 29.3636C63.4902 30.0753 64.2589 29.9191 64.5627 29.9329C64.7007 29.9375 66.4222 29.8686 68.0378 29.4921C69.8743 29.0651 71.6188 28.3075 71.4346 27.9264C71.094 27.2101 67.1402 26.8152 66.3532 27.2101Z" fill="white"/>
<path fill-rule="evenodd" clip-rule="evenodd" d="M61.4375 26.8841C61.4375 26.8841 61.9668 28.0779 62.4225 27.7427C62.8828 27.4075 63.7849 26.3744 65.9989 25.3275C68.2174 24.276 72.1068 24.3495 72.1068 24.3495C72.1068 24.3495 69.4142 23.2475 68.0195 23.4495C66.6249 23.6516 63.1313 24.6158 61.4375 26.8887V26.8841Z" fill="#4B0C10"/>
<path fill-rule="evenodd" clip-rule="evenodd" d="M64.2727 29.9469C64.2727 29.9469 62.8873 30.1122 62.8459 29.6393C62.8044 29.1709 63.9045 27.8623 65.3774 27.2929C66.8503 26.7282 68.1575 26.4067 69.3404 26.6363C70.5187 26.8659 71.5682 27.8944 71.5682 27.8944C71.5682 27.8944 69.9572 27.3802 69.7547 27.4215C69.5475 27.4628 68.8617 29.4326 67.6512 29.4464C66.436 29.4602 65.5661 27.8072 65.5661 27.8072C65.5661 27.8072 64.2497 28.5097 63.8032 28.8908C63.3568 29.2673 63.4304 29.6347 64.2727 29.9423V29.9469Z" fill="#4B0C10"/>
<path fill-rule="evenodd" clip-rule="evenodd" d="M68.6638 28.4173C68.6638 28.1556 68.8756 27.9443 69.1425 27.9443C69.4095 27.9443 69.6166 28.1556 69.6166 28.4173C69.6166 28.679 69.4049 28.8902 69.1425 28.8902C68.8802 28.8902 68.6638 28.679 68.6638 28.4173Z" fill="white"/>
<path fill-rule="evenodd" clip-rule="evenodd" d="M57.0188 36.2598C57.0188 35.5114 57.7414 34.9053 58.6344 34.9053C59.5273 34.9053 60.25 35.5114 60.25 36.2598C60.25 37.0083 59.5273 37.6143 58.6344 37.6143C57.7414 37.6143 57.0188 37.0083 57.0188 36.2598Z" fill="#F59494"/>
<path fill-rule="evenodd" clip-rule="evenodd" d="M59.2004 42.4403C59.2004 42.4403 59.4398 40.3281 60.5905 39.7587C61.7366 39.1894 63.9597 39.1113 63.9597 39.1113C63.9597 39.1113 63.4856 41.8939 62.5006 42.4632C61.5156 43.0326 59.2004 42.4403 59.2004 42.4403Z" fill="#F59494"/>
<path fill-rule="evenodd" clip-rule="evenodd" d="M59.2097 41.8161C59.2097 41.8161 61.0002 41.4488 61.8379 40.9391C62.671 40.434 63.6882 39.1162 63.6882 39.1162C63.6882 39.1162 61.5249 39.231 60.6504 39.7039C59.7759 40.1815 59.2097 41.8115 59.2097 41.8115V41.8161Z" fill="#C34C51"/>
<path fill-rule="evenodd" clip-rule="evenodd" d="M56.6046 29.2262C56.6046 29.2262 55.8037 30.1446 54.2618 30.3007C52.7244 30.4568 49.1711 29.263 49.0974 28.9599C49.0284 28.6615 48.9409 27.7707 48.9409 27.7707C48.9409 27.7707 53.0604 27.3666 53.5161 27.6192C53.8199 27.7891 55.615 28.0875 56.4251 28.5054C56.8255 28.712 56.6 29.2217 56.6 29.2217L56.6046 29.2262Z" fill="#DDDAD4"/>
<path fill-rule="evenodd" clip-rule="evenodd" d="M53.5575 30.1306C53.5575 30.1306 55.2973 30.328 55.6978 28.7622C55.8313 28.6934 56.3836 28.8036 56.5493 29.0102C56.761 29.2719 56.5861 29.6484 56.7012 29.6025C57.2351 29.3821 57.631 29.125 57.4468 28.8954C56.9912 28.3168 55.6195 27.0725 53.6127 26.8934C51.6013 26.719 48.3701 27.1873 48.3701 27.1873L48.6141 27.8852L51.5507 27.6878C51.5507 27.6878 51.6703 29.6301 53.5529 30.126L53.5575 30.1306Z" fill="#4B0C10"/>
<path fill-rule="evenodd" clip-rule="evenodd" d="M57.5021 25.465C57.5021 25.465 57.3502 26.6956 56.7334 26.5808C56.1212 26.4614 55.0764 25.4742 53.6357 25.3089C52.1904 25.1436 49.9351 25.1161 49.9351 25.1161C49.9351 25.1161 51.9833 24.1564 52.6277 24.0921C53.2721 24.0279 57.2029 24.5605 57.5021 25.4696V25.465Z" fill="#4B0C10"/>
<path fill-rule="evenodd" clip-rule="evenodd" d="M54.6482 29.602C54.6482 29.3081 54.8875 29.0693 55.1821 29.0693C55.4767 29.0693 55.716 29.3081 55.716 29.602C55.716 29.8958 55.4767 30.1346 55.1821 30.1346C54.8875 30.1346 54.6482 29.8958 54.6482 29.602Z" fill="#DDDAD4"/>
<path d="M45.3783 80.1835C41.4153 80.1835 33.2637 75.9271 32.9093 75.7434C32.7528 75.6608 32.693 75.4679 32.7758 75.3072C32.8587 75.1511 33.052 75.0868 33.2131 75.174C33.2959 75.22 41.8433 79.6647 45.544 79.5361C47.0537 79.481 48.7982 79.2698 50.4874 79.0678C53.0926 78.7555 55.7898 78.4295 57.8013 78.6499C61.0646 79.0035 66.0863 79.2927 69.5108 78.9438L70.4406 78.8519C73.6671 78.5305 77.6854 78.1311 79.6784 77.2265C81.6898 76.3128 90.2556 72.892 92.2624 73.3236C92.4374 73.3603 92.5478 73.5348 92.511 73.7047C92.4742 73.8792 92.3039 73.9894 92.129 73.9527C90.5088 73.6037 82.7623 76.5332 79.95 77.8096C77.8557 78.7601 73.9525 79.1458 70.5096 79.4902L69.5798 79.582C66.1093 79.9356 61.0324 79.6417 57.7368 79.2882C55.799 79.0769 53.1386 79.3984 50.5703 79.706C48.8718 79.908 47.1136 80.1238 45.5762 80.1789C45.5164 80.1789 45.4519 80.1789 45.3875 80.1789L45.3783 80.1835Z" fill="#4B0C10"/>
<path d="M70.7076 67.3043C70.5096 67.3043 70.3669 67.1574 70.3669 66.9783C70.3669 66.7992 70.5142 66.6569 70.6891 66.6569C73.2207 66.6569 84.1569 62.5979 86.3295 61.0688C88.7367 59.3791 92.1014 60.4306 92.2441 60.4765C92.4144 60.5316 92.5064 60.7107 92.4512 60.8806C92.396 61.0505 92.2165 61.1423 92.0462 61.0872C92.0139 61.078 88.8426 60.0908 86.6977 61.5969C84.3871 63.2223 73.3404 67.2997 70.6983 67.2997L70.7076 67.3043Z" fill="#4B0C10"/>
<path d="M71.2827 68.5719C71.0848 68.5719 70.9421 68.425 70.9421 68.2459C70.9421 68.0668 71.0894 67.9245 71.2643 67.9245C73.8557 67.9245 84.6493 63.9297 86.9093 62.3364C89.3165 60.6467 92.6812 61.6982 92.8239 61.7441C92.9942 61.7992 93.0862 61.9783 93.031 62.1482C92.9758 62.3181 92.7963 62.4099 92.6259 62.3548C92.5937 62.3456 89.4224 61.3584 87.2821 62.8645C84.9715 64.4899 73.9248 68.5673 71.2827 68.5673V68.5719Z" fill="#4B0C10"/>
<path d="M71.5774 69.7245C71.3795 69.7245 71.2368 69.5776 71.2368 69.3985C71.2368 69.2194 71.3795 69.0955 71.5636 69.0771C74.0906 69.0771 85.0314 65.0181 87.2085 63.4936C89.6112 61.8039 92.9805 62.8554 93.1231 62.9013C93.2935 62.9564 93.3855 63.1355 93.3303 63.3054C93.275 63.4753 93.0955 63.5671 92.9252 63.512C92.893 63.5028 89.7217 62.5156 87.5814 64.0171C85.2708 65.6425 74.2194 69.7199 71.582 69.7199L71.5774 69.7245Z" fill="#4B0C10"/>
<path d="M72.0054 70.8629C71.8075 70.8629 71.6648 70.716 71.6648 70.5369C71.6648 70.3578 71.8121 70.2155 71.987 70.2155C74.5185 70.2155 85.4594 66.1565 87.6319 64.6274C90.0346 62.9377 93.4038 63.9892 93.5465 64.0351C93.7168 64.0902 93.8089 64.2693 93.7537 64.4392C93.6984 64.6091 93.5189 64.7009 93.3486 64.6458C93.3164 64.6366 90.1451 63.6494 88.0047 65.1555C85.6941 66.7809 74.6474 70.8583 72.0054 70.8583V70.8629Z" fill="#4B0C10"/>
<path fill-rule="evenodd" clip-rule="evenodd" d="M54.7542 147.525C54.7542 147.525 59.1406 162.076 58.8691 168.904C58.5929 175.732 54.6575 188.726 55.891 195.007C57.1246 201.289 55.891 206.473 56.3007 211.799C56.7149 217.125 56.7149 238.963 56.7149 238.963L59.5871 197.735C59.5871 197.735 59.4214 186.393 59.4536 180.805C59.4812 175.217 62.8781 151.483 62.8781 151.483L54.7588 147.521L54.7542 147.525Z" fill="#FFDE5D"/>
<path d="M72.3921 72.3502C72.1942 72.3502 72.0515 72.2033 72.0515 72.0242C72.0515 71.8451 72.185 71.7166 72.3783 71.7028C74.9651 71.7028 85.7587 67.708 88.0232 66.1147C90.4259 64.425 93.7952 65.4765 93.9378 65.5224C94.1081 65.5775 94.2002 65.7566 94.145 65.9265C94.0897 66.0964 93.9102 66.1882 93.7399 66.1331C93.7077 66.1239 90.5364 65.1367 88.3961 66.6428C86.0855 68.2682 75.0387 72.3456 72.3967 72.3456L72.3921 72.3502Z" fill="#4B0C10"/>
<path d="M72.2908 73.8065C72.0929 73.8065 71.9502 73.6596 71.9502 73.4805C71.9502 73.3015 72.0975 73.1591 72.2724 73.1591C74.8638 73.1591 85.6573 69.1644 87.9173 67.5757C90.32 65.8859 93.6892 66.9374 93.8319 66.9834C94.0022 67.0385 94.0943 67.2175 94.0391 67.3874C93.9838 67.5573 93.8043 67.6491 93.634 67.594C93.6018 67.5849 90.4305 66.5977 88.2901 68.0991C85.9795 69.7246 74.9328 73.802 72.2908 73.802V73.8065Z" fill="#4B0C10"/>
<path d="M72.6775 75.2984C72.4796 75.2984 72.3369 75.1515 72.3369 74.9724C72.3369 74.7934 72.4842 74.651 72.6591 74.651C75.1907 74.651 86.1315 70.592 88.304 69.063C90.7067 67.3733 94.076 68.4247 94.2186 68.4707C94.3889 68.5258 94.481 68.7048 94.4258 68.8747C94.3705 69.0446 94.191 69.1364 94.0207 69.0813C93.9885 69.0722 90.8172 68.085 88.6769 69.591C86.3663 71.2165 75.3195 75.2938 72.6775 75.2938V75.2984Z" fill="#4B0C10"/>
<path d="M72.8616 76.869C72.6637 76.869 72.521 76.7221 72.521 76.543C72.521 76.364 72.6683 76.2216 72.8432 76.2216C75.4346 76.2216 86.2281 72.2269 88.4881 70.6382C90.8908 68.9484 94.26 69.9999 94.4027 70.0459C94.573 70.101 94.6651 70.28 94.6099 70.4499C94.5546 70.6198 94.3751 70.7116 94.2048 70.6565C94.1726 70.6474 91.0013 69.6602 88.8609 71.1662C86.5503 72.7917 75.5036 76.869 72.8616 76.869Z" fill="#4B0C10"/>
<path d="M73.46 78.412C73.2621 78.412 73.1194 78.2651 73.1194 78.086C73.1194 77.9069 73.2529 77.7692 73.4462 77.7646C76.0376 77.7646 86.8265 73.7699 89.0911 72.1811C91.4938 70.4914 94.863 71.5429 95.0057 71.5888C95.176 71.6439 95.2681 71.823 95.2128 71.9929C95.1576 72.1628 94.9781 72.2546 94.8078 72.1995C94.7756 72.1903 91.6042 71.2031 89.4639 72.7092C87.1533 74.3346 76.1066 78.412 73.4646 78.412H73.46Z" fill="#4B0C10"/>
<path fill-rule="evenodd" clip-rule="evenodd" d="M71.9824 40.8386C71.9824 39.4152 73.1377 38.2627 74.5646 38.2627C75.9915 38.2627 77.1422 39.4152 77.1422 40.8386C77.1422 42.262 75.9869 43.4099 74.5646 43.4099C73.1423 43.4099 71.9824 42.2574 71.9824 40.8386Z" fill="white"/>
<path fill-rule="evenodd" clip-rule="evenodd" d="M73.9065 30.9016C73.9065 30.571 74.1735 30.3047 74.5049 30.3047C74.8363 30.3047 75.1078 30.571 75.1078 30.9016C75.1078 31.2322 74.8409 31.4985 74.5049 31.4985C74.1689 31.4985 73.9065 31.2322 73.9065 30.9016Z" fill="#C34C51"/>
<path d="M74.293 39.6491C74.1043 39.6445 73.9662 39.4975 73.9708 39.3185C73.9938 38.5103 74.0905 30.9984 74.0951 30.9203C74.0951 30.7459 74.2424 30.6035 74.4173 30.6035C74.6014 30.6035 74.7441 30.7504 74.7395 30.9295C74.7395 31.0076 74.6382 38.5241 74.6152 39.3368C74.6106 39.5113 74.4679 39.6491 74.293 39.6491Z" fill="white"/>
<path d="M4.53761 84.0916C4.49618 84.0916 4.45936 84.0824 4.42254 84.0686C4.25684 84.0043 4.17399 83.8161 4.23842 83.6508C4.79536 82.2136 7.76877 79.3484 11.8837 75.3812C18.2263 69.2605 26.9164 60.8808 30.387 53.8647C33.48 47.6109 36.8861 37.7572 40.1771 28.225C41.1575 25.3873 42.0827 22.7058 42.9894 20.1529C46.4599 10.3818 55.5597 4.22902 58.6758 3.75608C59.2419 3.66884 59.6332 3.76986 59.8449 4.04536C59.9508 4.1877 59.9231 4.38973 59.7805 4.49534C59.6378 4.60094 59.4352 4.57339 59.3294 4.43105C59.3064 4.39891 59.1591 4.33463 58.7724 4.38973C55.7668 4.84889 46.9801 10.8318 43.597 20.3641C42.6902 22.917 41.7651 25.594 40.7847 28.4316C37.4845 37.9822 34.0738 47.8589 30.9623 54.1448C27.4412 61.2619 18.705 69.6876 12.3256 75.8358C8.57887 79.4494 5.3431 82.5717 4.83679 83.8758C4.78616 84.0043 4.66649 84.0824 4.53761 84.0824V84.0916Z" fill="#4B0C10"/>
<path d="M62.5928 151.694C62.5467 151.694 62.4961 151.685 62.4547 151.662L54.5563 147.906C54.3952 147.828 54.3261 147.635 54.4044 147.475C54.4826 147.314 54.6759 147.245 54.837 147.323L62.5559 150.992L68.6224 146.244C68.7605 146.134 68.9676 146.157 69.0781 146.299C69.1886 146.442 69.1656 146.644 69.0229 146.754L62.7999 151.626C62.7447 151.672 62.671 151.694 62.602 151.694H62.5928Z" fill="#4B0C10"/>
<path d="M57.6908 263.689C57.5343 263.689 57.3916 263.574 57.3732 263.409L55.6748 251.204C55.6748 251.204 55.6748 251.163 55.6748 251.145C55.6886 250.906 56.9452 227.048 57.5804 221.432C58.1879 216.037 59.3663 196.825 59.0302 185.383C58.7034 174.216 62.5836 151.35 62.6204 151.116C62.6527 150.941 62.8138 150.822 62.9933 150.854C63.1682 150.881 63.2878 151.051 63.2556 151.226C63.2188 151.455 59.3478 174.262 59.6746 185.365C60.0152 196.835 58.8323 216.097 58.2202 221.506C57.5988 227.011 56.3744 250.162 56.3192 251.149L58.013 263.326C58.036 263.501 57.9164 263.666 57.7369 263.689C57.7231 263.689 57.7046 263.689 57.6908 263.689Z" fill="#4B0C10"/>
</g>
<defs>
<clipPath id="clip0_525_2426">
<rect width="95.858" height="300" fill="white" transform="translate(0.270752)"/>
</clipPath>
</defs>
</svg>
