<svg width="50" height="50" viewBox="0 0 50 50" fill="none" xmlns="http://www.w3.org/2000/svg">
<path d="M49.4184 24.684C49.4184 38.1267 38.5159 49.0292 25.0732 49.0292C11.6305 49.0292 0.728027 38.1267 0.728027 24.684C0.728027 11.2414 11.6305 0.338867 25.0732 0.338867C38.5159 0.338867 49.4184 11.2414 49.4184 24.684Z" fill="#ED6E76"/>
<path d="M25.1297 0.693503C11.9047 0.693503 1.13931 11.4589 1.13931 24.6839C1.13931 37.9088 11.9047 48.6742 25.1297 48.6742C38.3546 48.6742 49.12 37.9088 49.12 24.6839C49.12 11.4589 38.3627 0.693503 25.1297 0.693503ZM25.1297 49.3839C21.7992 49.3839 18.5575 48.7307 15.5174 47.4404C12.574 46.1986 9.93712 44.4164 7.67114 42.1505C5.40516 39.8845 3.62302 37.2395 2.38116 34.3042C1.09093 31.256 0.437744 28.0224 0.437744 24.6919C0.437744 21.3615 1.09093 18.1198 2.38116 15.0797C3.62302 12.1363 5.40516 9.49938 7.67114 7.2334C9.93712 4.96742 12.5821 3.18528 15.5174 1.94342C18.5656 0.653183 21.7992 0 25.1297 0C28.4601 0 31.6938 0.653183 34.7419 1.94342C37.6853 3.18528 40.3222 4.96742 42.5882 7.2334C44.8542 9.49938 46.6363 12.1444 47.8782 15.0797C49.1684 18.1278 49.8216 21.3615 49.8216 24.6919C49.8216 28.0224 49.1684 31.2641 47.8782 34.3042C46.6363 37.2476 44.8542 39.8845 42.5882 42.1505C40.3222 44.4164 37.6772 46.1986 34.7419 47.4404C31.7018 48.7307 28.4682 49.3839 25.1297 49.3839Z" fill="white"/>
<path d="M12.6546 30.0709C12.0095 29.7887 11.9934 29.5387 12.2192 28.8613C13.1869 25.9341 13.4368 22.9988 12.066 20.1361C11.6708 19.3135 11.058 18.5878 10.4774 17.862C9.88062 17.1121 9.18711 16.4266 8.57425 15.6848C8.38071 15.459 8.24363 15.1687 8.16299 14.8784C8.10654 14.6768 8.10654 14.3219 8.2275 14.2332C8.43716 14.08 8.79198 13.9752 9.02584 14.0478C10.5096 14.4832 11.5015 15.4751 12.1143 16.8863C12.7756 18.4104 13.453 19.9345 14.1787 21.4263C14.4529 21.9908 14.8803 22.5069 15.2916 22.9827C15.6786 23.4342 16.2108 23.6036 16.7995 23.3617C17.3801 23.1197 17.5333 22.6359 17.5575 22.0553C17.5979 21.2328 17.364 20.5473 16.856 19.87C16.2028 18.999 15.8964 17.9588 15.9205 16.846C15.9367 16.0557 16.3963 15.7735 17.0818 16.1767C18.0656 16.7492 18.5494 17.6927 18.6865 18.7733C18.7752 19.4184 18.7429 20.0958 18.6623 20.7409C18.4446 22.4585 20.0009 23.9342 21.6782 23.5713C22.4766 23.402 22.9281 22.8456 23.2184 22.1359C23.92 20.4344 24.2506 18.6362 24.3958 16.8137C24.4603 16.0718 24.5006 15.3057 24.4119 14.5719C24.3474 14.0074 24.1136 13.443 23.8394 12.9349C23.3313 11.9834 23.5813 10.3061 24.3877 9.60451C24.9119 9.15292 25.5893 9.21743 26.0489 9.75772C26.8392 10.6931 26.8795 12.2414 26.2908 13.3059C26.0005 13.83 25.8312 14.4913 25.8231 15.088C25.7989 17.483 26.186 19.8296 27.0488 22.0795C27.3311 22.8133 27.7907 23.3859 28.6052 23.5713C30.2099 23.9261 31.7018 22.5956 31.6211 20.9022C31.5889 20.1764 31.5244 19.4345 31.6131 18.7168C31.7421 17.733 32.1453 16.846 33.0323 16.2976C33.3065 16.1283 33.7661 15.9831 34.0081 16.1041C34.2339 16.217 34.3709 16.6927 34.3709 17.0072C34.3548 18.1443 33.9758 19.1765 33.2904 20.0958C32.7904 20.757 32.6049 21.4989 32.7501 22.3214C32.8388 22.8294 33.0565 23.2407 33.5887 23.402C34.1371 23.5633 34.6774 23.4342 34.9999 22.9988C35.5725 22.2327 36.1208 21.4263 36.5563 20.5796C37.145 19.4264 37.6127 18.2007 38.153 17.0234C38.7255 15.7815 39.4432 14.6526 40.8544 14.2413C41.1608 14.1526 41.5237 14.1607 41.8301 14.2252C41.9672 14.2494 42.1688 14.6042 42.1204 14.7171C41.935 15.1848 41.7253 15.6767 41.4108 16.0638C40.5802 17.0879 39.6125 18.0072 38.8465 19.0716C37.5159 20.9263 37.1046 23.0633 37.3627 25.297C37.5078 26.5631 37.8707 27.813 38.1691 29.0548C38.2739 29.4984 38.1691 29.829 37.7901 29.9983C37.1046 30.2967 13.4207 30.4096 12.6546 30.0709Z" fill="white"/>
<path d="M15.0738 14.8536C15.0657 15.41 14.7512 15.8374 14.3641 15.8293C13.9771 15.8212 13.6787 15.3858 13.6787 14.8294C13.6787 14.273 13.9851 13.8456 14.3803 13.8536C14.7593 13.8617 15.0818 14.3213 15.0738 14.8536Z" fill="white"/>
<path d="M41.9268 11.3136C41.9188 11.8459 41.6365 12.2652 41.2575 12.2652C40.7898 12.2652 40.6285 11.9184 40.556 11.5314C40.4431 10.983 40.7011 10.4266 41.0962 10.3298C41.5478 10.2169 41.9349 10.6685 41.9268 11.3136Z" fill="white"/>
<path d="M9.49353 11.459C9.46128 11.5477 9.41289 11.8057 9.2758 11.9993C9.00969 12.3863 8.55811 12.3621 8.31619 11.967C8.2033 11.7815 8.13072 11.5396 8.11459 11.3219C8.07427 10.7574 8.41296 10.2978 8.82422 10.3139C9.21936 10.33 9.5016 10.7493 9.49353 11.459Z" fill="white"/>
<path d="M36.3466 14.8132C36.3547 15.3697 36.0644 15.8132 35.6854 15.8212C35.2983 15.8374 34.9676 15.3939 34.9515 14.8616C34.9354 14.3375 35.2499 13.8698 35.6289 13.8536C36.0321 13.8456 36.3385 14.2568 36.3466 14.8132Z" fill="white"/>
<path d="M29.6857 15.8292C29.6938 16.3695 29.3873 16.813 28.9922 16.813C28.5971 16.813 28.3067 16.4098 28.2906 15.8937C28.2745 15.3293 28.597 14.8857 29.0164 14.8857C29.3954 14.8857 29.6776 15.2809 29.6857 15.8292Z" fill="white"/>
<path d="M21.7426 15.8301C21.7507 16.3784 21.4362 16.8139 21.0411 16.8139C20.6701 16.8139 20.3637 16.3865 20.3556 15.8704C20.3476 15.3301 20.6701 14.8866 21.0653 14.8946C21.4523 14.8946 21.7346 15.2898 21.7426 15.8301Z" fill="white"/>
<path d="M43.0962 33.7641V32.8125H7.17114V33.7641C16.356 34.0705 23.5572 36.9332 23.5572 40.4168C23.5572 41.8522 22.3314 43.1828 20.259 44.2714H30.0164C27.9359 43.1828 26.7182 41.8522 26.7182 40.4168C26.7102 36.9332 33.9113 34.0705 43.0962 33.7641Z" fill="white"/>
<path d="M28.1456 39.9567C28.1456 40.7792 26.7989 41.4485 25.1297 41.4485C23.4605 41.4485 22.1138 40.7792 22.1138 39.9567C22.1138 39.1342 23.4605 38.4648 25.1297 38.4648C26.7989 38.4648 28.1456 39.1342 28.1456 39.9567Z" fill="white"/>
</svg>
