<svg width="179" height="123" viewBox="0 0 179 123" fill="none" xmlns="http://www.w3.org/2000/svg">
<g clip-path="url(#clip0_683_1499)">
<path d="M43.3102 41.0056C43.7941 39.9089 44.1005 38.5461 44.0602 37.659C44.0279 37.0139 43.4312 35.8608 42.8425 35.4818C41.891 34.877 40.6249 34.7318 39.375 35.4979C38.0364 36.3204 37.3106 38.2961 36.859 39.6025C35.8188 42.6103 34.9317 46.9487 34.6334 48.6583C33.1577 56.6981 31.6981 63.8589 30.8433 71.9713C30.6659 73.6325 30.4562 75.1808 30.2788 76.7532C30.1014 78.3499 29.5208 81.9787 30.4078 83.3254C30.9078 84.0834 31.7707 84.5672 32.819 84.4624C34.5205 84.285 35.2059 83.1802 35.464 81.0513C35.6817 79.2692 35.5769 77.3177 35.6091 75.5033C35.6414 74.1647 35.6978 72.8422 35.8107 71.4633C35.972 69.5682 36.1978 67.5684 36.4639 65.8023C36.8994 62.9477 37.4719 60.1253 38.1009 57.319C39.0524 53.1016 40.125 49.5212 40.9878 46.723C41.4394 45.2714 42.907 41.9329 43.3102 41.0056ZM39.7701 37.8445C38.7299 39.6025 37.9074 42.0216 37.2622 44.078C36.1897 47.5132 33.5447 58.8351 33.456 58.7867C33.5447 58.7867 34.5124 50.4808 36.351 43.7554C36.6816 42.5539 37.7058 39.1912 38.5605 37.6348C39.1895 36.4978 40.7459 35.1027 42.1329 35.9253C41.1491 36.264 40.1491 37.1994 39.7701 37.8445Z" fill="#6C2B3D"/>
<path d="M43.5602 82.0112C45.0036 82.3337 46.5761 82.2289 47.9712 81.7128C49.1082 81.2935 50.2694 80.5838 51.1726 79.7613C51.6887 80.987 52.8337 81.8257 54.5836 81.9789C56.011 82.1079 58.2366 81.3983 59.9946 80.1323C60.6236 80.7693 61.3816 81.2773 62.2525 81.6402C64.3169 82.495 66.349 82.4869 68.236 81.8902C70.7116 81.0999 72.3567 79.592 74.1146 77.8179C74.3565 78.4872 74.6791 79.1001 75.0823 79.6404C76.0016 80.858 77.4612 81.7773 78.9933 82.1079C81.5173 82.6563 84.2107 81.9305 86.1541 80.2371C87.7831 78.8178 89.041 76.7293 89.7668 74.7616C90.3797 73.1005 90.5651 71.2619 90.5651 70.27C90.5651 69.5281 90.4684 69.0443 90.3313 68.5201C90.1458 67.7944 89.791 67.2702 89.2265 67.0605C88.275 66.7057 86.9283 67.2137 86.767 68.3104C86.7347 68.5524 86.6783 68.8588 86.7267 69.1168C86.8073 69.5039 86.9605 69.8829 87.1218 70.1813C87.275 70.4877 87.4605 70.778 87.5089 71.2457C87.5653 71.7376 87.5089 72.3666 87.3395 73.0359C86.9041 74.7939 86.2832 76.0035 85.0816 77.3099C83.5575 78.971 80.3803 79.971 79.2997 77.2453C78.7998 75.9874 78.8724 74.2294 79.0901 73.0521C79.3723 71.5441 79.7352 70.2136 80.1303 69.3104C80.9287 67.5041 82.5818 64.7784 84.7671 64.5607C85.1945 64.5204 86.009 64.6333 86.4041 64.9074C86.7267 65.1332 86.8476 65.3832 87.0492 65.6171C87.3234 65.9235 87.7105 66.1009 88.1137 66.1251C88.5491 66.1574 89.0007 65.9719 89.291 65.7138C89.6862 65.3671 89.7829 64.9155 89.7346 64.5123C89.6781 64.0365 89.412 63.6091 89.041 63.2382C87.9847 62.1657 86.6864 61.6335 85.2026 61.4803C83.1705 61.2706 81.1625 61.7544 79.4207 62.8189C77.0983 64.2381 75.3645 66.7299 74.4291 69.2459C73.7678 71.0119 73.4453 72.9876 73.534 74.8423C72.2518 76.318 69.623 78.2533 67.8569 78.7614C66.8086 79.0597 65.7361 79.0597 64.7926 78.4872C63.1395 77.4631 63.1637 74.9149 63.6879 72.2941C64.1798 69.8104 65.2765 67.4879 66.2361 66.4638C66.857 65.8026 67.5505 65.2865 68.1876 65.0849C68.994 64.8349 69.7197 64.8187 70.1149 64.972C70.2842 65.0365 70.4213 65.1413 70.4939 65.2865C70.5826 65.4397 70.6229 65.8025 70.6229 65.9477C70.6148 66.4073 70.6632 66.5525 70.8809 67.0041C71.0503 67.3508 71.268 67.5524 71.5744 67.6815C71.9535 67.8508 72.4373 67.8266 72.8486 67.6492C73.534 67.3589 73.7759 66.8186 73.8727 66.1251C73.9533 65.5445 73.8082 65.0929 73.663 64.6333C73.4614 63.9801 73.155 63.343 72.5986 62.8189C71.8728 62.1334 70.8568 61.6335 69.5665 61.5286C67.4941 61.3593 65.4861 61.8431 63.8975 62.7947C61.6961 64.1172 60.0268 66.3428 59.0753 69.004C57.7608 72.6973 57.6641 75.8987 58.6559 78.1808C57.8334 78.7372 56.7206 79.213 56.0513 79.1726C55.2126 79.1243 54.5917 78.6001 54.4546 77.576C54.3659 76.9067 55.0433 74.931 55.382 72.7618C55.6642 70.9393 55.7287 68.1411 54.3094 66.6815C53.6643 66.0122 52.8821 65.5203 51.8903 65.3752C50.979 65.2461 50.0355 65.5445 49.5678 65.9477C49.0437 66.3993 48.8663 67.0283 48.9953 67.5524C49.1566 68.2137 49.9226 68.7378 50.5758 68.633C50.8097 68.5927 51.1403 68.5282 51.4548 68.512C51.6967 68.4959 51.9225 68.504 52.0919 68.5766C52.4144 68.7056 52.6967 68.8991 52.7773 69.3104C53.0918 70.7942 52.6241 72.8021 51.7451 74.6165C50.8742 76.4228 49.5759 77.7372 48.1486 78.4711C46.6164 79.2613 44.8826 79.1081 44.0682 77.4469C43.6972 76.7051 43.5602 75.6971 43.5602 74.6729C43.5763 71.0683 45.2778 66.1977 48.7534 64.4236C49.6001 63.9882 50.5194 63.7624 51.4387 63.8027C51.8419 63.8188 52.2451 63.8914 52.6321 63.9962C53.3256 64.1736 53.8821 64.3268 54.3982 64.851C54.6239 65.0849 54.7933 65.351 55.0271 65.6493C55.4062 66.1412 55.7852 66.5041 56.4464 66.5767C57.0996 66.6493 57.8818 66.238 58.0995 65.5687C58.1882 65.2784 58.1882 64.9639 58.1157 64.6413C57.9866 64.0769 57.5673 63.5285 57.1399 63.0769C56.519 62.4318 55.7529 61.9238 54.9465 61.5609C54.124 61.19 53.1563 60.9158 52.1725 60.7464C49.9388 60.3674 47.7776 60.561 45.6971 61.4803C42.1893 63.0285 39.9394 66.3832 38.9476 69.9636C38.3024 72.3021 37.9799 74.9149 38.4879 76.9147C38.8911 78.5033 40.0039 80.1968 41.3506 81.1483C41.9635 81.5757 42.8021 81.8418 43.5602 82.0112ZM74.8807 69.512C75.7758 67.117 77.5176 64.601 79.7271 63.2624C81.098 62.4318 82.7269 61.9883 84.3397 61.9883C85.2348 61.9883 86.0493 62.1334 86.7751 62.4237C87.0331 62.5286 87.2831 62.6657 87.517 62.8108C85.1945 62.1173 82.1705 62.7221 80.1465 64.0446C77.6224 65.6977 75.6306 69.1733 74.9291 72.0441C74.6468 73.1972 74.5097 74.3746 74.5259 75.5116C74.3968 75.6406 74.2598 75.7696 74.1146 75.9067C73.8162 73.9794 74.0582 71.7054 74.8807 69.512ZM60.6719 66.867C62.4863 63.8188 65.3813 62.0125 68.6392 62.0125C68.8891 62.0125 69.1472 62.0205 69.4052 62.0447C70.2681 62.1173 70.9777 62.3915 71.5422 62.7624C71.2196 62.6737 70.8809 62.6092 70.5181 62.577C66.5022 62.2544 63.2685 64.3591 61.3171 67.6008L60.6397 66.9234C60.6397 66.9154 60.6558 66.8912 60.6719 66.867ZM60.172 67.7944L60.8413 68.4637C60.6961 68.754 60.559 69.0523 60.43 69.3507L59.7688 68.6975C59.8897 68.3911 60.0268 68.0847 60.172 67.7944ZM40.1652 71.3506L39.5282 70.7216C39.633 70.3668 39.7298 70.0442 39.8185 69.7378L40.4475 70.3668C40.3668 70.6651 40.27 70.9958 40.1652 71.3506ZM40.0684 68.6814C40.9797 66.2864 42.278 64.3026 44.3746 62.7382C45.7697 61.6899 47.8502 60.9803 49.9549 60.9803C50.6403 60.9803 51.35 61.0287 52.0435 61.1496C53.2289 61.3432 54.2288 61.6819 55.2691 62.2867C53.5676 61.6899 51.8419 61.4641 50.0355 61.6657C48.0437 61.8835 46.2858 62.5205 45.0762 63.4317C43.0199 64.972 41.6571 66.996 40.7216 69.3588L40.0684 68.6814Z" fill="#6C2B3D"/>
<path d="M176.301 72.2297C175.189 71.8829 173.955 71.9071 172.664 72.0684C170.753 72.3022 169.036 73.4151 167.512 74.536C166.6 75.2053 165.617 76.2133 164.657 76.9874C163.649 77.8099 161.77 79.3099 160.407 79.1808C159.996 79.1405 159.617 78.9954 159.319 78.7534C159.23 78.6809 159.157 78.6083 159.093 78.5357C158.964 78.3099 158.867 78.0357 158.827 77.7132C158.794 77.4471 159.673 72.8748 159.778 71.9474C159.907 70.7862 159.923 69.6411 159.681 68.6493C159.319 67.1655 157.996 65.6736 156.383 65.3511C155.254 65.1172 154.246 65.4075 153.432 65.9317C152.827 66.3107 152.367 66.8187 152.23 67.4074C152.093 67.9558 152.198 68.4235 152.593 68.8105C153.061 69.2702 153.617 69.367 154.158 69.2782C154.529 69.2218 154.875 69.0121 155.085 68.738C155.617 68.0445 156.916 68.7863 157.085 69.7298C157.214 70.3266 157.117 71.2217 156.916 72.1329C156.585 73.6005 156.045 75.0117 155.141 76.2294C154.367 77.2697 153.416 78.1164 152.416 78.6325C152.021 78.8341 151.609 78.9792 151.198 79.0437C150.085 79.197 149.029 78.6325 148.44 77.4471C148.069 76.7052 147.932 75.6972 147.932 74.6731C147.948 71.0685 149.65 66.1978 153.125 64.4237C153.787 64.085 154.488 63.8754 155.198 63.8189C156.375 63.7222 157.988 64.0286 158.819 64.9318C159.02 65.1495 159.19 65.3833 159.399 65.6495C159.778 66.1414 160.157 66.5042 160.818 66.5768C161.472 66.6494 162.254 66.2381 162.464 65.5688C162.552 65.2785 162.552 64.964 162.48 64.6415C162.351 64.077 161.931 63.5286 161.504 63.077C160.891 62.4319 160.117 61.9239 159.311 61.561C158.488 61.1901 157.52 60.9159 156.537 60.7465C154.303 60.3675 152.166 60.5772 150.085 61.4965C146.577 63.0448 144.303 66.3833 143.312 69.9637C142.666 72.3022 142.344 74.915 142.852 76.9148C143.255 78.5035 144.368 80.1969 145.715 81.1484C146.327 81.5839 147.174 81.85 147.924 82.0193C149.368 82.3419 150.94 82.3822 152.335 81.8661C153.392 81.471 154.472 80.8339 155.351 80.0759C155.738 80.6727 156.19 81.1323 156.714 81.4549C158.254 82.4225 160.133 82.35 161.851 81.7371C163.883 81.0033 165.35 80.2695 166.842 79.4469C167.915 78.8583 169.56 77.6648 171.495 77.2293C172.971 76.8987 173.914 77.1003 175.358 77.1729C176.801 77.2455 177.874 76.5842 178.277 75.3666C178.664 74.1731 177.825 72.7054 176.301 72.2297ZM144.497 71.3346L143.86 70.7056C143.965 70.3508 144.062 70.0282 144.15 69.7218L144.779 70.3508C144.699 70.6491 144.602 70.9797 144.497 71.3346ZM145.247 69.5202L144.594 68.8509C145.505 66.4559 146.803 64.4721 148.9 62.9077C150.295 61.8594 152.375 61.1497 154.48 61.1497C155.174 61.1497 155.875 61.1981 156.569 61.3191C157.754 61.5126 158.754 61.8513 159.794 62.4561C158.093 61.8594 156.367 61.6336 154.561 61.8352C152.569 62.0529 150.811 62.69 149.601 63.6012C147.553 65.1253 146.182 67.1574 145.247 69.5202ZM167.544 76.5439L166.85 75.8504C167.068 75.6327 167.294 75.423 167.536 75.2133L168.229 75.9068C167.987 76.1165 167.762 76.3262 167.544 76.5439ZM169.778 74.8666C169.536 75.0279 169.31 75.1892 169.1 75.3504L168.415 74.665C168.6 74.5279 168.794 74.3908 169.011 74.2457C170.753 73.0925 172.487 72.6651 173.689 72.5925C175.108 72.4958 176.438 72.8264 177.382 73.5764C175.189 72.8748 172.245 73.2377 169.778 74.8666Z" fill="#6C2B3D"/>
<path d="M20.6907 67.5602C20.36 69.1005 20.1584 71.0439 19.5133 74.205C19.2069 75.6887 18.8601 77.1161 18.4892 78.866C18.2795 79.8659 17.8763 81.4626 17.7876 82.269C17.6425 83.656 17.7392 84.7849 18.4972 85.5833C19.0375 86.1477 20.11 86.4703 21.0132 86.3251C21.9083 86.1881 22.7792 85.5994 23.1018 84.8172C23.3034 84.3414 23.4647 83.8011 23.6098 83.2205C24.1178 81.1239 24.2146 78.1563 24.3678 76.7532C24.6985 73.6082 25.0855 69.9472 25.4887 66.4394C25.6661 64.8991 25.8194 63.5524 25.9645 62.0687C26.537 61.8913 27.1499 61.73 27.6902 61.7945C27.9724 61.8267 28.2385 61.8993 28.4724 62.0283C28.7224 62.1654 28.8353 62.359 29.0933 62.5928C29.4965 62.9638 30.1255 63.2621 30.6819 63.0928C31.448 62.8589 32.0206 62.2138 31.8431 61.4155C31.6738 60.6736 31.2142 60.1333 30.6336 59.7624C29.803 59.2301 28.7143 59.0285 27.8192 59.0124C27.3031 59.0044 26.6741 59.0285 26.1822 59.0769C26.4403 56.948 26.8193 54.4643 27.2064 52.1419C27.6579 49.4001 28.174 46.9809 28.5934 43.9731C29.053 40.6749 27.5934 39.7637 26.4 39.5782C25.2307 39.4008 24.0211 40.1427 23.376 42.0377C23.005 43.1344 22.8679 45.5052 22.6825 47.5374C22.1906 52.9564 22.1099 56.0449 21.5858 60.6091C20.1504 61.48 18.5537 62.4557 16.957 63.0686C14.7878 63.9073 12.796 64.5282 10.3849 64.1411C8.88498 63.8992 8.15922 63.7298 6.75608 63.2218C5.66745 62.8267 3.77241 62.2703 2.30476 62.738C0.191999 63.4073 -0.759552 66.1087 0.708094 67.8667C2.13542 69.5762 4.28044 70.0601 6.72383 70.1568C8.85272 70.2456 11.4816 69.8262 13.0379 69.3988C15.941 68.6005 19.0456 66.8506 21.0132 65.1975C20.9729 65.5604 20.7713 67.1974 20.6907 67.5602ZM0.917758 66.1329C0.691966 64.0363 3.23212 63.0202 4.93362 63.5363C2.68377 63.6815 2.24025 64.8991 0.917758 66.1329ZM20.102 79.6562C19.8359 81.8012 19.473 83.414 19.2553 84.7365C18.4489 83.7931 18.8763 82.2125 19.0456 80.9626C19.6988 76.229 20.4004 73.6969 21.3761 68.9472C21.0939 72.2212 20.5616 75.9065 20.102 79.6562ZM18.2634 64.1895C15.82 65.4717 10.7719 66.4474 8.22373 64.5927C11.1429 65.4394 15.1829 64.8104 17.957 63.3508C20.1665 62.1896 21.8115 60.9155 24.5452 60.093C26.4483 59.5204 28.6176 59.214 30.1981 60.0365C28.3273 59.6898 26.3113 60.2301 24.5936 60.8752C22.118 61.8026 20.4891 63.0122 18.2634 64.1895Z" fill="#6C2B3D"/>
<path d="M105.298 79.5593L105.354 79.6399C106.274 80.8576 107.733 81.7769 109.265 82.1075C111.789 82.6559 114.483 81.9301 116.426 80.2367C119.241 77.7852 121.208 73.1968 120.644 69.5035C121.482 69.3825 122.256 68.8584 122.821 68.1729C123.45 67.4149 123.821 66.4634 123.748 65.6328C123.716 65.3022 123.571 65.0038 123.353 64.8344C122.95 64.5119 122.337 64.4554 121.869 64.657C121.563 64.7861 121.232 65.1651 121.2 65.5118C121.168 65.8989 121.208 66.1811 121.127 66.4069C120.829 67.2214 120.426 67.3424 120.224 67.3262C119.894 66.7376 119.047 66.5037 118.313 66.544C117.757 66.5763 117.16 66.8424 116.846 67.302C116.579 67.6891 116.515 68.2133 116.644 68.681C116.813 69.2777 117.241 69.7374 117.837 69.8744C118.176 72.7533 117.225 75.2934 115.241 77.2369C114.523 77.9384 113.676 78.5271 112.814 78.8093C112.741 78.8335 112.66 78.8577 112.588 78.8738C111.37 79.0996 110.16 78.7126 109.572 77.2369C109.072 75.9789 109.144 74.2209 109.362 73.0436C109.644 71.5356 110.007 70.2051 110.402 69.3019C111.201 67.4956 112.854 64.7699 115.039 64.5522C115.467 64.5119 116.281 64.6248 116.676 64.899C116.999 65.1248 117.12 65.3747 117.321 65.6086C117.595 65.915 117.983 66.0924 118.386 66.1166C118.821 66.1489 119.273 65.9634 119.563 65.7054C119.958 65.3586 120.055 64.907 120.007 64.5038C119.95 64.0281 119.684 63.6007 119.313 63.2297C118.257 62.1572 116.958 61.625 115.475 61.4718C113.443 61.2621 111.435 61.7459 109.693 62.8104C107.37 64.2297 105.637 66.7214 104.701 69.2374C103.758 71.7775 103.492 74.7451 104.161 77.1724C103.419 77.8175 102.403 78.5513 101.653 78.6964C101.234 78.7852 100.847 78.5594 100.589 77.7852C100.21 76.3498 100.887 68.7777 101.524 64.5522C101.709 63.3104 101.572 62.383 101.25 62.1008C99.887 60.9153 95.8227 61.1895 95.3711 63.8265C94.9599 66.2456 94.0244 69.2213 92.9519 72.084C91.2988 76.4869 89.7908 79.9706 87.1942 83.4058C85.7266 85.3492 84.2186 87.1475 82.0091 88.2039C80.5495 88.8974 79.6141 89.3328 78.8883 89.6715C77.7352 90.2118 75.8966 90.8811 75.7192 92.76C75.5982 94.0825 76.0821 95.0502 77.0578 95.6228C79.0174 96.7678 81.0979 95.8647 82.9203 94.9131C85.8153 93.389 88.8716 89.7602 90.5731 86.9378C93.3067 82.422 94.0728 77.5191 95.5889 72.4952C95.3227 75.5434 95.2098 78.761 96.0485 80.535C97.0323 82.6155 99.5241 82.9058 101.5 82.1962C102.185 81.9462 102.814 81.5834 103.387 81.1963C104.112 80.7286 104.733 80.1641 105.298 79.5593ZM106.604 66.8504C106.951 66.2698 107.354 65.786 107.725 65.2941C108.741 63.9635 110.257 62.762 112.281 62.2298C113.168 61.9959 114.08 61.8669 114.942 61.8669C115.854 61.8669 116.66 62.0121 117.345 62.2862C117.684 62.4233 117.974 62.5685 118.233 62.7217C116.523 62.1733 114.386 62.4153 112.483 63.0523C110.798 63.6249 109.604 64.4716 108.548 65.7295C108.096 66.2698 107.669 66.8827 107.282 67.5278C107.112 67.802 106.951 68.0842 106.806 68.3745L106.128 67.6972C106.282 67.4149 106.443 67.1327 106.604 66.8504ZM105.282 69.2616C105.395 68.9713 105.508 68.6729 105.637 68.3826L106.298 69.0439C106.153 69.3583 106.024 69.6648 105.903 69.9712L105.25 69.318C105.266 69.3019 105.274 69.2858 105.282 69.2616ZM76.824 93.6229C76.2837 92.7358 76.9772 91.9536 77.5094 91.4295C78.0497 90.8973 79.1383 90.107 80.7995 89.8651C79.0899 90.6634 77.582 92.2762 76.824 93.6229ZM87.4845 85.5186C86.2024 87.2604 84.1057 88.5668 82.4204 88.72C84.4283 87.7604 85.5895 86.8491 87.0088 84.9138C90.2263 80.5512 91.3875 78.132 93.589 73.3339C92.3068 77.3175 91.1779 80.527 87.4845 85.5186ZM95.9517 66.8666L95.3147 66.2376C95.4195 65.8828 95.5163 65.5602 95.605 65.2538L96.234 65.8828C96.1533 66.1731 96.0566 66.5037 95.9517 66.8666ZM96.5646 64.9232C96.5646 64.9312 96.5565 64.9393 96.5565 64.9554L95.9437 64.3425C95.9759 64.1974 96.0001 64.0764 96.0243 63.9555C96.2904 62.512 97.7177 62.004 98.8548 62.004C99.5886 62.004 100.258 62.2056 100.653 62.5443C100.669 62.5604 100.685 62.5846 100.701 62.6088C99.0644 62.3024 96.9194 62.9555 96.5646 64.9232Z" fill="#6C2B3D"/>
<path d="M126.103 81.2207C128.434 82.7125 132.038 82.3093 133.99 81.4384C139.127 79.1563 141.062 73.3099 142.118 65.9314C142.417 63.8428 142.433 62.0929 142.36 60.335C142.28 58.327 141.884 56.3594 141.134 54.0531C140.368 51.7065 139.143 48.2632 137.465 45.8279C136.627 44.6183 135.191 43.1829 133.675 42.2636C132.845 41.7636 131.579 41.5136 130.772 41.7314C129.538 42.07 128.022 43.5296 128.732 45.6021C129.151 46.8278 131.466 48.5374 132.732 49.7712C133.804 50.8195 134.683 52.0694 135.119 52.7629C135.788 53.8354 136.344 54.9321 136.804 56.0853C137.506 57.8755 138.038 59.7866 138.07 61.8994C138.086 63.0042 138.062 64.0928 138.006 65.1492C137.772 69.1489 136.957 72.7051 135.82 75.0034C134.627 77.4226 132.99 78.7692 131.393 79.0515C130.901 79.1402 130.409 79.1241 129.934 79.0112C128.579 78.6805 128.151 77.0677 128.039 75.8985C127.853 74.0276 128.272 71.7697 128.668 70.4391C129.297 68.3022 130.119 67.02 131.079 66.012C132.232 64.8105 132.99 64.6976 133.49 64.8427C133.78 64.9234 133.982 65.1008 134.127 65.1814C134.498 65.4072 134.941 65.6814 135.401 65.7137C135.933 65.7459 136.449 65.5443 136.812 65.1976C137.191 64.8508 137.304 64.2621 137.183 63.6977C137.111 63.367 136.949 63.0445 136.707 62.7461C136.111 62.0203 135.256 61.6897 134.369 61.5526C133.224 61.3672 131.804 61.4317 130.7 61.6978C130.232 61.8107 129.772 61.9639 129.313 62.1736C128.079 62.7219 126.966 63.5686 126.095 64.5444C124.74 66.0604 123.474 68.2054 122.974 70.8101C121.821 76.6565 123.837 79.7772 126.103 81.2207ZM130.208 44.1828C129.893 44.7634 129.78 45.4408 129.942 46.0778C129.426 45.2876 129.135 44.2473 129.611 43.3603C130.2 42.3684 131.296 41.9813 132.296 42.2071C131.329 42.4087 130.804 43.078 130.208 44.1828ZM126.434 64.9234C127.797 63.5122 129.514 62.351 131.522 62.0687C132.103 61.9881 132.619 61.9881 133.006 61.9881C133.853 61.9881 134.409 62.0849 134.562 62.1091C135.095 62.2139 135.554 62.4155 135.901 62.6977C135.844 62.6816 135.788 62.6655 135.732 62.6574C135.095 62.5364 133.514 62.3913 131.829 62.7542C129.861 63.1735 128.442 64.1573 127.095 65.6249C126.547 66.2217 126.023 66.9071 125.555 67.6732L124.869 66.9878C125.361 66.2136 125.877 65.504 126.434 64.9234ZM124.402 67.8264L125.079 68.5038C124.789 69.0441 124.523 69.6247 124.297 70.2295L123.644 69.5763C123.861 68.9634 124.119 68.3828 124.402 67.8264Z" fill="#6C2B3D"/>
<path d="M26.295 98.5901C26.295 98.5901 21.247 102.864 20.5051 103.759L20.497 103.751C21.0696 102.743 23.2146 96.4773 23.2146 96.4773L22.0373 95.6709L15.9812 103.187L17.1666 103.993C17.1666 103.993 20.5857 99.59 21.2389 98.703L21.2631 98.7191C20.7712 99.5658 18.8439 105.138 18.8439 105.138L19.8197 105.807C19.8197 105.807 24.3597 101.937 24.9403 101.235L24.9484 101.243C24.4 102.122 21.497 106.952 21.497 106.952L22.6743 107.759L27.4885 99.3884L26.295 98.5901Z" fill="#6C2B3D"/>
<path d="M32.0528 101.55C30.2707 100.663 28.3354 101.969 27.0048 104.646C25.6742 107.324 25.8113 109.638 27.5935 110.525C29.3837 111.412 31.3432 110.138 32.6738 107.461C34.0043 104.783 33.8431 102.445 32.0528 101.55ZM31.2868 106.775C30.4159 108.525 29.2143 109.63 28.2708 109.162C27.3274 108.694 27.5048 107.082 28.3757 105.332C29.2546 103.566 30.4562 102.461 31.3755 102.921C32.3109 103.38 32.1657 105.017 31.2868 106.775Z" fill="#6C2B3D"/>
<path d="M39.3103 101.526C38.9233 101.364 38.5039 101.622 38.262 102.219C38.0201 102.808 38.1411 103.276 38.5281 103.437C38.9152 103.598 39.3426 103.356 39.5845 102.767C39.8264 102.171 39.6893 101.687 39.3103 101.526Z" fill="#6C2B3D"/>
<path d="M37.5686 100.817C37.1816 100.655 36.7622 100.913 36.5203 101.51C36.2784 102.099 36.3994 102.567 36.7864 102.728C37.1816 102.889 37.6009 102.647 37.8428 102.058C38.0847 101.462 37.9718 100.978 37.5686 100.817Z" fill="#6C2B3D"/>
<path d="M36.5647 103.822L32.9158 112.724L34.2961 113.289L37.9451 104.388L36.5647 103.822Z" fill="#6C2B3D"/>
<path d="M47.076 107.558C45.9713 109.291 44.3504 111.783 44.0601 112.452L44.044 112.444C44.1649 111.735 44.1246 109.041 44.1165 106.638L42.6408 106.179L42.915 113.63L41.3345 115.855L42.7941 116.307L48.5437 108.017L47.076 107.558Z" fill="#6C2B3D"/>
<path d="M47.213 116.178L47.084 117.791C48.8984 117.92 50.0596 116.017 51.7208 110.444L52.9465 110.751L51.0111 118.557L52.4546 118.911L54.777 109.573L50.8499 108.598C49.1564 114.541 48.3984 116.202 47.213 116.178Z" fill="#6C2B3D"/>
<path d="M62.6475 110.92C60.8412 110.597 59.5509 112.121 58.9542 114.662L57.793 114.452L58.5268 110.372L57.0592 110.105L55.3577 119.581L56.8253 119.839L57.5269 115.952L58.7042 116.162C58.422 118.669 59.1235 120.46 60.8815 120.782C62.841 121.137 64.3732 119.363 64.8974 116.42C65.4296 113.476 64.6071 111.267 62.6475 110.92ZM63.3813 116.145C63.0346 118.065 62.1879 119.468 61.1476 119.282C60.1074 119.097 59.8574 117.5 60.2041 115.581C60.5509 113.646 61.3573 112.234 62.3814 112.42C63.3894 112.605 63.7281 114.21 63.3813 116.145Z" fill="#6C2B3D"/>
<path d="M69.2682 115.686C69.0182 115.654 68.8408 115.646 68.6795 115.662L68.9295 113.589L71.3164 113.88L71.5019 112.348L67.6392 111.88L66.4861 121.436C66.4861 121.436 67.3005 121.742 68.5182 121.887C70.3568 122.113 71.3648 120.799 71.5906 118.952C71.8325 116.952 70.9535 115.888 69.2682 115.686ZM70.1875 118.799C70.0665 119.799 69.5907 120.573 68.6956 120.468C68.5182 120.444 68.3247 120.404 68.1231 120.371L68.5424 116.928C68.6876 116.912 68.8811 116.92 69.123 116.952C69.881 117.041 70.3245 117.646 70.1875 118.799Z" fill="#6C2B3D"/>
<path d="M73.1873 120.815L73.3243 122.428C75.1387 122.258 75.9693 120.178 76.6709 114.412L77.9289 114.509L77.308 122.524L78.7917 122.637L79.5336 113.041L75.5016 112.727C74.8323 118.879 74.3565 120.637 73.1873 120.815Z" fill="#6C2B3D"/>
<path d="M81.6221 122.791L85.9363 122.952L85.9847 121.444L83.1946 121.339L83.2913 118.63L85.396 118.711L85.4444 117.211L83.3478 117.138L83.4365 114.743L86.0815 114.84L86.1298 113.332L81.9769 113.179L81.6221 122.791Z" fill="#6C2B3D"/>
<path d="M92.0731 113.356L92.0973 117.622L89.7345 117.638L89.7103 113.372L88.2185 113.38L88.275 123L89.7587 122.992L89.7426 119.081L92.1054 119.073L92.1215 122.984L93.5972 122.976L93.5488 113.348L92.0731 113.356Z" fill="#6C2B3D"/>
<path d="M97.506 113.229L96.0151 113.282L96.361 122.897L97.8519 122.844L97.506 113.229Z" fill="#6C2B3D"/>
<path d="M106.975 120.92C105.951 121.009 105.169 119.743 104.984 117.63C104.79 115.445 105.298 114.066 106.5 113.961C106.669 113.945 106.822 113.945 106.991 113.961L107.129 115.985L108.306 115.88L108.08 112.541C108.08 112.541 107.354 112.356 106.217 112.453C104.185 112.63 103.129 114.63 103.411 117.767C103.685 120.896 104.959 122.621 106.935 122.452C108.943 122.275 109.378 120.097 109.378 120.097L108.604 119.525C108.596 119.533 107.975 120.831 106.975 120.92Z" fill="#6C2B3D"/>
<path d="M112.975 111.694C111.007 111.96 110.128 114.122 110.532 117.089C110.927 120.057 112.338 121.895 114.314 121.629C116.297 121.363 117.201 119.21 116.805 116.242C116.402 113.283 114.959 111.428 112.975 111.694ZM114.104 120.113C113.056 120.258 112.306 118.815 112.04 116.879C111.782 114.928 112.153 113.339 113.169 113.202C114.201 113.065 114.999 114.492 115.257 116.444C115.531 118.387 115.152 119.976 114.104 120.113Z" fill="#6C2B3D"/>
<path d="M119.144 110.945C120.071 117.049 120.071 118.872 118.991 119.348L119.547 120.872C121.257 120.235 121.515 118.017 120.716 112.268L121.958 112.034L123.434 119.936L124.894 119.662L123.128 110.203L119.144 110.945Z" fill="#6C2B3D"/>
<path d="M128.03 108.881C126.103 109.356 125.458 111.598 126.176 114.501C126.885 117.404 128.49 119.09 130.417 118.614C132.361 118.138 133.03 115.896 132.32 112.993C131.603 110.09 129.974 108.405 128.03 108.881ZM130.046 117.13C129.022 117.38 128.119 116.033 127.651 114.138C127.184 112.227 127.385 110.606 128.385 110.364C129.401 110.114 130.345 111.453 130.812 113.364C131.28 115.259 131.078 116.88 130.046 117.13Z" fill="#6C2B3D"/>
<path d="M140.433 113.936L137.997 106.211L133.844 107.517C135.135 112.082 135.594 113.839 135.659 115.436L135.038 115.63L136.32 119.46L137.53 119.081L136.723 116.694L140.409 115.533L141.126 117.944L142.336 117.565L141.183 113.686L140.433 113.936ZM136.893 115.049C136.804 113.606 136.441 111.912 135.53 108.646L137.094 108.154L139.054 114.372L136.893 115.049Z" fill="#6C2B3D"/>
<path d="M142.941 104.147C141.094 104.889 140.788 107.203 141.9 109.977C143.013 112.751 144.844 114.186 146.682 113.444C148.537 112.695 148.884 110.388 147.763 107.614C146.65 104.832 144.795 103.397 142.941 104.147ZM146.118 112.025C145.134 112.42 144.054 111.211 143.32 109.404C142.586 107.574 142.554 105.945 143.505 105.558C144.473 105.171 145.594 106.356 146.336 108.187C147.061 110.001 147.094 111.63 146.118 112.025Z" fill="#6C2B3D"/>
<path d="M158.278 105.848L154.4 98.7354L153.093 99.445L156.972 106.557L155.504 107.356L151.626 100.243L150.319 100.953L154.19 108.065L152.722 108.864L148.843 101.751L147.537 102.461L152.142 110.912L158.553 107.42C159.182 108.63 159.698 109.662 159.698 109.662L160.81 109.057L158.948 105.469L158.278 105.848Z" fill="#6C2B3D"/>
<path d="M157.633 96.4118L156.431 97.2812L162.068 105.077L163.27 104.208L157.633 96.4118Z" fill="#6C2B3D"/>
<path d="M57.0189 100.671L56.7932 99.8645C56.7932 99.8645 56.1238 100.429 55.261 100.429C54.3498 100.429 53.624 99.4774 53.624 98.0178V97.8485H56.9302C56.9302 97.8485 57.0512 97.3324 57.0512 96.5421C57.0512 94.4374 56.1884 93.4375 54.9626 93.4375C53.5998 93.4375 52.5676 95.0745 52.5676 97.7114C52.5676 100.002 53.6724 101.381 55.0836 101.381C56.3335 101.381 57.0189 100.671 57.0189 100.671ZM54.9546 94.3487C55.64 94.3487 56.1238 95.1067 56.1238 96.4857C56.1238 96.7921 56.1077 97.034 56.1077 97.034C55.2449 97.0502 53.8014 97.0502 53.624 97.0502C53.6643 95.389 54.2127 94.3487 54.9546 94.3487Z" fill="#6C2B3D"/>
<path d="M59.7608 100.437C58.914 100.437 58.1722 99.8889 58.1722 99.8889L57.8657 100.736C57.8657 100.736 58.5189 101.373 59.8253 101.373C61.3574 101.373 61.9461 100.22 61.9461 99.2035C61.9461 96.7924 59.1398 97.123 59.1398 95.4457C59.1398 94.7925 59.6398 94.3974 60.4139 94.3974C61.0671 94.3974 61.688 94.6554 61.688 94.6554V93.7039C61.688 93.7039 61.1155 93.4297 60.2769 93.4297C59.0673 93.4297 58.0915 94.2038 58.0915 95.4941C58.0915 97.7842 60.8978 97.5584 60.8978 99.2841C60.8978 99.7841 60.5914 100.437 59.7608 100.437Z" fill="#6C2B3D"/>
<path d="M64.3653 91.1475L63.3008 91.5103V93.615H62.696V94.6311H63.3008V99.1227C63.3008 100.808 63.6799 101.381 64.6959 101.381C65.6475 101.381 66.3168 100.776 66.3168 100.776L66.2845 99.913C66.2845 99.913 65.6797 100.292 65.0749 100.292C64.575 100.292 64.3653 99.8404 64.3653 99.0179V94.6392H66.3248V93.6231H64.3653V91.1475Z" fill="#6C2B3D"/>
<path d="M114.491 101.204V92.1719H113.475L111.225 94.1556L111.701 94.7927C112.201 94.3895 112.927 93.7202 113.483 93.2121V101.195L114.491 101.204Z" fill="#6C2B3D"/>
<path d="M118.273 92.0186C116.797 92.0186 115.926 93.1878 115.926 95.2119C115.926 96.8408 116.66 97.6956 117.829 97.6956C118.483 97.6956 119.023 97.4214 119.37 97.1795C119.063 99.1632 118.16 100.195 116.813 100.558L117.087 101.365C118.716 100.921 120.45 99.3648 120.45 95.5183C120.45 93.2927 119.603 92.0186 118.273 92.0186ZM119.466 96.3489C119.176 96.5586 118.644 96.8489 118.047 96.8489C117.297 96.8489 116.862 96.2521 116.862 95.1554C116.862 93.8652 117.265 92.9459 118.192 92.9459C119.039 92.9459 119.482 93.9862 119.482 95.5183C119.491 95.8086 119.482 96.0828 119.466 96.3489Z" fill="#6C2B3D"/>
<path d="M122.353 100.558L122.628 101.365C124.256 100.921 125.99 99.3648 125.99 95.5183C125.99 93.2927 125.143 92.0186 123.813 92.0186C122.337 92.0186 121.466 93.1878 121.466 95.2119C121.466 96.8408 122.2 97.6956 123.369 97.6956C124.023 97.6956 124.563 97.4214 124.91 97.1795C124.603 99.1713 123.7 100.195 122.353 100.558ZM123.595 96.8489C122.845 96.8489 122.418 96.2521 122.418 95.1554C122.418 93.8652 122.821 92.9459 123.748 92.9459C124.595 92.9459 125.039 93.9862 125.039 95.5183C125.039 95.8086 125.023 96.0909 125.014 96.3489C124.716 96.5586 124.192 96.8489 123.595 96.8489Z" fill="#6C2B3D"/>
<path d="M128.522 101.204C129.522 97.228 130.966 92.7444 130.966 92.7444V92.1719H126.756V93.1557C127.716 93.1557 129.006 93.0589 129.934 92.9299C129.45 94.3733 128.24 98.0586 127.45 101.195L128.522 101.204Z" fill="#6C2B3D"/>
<path d="M113.418 24.684C113.418 38.1267 102.516 49.0292 89.0732 49.0292C75.6305 49.0292 64.728 38.1267 64.728 24.684C64.728 11.2414 75.6305 0.338867 89.0732 0.338867C102.516 0.338867 113.418 11.2414 113.418 24.684Z" fill="#ED6E76"/>
<path d="M89.1297 0.693503C75.9047 0.693503 65.1393 11.4589 65.1393 24.6839C65.1393 37.9088 75.9047 48.6742 89.1297 48.6742C102.355 48.6742 113.12 37.9088 113.12 24.6839C113.12 11.4589 102.363 0.693503 89.1297 0.693503ZM89.1297 49.3839C85.7992 49.3839 82.5575 48.7307 79.5174 47.4404C76.574 46.1986 73.9371 44.4164 71.6711 42.1505C69.4052 39.8845 67.623 37.2395 66.3812 34.3042C65.0909 31.256 64.4377 28.0224 64.4377 24.6919C64.4377 21.3615 65.0909 18.1198 66.3812 15.0797C67.623 12.1363 69.4052 9.49938 71.6711 7.2334C73.9371 4.96742 76.5821 3.18528 79.5174 1.94342C82.5656 0.653183 85.7992 0 89.1297 0C92.4601 0 95.6938 0.653183 98.7419 1.94342C101.685 3.18528 104.322 4.96742 106.588 7.2334C108.854 9.49938 110.636 12.1444 111.878 15.0797C113.168 18.1278 113.822 21.3615 113.822 24.6919C113.822 28.0224 113.168 31.2641 111.878 34.3042C110.636 37.2476 108.854 39.8845 106.588 42.1505C104.322 44.4164 101.677 46.1986 98.7419 47.4404C95.7018 48.7307 92.4682 49.3839 89.1297 49.3839Z" fill="white"/>
<path d="M76.6546 30.0709C76.0095 29.7887 75.9934 29.5387 76.2192 28.8613C77.1869 25.9341 77.4368 22.9988 76.066 20.1361C75.6708 19.3135 75.058 18.5878 74.4774 17.862C73.8806 17.1121 73.1871 16.4266 72.5742 15.6848C72.3807 15.459 72.2436 15.1687 72.163 14.8784C72.1065 14.6768 72.1065 14.3219 72.2275 14.2332C72.4372 14.08 72.792 13.9752 73.0258 14.0478C74.5096 14.4832 75.5015 15.4751 76.1143 16.8863C76.7756 18.4104 77.453 19.9345 78.1787 21.4263C78.4529 21.9908 78.8803 22.5069 79.2916 22.9827C79.6786 23.4342 80.2108 23.6036 80.7995 23.3617C81.3801 23.1197 81.5333 22.6359 81.5575 22.0553C81.5979 21.2328 81.364 20.5473 80.856 19.87C80.2028 18.999 79.8964 17.9588 79.9205 16.846C79.9367 16.0557 80.3963 15.7735 81.0818 16.1767C82.0656 16.7492 82.5494 17.6927 82.6865 18.7733C82.7752 19.4184 82.7429 20.0958 82.6623 20.7409C82.4446 22.4585 84.0009 23.9342 85.6782 23.5713C86.4766 23.402 86.9281 22.8456 87.2184 22.1359C87.92 20.4344 88.2506 18.6362 88.3958 16.8137C88.4603 16.0718 88.5006 15.3057 88.4119 14.5719C88.3474 14.0074 88.1136 13.443 87.8394 12.9349C87.3313 11.9834 87.5813 10.3061 88.3877 9.60451C88.9119 9.15292 89.5893 9.21743 90.0489 9.75772C90.8392 10.6931 90.8795 12.2414 90.2908 13.3059C90.0005 13.83 89.8312 14.4913 89.8231 15.088C89.7989 17.483 90.186 19.8296 91.0488 22.0795C91.3311 22.8133 91.7907 23.3859 92.6052 23.5713C94.2099 23.9261 95.7018 22.5956 95.6211 20.9022C95.5889 20.1764 95.5244 19.4345 95.6131 18.7168C95.7421 17.733 96.1453 16.846 97.0323 16.2976C97.3065 16.1283 97.7661 15.9831 98.0081 16.1041C98.2339 16.217 98.3709 16.6927 98.3709 17.0072C98.3548 18.1443 97.9758 19.1765 97.2904 20.0958C96.7904 20.757 96.6049 21.4989 96.7501 22.3214C96.8388 22.8294 97.0565 23.2407 97.5887 23.402C98.1371 23.5633 98.6774 23.4342 98.9999 22.9988C99.5725 22.2327 100.121 21.4263 100.556 20.5796C101.145 19.4264 101.613 18.2007 102.153 17.0234C102.726 15.7815 103.443 14.6526 104.854 14.2413C105.161 14.1526 105.524 14.1607 105.83 14.2252C105.967 14.2494 106.169 14.6042 106.12 14.7171C105.935 15.1848 105.725 15.6767 105.411 16.0638C104.58 17.0879 103.613 18.0072 102.846 19.0716C101.516 20.9263 101.105 23.0633 101.363 25.297C101.508 26.5631 101.871 27.813 102.169 29.0548C102.274 29.4984 102.169 29.829 101.79 29.9983C101.105 30.2967 77.4207 30.4096 76.6546 30.0709Z" fill="white"/>
<path d="M79.0738 14.8536C79.0657 15.41 78.7512 15.8374 78.3641 15.8293C77.9771 15.8212 77.6787 15.3858 77.6787 14.8294C77.6787 14.273 77.9851 13.8456 78.3803 13.8536C78.7593 13.8617 79.0818 14.3213 79.0738 14.8536Z" fill="white"/>
<path d="M105.927 11.3136C105.919 11.8459 105.637 12.2652 105.258 12.2652C104.79 12.2652 104.629 11.9184 104.556 11.5314C104.443 10.983 104.701 10.4266 105.096 10.3298C105.548 10.2169 105.935 10.6685 105.927 11.3136Z" fill="white"/>
<path d="M73.4935 11.459C73.4613 11.5477 73.4129 11.8057 73.2758 11.9993C73.0097 12.3863 72.5581 12.3621 72.3162 11.967C72.2033 11.7815 72.1307 11.5396 72.1146 11.3219C72.0743 10.7574 72.413 10.2978 72.8242 10.3139C73.2194 10.33 73.5016 10.7493 73.4935 11.459Z" fill="white"/>
<path d="M100.347 14.8132C100.355 15.3697 100.064 15.8132 99.6854 15.8212C99.2983 15.8374 98.9676 15.3939 98.9515 14.8616C98.9354 14.3375 99.2499 13.8698 99.6289 13.8536C100.032 13.8456 100.339 14.2568 100.347 14.8132Z" fill="white"/>
<path d="M93.6857 15.8292C93.6938 16.3695 93.3873 16.813 92.9922 16.813C92.5971 16.813 92.3067 16.4098 92.2906 15.8937C92.2745 15.3293 92.597 14.8857 93.0164 14.8857C93.3954 14.8857 93.6776 15.2809 93.6857 15.8292Z" fill="white"/>
<path d="M85.7426 15.8301C85.7507 16.3784 85.4362 16.8139 85.0411 16.8139C84.6701 16.8139 84.3637 16.3865 84.3556 15.8704C84.3476 15.3301 84.6701 14.8866 85.0653 14.8946C85.4523 14.8946 85.7346 15.2898 85.7426 15.8301Z" fill="white"/>
<path d="M107.096 33.7641V32.8125H71.1711V33.7641C80.356 34.0705 87.5572 36.9332 87.5572 40.4168C87.5572 41.8522 86.3314 43.1828 84.259 44.2714H94.0164C91.9359 43.1828 90.7182 41.8522 90.7182 40.4168C90.7102 36.9332 97.9113 34.0705 107.096 33.7641Z" fill="white"/>
<path d="M92.1456 39.9567C92.1456 40.7792 90.7989 41.4485 89.1297 41.4485C87.4605 41.4485 86.1138 40.7792 86.1138 39.9567C86.1138 39.1342 87.4605 38.4648 89.1297 38.4648C90.7989 38.4648 92.1456 39.1342 92.1456 39.9567Z" fill="white"/>
</g>
<defs>
<clipPath id="clip0_683_1499">
<rect width="178.371" height="123" fill="white"/>
</clipPath>
</defs>
</svg>
